<?xml version="1.0" encoding="UTF-8" standalone="no"?><!DOCTYPE svg PUBLIC "-//W3C//DTD SVG 1.1//EN" "http://www.w3.org/Graphics/SVG/1.1/DTD/svg11.dtd"><svg width="100%" height="100%" viewBox="0 0 273 408" version="1.1" xmlns="http://www.w3.org/2000/svg" xmlns:xlink="http://www.w3.org/1999/xlink" xml:space="preserve" xmlns:serif="http://www.serif.com/" style="fill-rule:evenodd;clip-rule:evenodd;stroke-linejoin:round;stroke-miterlimit:1.41421;"><g><g id="g42"><path id="path44" d="M16.171,23.671l0,3.75l5.7,0l0,33.75l3.75,0l0,-33.75l5.55,0l0,-3.75l-5.55,0l-3.75,0l-5.7,0Z" style="fill:#f55;fill-rule:nonzero;"/><path id="path46" d="M136.171,173.671c0,0 6,10 13,17c7,7 17,13 17,13c0,0 -10,6 -17,13c-7,7 -13,17 -13,17c0,0 -6,-10 -13,-17c-6.999,-7 -17,-13 -17,-13c0,0 10,-6 17,-13c7,-6.999 13,-17 13,-17" style="fill:#f55;fill-rule:nonzero;"/><path id="path48" d="M248.671,316.171c0,0 2.25,3.75 4.875,6.375c2.625,2.625 6.375,4.875 6.375,4.875c0,0 -3.75,2.25 -6.375,4.875c-2.625,2.625 -4.875,6.375 -4.875,6.375c0,0 -2.25,-3.75 -4.875,-6.375c-2.625,-2.625 -6.375,-4.875 -6.375,-4.875c0,0 3.75,-2.25 6.375,-4.875c2.625,-2.625 4.875,-6.375 4.875,-6.375" style="fill:#f55;fill-rule:nonzero;"/><path id="path50" d="M23.671,68.671c0,0 2.25,3.75 4.875,6.375c2.625,2.625 6.375,4.875 6.375,4.875c0,0 -3.75,2.25 -6.375,4.875c-2.625,2.625 -4.875,6.375 -4.875,6.375c0,0 -2.25,-3.75 -4.875,-6.375c-2.625,-2.625 -6.375,-4.875 -6.375,-4.875c0,0 3.75,-2.25 6.375,-4.875c2.625,-2.625 4.875,-6.375 4.875,-6.375" style="fill:#f55;fill-rule:nonzero;"/><path id="path52" d="M241.171,383.671l0,-3.75l5.7,0l0,-33.75l3.75,0l0,33.75l5.55,0l0,3.75l-5.55,0l-3.75,0l-5.7,0Z" style="fill:#f55;fill-rule:nonzero;"/></g></g></svg>