<?xml version="1.0" encoding="UTF-8" standalone="no"?><!DOCTYPE svg PUBLIC "-//W3C//DTD SVG 1.1//EN" "http://www.w3.org/Graphics/SVG/1.1/DTD/svg11.dtd"><svg width="100%" height="100%" viewBox="0 0 273 408" version="1.1" xmlns="http://www.w3.org/2000/svg" xmlns:xlink="http://www.w3.org/1999/xlink" xml:space="preserve" xmlns:serif="http://www.serif.com/" style="fill-rule:evenodd;clip-rule:evenodd;stroke-linejoin:round;stroke-miterlimit:1.41421;"><g><g id="g88"><path id="path90" d="M136.171,38.671c0,0 6,10 13,17c7,7 17,13 17,13c0,0 -10,6 -17,13c-7,7 -13,17 -13,17c0,0 -6,-10 -13,-17c-6.999,-7 -17,-13 -17,-13c0,0 10,-6 17,-13c7,-6.999 13,-17 13,-17" style="fill:#f55;fill-rule:nonzero;"/><path id="path92" d="M136.171,308.671c0,0 6,10 13,17c7,7 17,13 17,13c0,0 -10,6 -17,13c-7,7 -13,17 -13,17c0,0 -6,-10 -13,-17c-6.999,-7 -17,-13 -17,-13c0,0 10,-6 17,-13c7,-6.999 13,-17 13,-17" style="fill:#f55;fill-rule:nonzero;"/><path id="path94" d="M248.671,316.171c0,0 2.25,3.75 4.875,6.375c2.625,2.625 6.375,4.875 6.375,4.875c0,0 -3.75,2.25 -6.375,4.875c-2.625,2.625 -4.875,6.375 -4.875,6.375c0,0 -2.25,-3.75 -4.875,-6.375c-2.625,-2.625 -6.375,-4.875 -6.375,-4.875c0,0 3.75,-2.25 6.375,-4.875c2.625,-2.625 4.875,-6.375 4.875,-6.375" style="fill:#f55;fill-rule:nonzero;"/><path id="path96" d="M23.671,68.671c0,0 2.25,3.75 4.875,6.375c2.625,2.625 6.375,4.875 6.375,4.875c0,0 -3.75,2.25 -6.375,4.875c-2.625,2.625 -4.875,6.375 -4.875,6.375c0,0 -2.25,-3.75 -4.875,-6.375c-2.625,-2.625 -6.375,-4.875 -6.375,-4.875c0,0 3.75,-2.25 6.375,-4.875c2.625,-2.625 4.875,-6.375 4.875,-6.375" style="fill:#f55;fill-rule:nonzero;"/><path id="path98" d="M23.671,23.671c-4.155,0 -7.5,3.345 -7.5,7.5l0,3.75l3.75,0l0,-3.75c0,-2.077 1.673,-3.75 3.75,-3.75c2.078,0 3.75,1.673 3.75,3.75l0,3.75c0,0.846 -0.281,2.299 -0.75,2.925c-3.347,6.828 -6.958,12.848 -10.5,19.575l0,3.75l15,0l0,-3.75l0,-3.75l-3.75,0l0,3.75l-3.75,0l-3.375,0c3.367,-5.936 6.164,-11.679 9.375,-17.7c0.938,-1.252 1.5,-3.109 1.5,-4.8l0,-3.75c0,-4.155 -3.345,-7.5 -7.5,-7.5" style="fill:#f55;fill-rule:nonzero;"/><path id="path100" d="M248.671,383.671c4.155,0 7.5,-3.345 7.5,-7.5l0,-3.75l-3.75,0l0,3.75c0,2.078 -1.672,3.75 -3.75,3.75c-2.077,0 -3.75,-1.672 -3.75,-3.75l0,-3.75c0,-0.846 0.281,-2.299 0.75,-2.925c3.347,-6.828 6.959,-12.847 10.5,-19.575l0,-3.75l-7.5,0l-7.5,0l0,7.5l3.75,0l0,-3.75l7.125,0c-3.367,5.936 -6.163,11.679 -9.375,17.7c-0.937,1.252 -1.5,3.109 -1.5,4.8l0,3.75c0,4.155 3.345,7.5 7.5,7.5" style="fill:#f55;fill-rule:nonzero;"/></g></g></svg>