<?xml version="1.0" encoding="UTF-8" standalone="no"?><!DOCTYPE svg PUBLIC "-//W3C//DTD SVG 1.1//EN" "http://www.w3.org/Graphics/SVG/1.1/DTD/svg11.dtd"><svg width="100%" height="100%" viewBox="0 0 273 408" version="1.1" xmlns="http://www.w3.org/2000/svg" xmlns:xlink="http://www.w3.org/1999/xlink" xml:space="preserve" xmlns:serif="http://www.serif.com/" style="fill-rule:evenodd;clip-rule:evenodd;stroke-linejoin:round;stroke-miterlimit:1.41421;"><g><g id="g144"><path id="path146" d="M136.171,188.671c0,0 1.365,-8.365 4,-11c2.635,-2.636 7.273,-4 11,-4c3.727,0 8.365,1.365 11,4c2.636,2.635 4,7.273 4,11c0,3.727 -2,9 -4,11c-2,2.001 -3.999,3 -6,5.001c-2,2 -3,2 -5,3.999c-2,2.001 -3,3 -5,5.001c-2,2 -5,6 -7,9.999c-2,4 -3,10 -3,10c0,0 -1,-6 -3,-10c-2,-3.999 -5,-8 -7,-9.999c-2,-2.001 -3,-3 -5,-5.001c-2,-2 -3,-2 -5,-3.999c-2,-2.001 -4,-3 -6,-5.001c-2,-2 -4,-7.273 -4,-11c0,-3.727 1.365,-8.365 4,-11c2.635,-2.636 7.273,-4 11,-4c3.727,0 8.365,1.365 11,4c2.636,2.635 4,11 4,11" style="fill:#f55;fill-rule:nonzero;"/><path id="path148" d="M23.671,74.296c0,0 0.512,-3.136 1.5,-4.125c0.989,-0.988 2.728,-1.5 4.125,-1.5c1.397,0 3.137,0.512 4.125,1.5c0.989,0.989 1.5,2.728 1.5,4.125c0,1.397 -0.75,3.375 -1.5,4.125c-0.75,0.75 -1.5,1.125 -2.25,1.875c-0.75,0.75 -1.125,0.75 -1.875,1.5c-0.75,0.75 -1.125,1.125 -1.875,1.875c-0.75,0.75 -1.875,2.25 -2.625,3.75c-0.75,1.5 -1.125,3.75 -1.125,3.75c0,0 -0.375,-2.25 -1.125,-3.75c-0.75,-1.5 -1.875,-3 -2.625,-3.75c-0.75,-0.75 -1.125,-1.125 -1.875,-1.875c-0.75,-0.75 -1.125,-0.75 -1.875,-1.5c-0.75,-0.75 -1.5,-1.125 -2.25,-1.875c-0.75,-0.75 -1.5,-2.728 -1.5,-4.125c0,-1.397 0.512,-3.136 1.5,-4.125c0.989,-0.988 2.728,-1.5 4.125,-1.5c1.397,0 3.137,0.512 4.125,1.5c0.989,0.989 1.5,4.125 1.5,4.125" style="fill:#f55;fill-rule:nonzero;"/><path id="path150" d="M248.671,333.046c0,0 0.512,3.137 1.5,4.125c0.989,0.989 2.728,1.5 4.125,1.5c1.397,0 3.137,-0.511 4.125,-1.5c0.989,-0.988 1.5,-2.728 1.5,-4.125c0,-1.397 -0.75,-3.375 -1.5,-4.125c-0.75,-0.75 -1.5,-1.125 -2.25,-1.875c-0.75,-0.75 -1.125,-0.75 -1.875,-1.5c-0.75,-0.75 -1.125,-1.125 -1.875,-1.875c-0.75,-0.75 -1.875,-2.25 -2.625,-3.75c-0.75,-1.5 -1.125,-3.75 -1.125,-3.75c0,0 -0.375,2.25 -1.125,3.75c-0.75,1.5 -1.875,3 -2.625,3.75c-0.75,0.75 -1.125,1.125 -1.875,1.875c-0.75,0.75 -1.125,0.75 -1.875,1.5c-0.75,0.75 -1.5,1.125 -2.25,1.875c-0.75,0.75 -1.5,2.728 -1.5,4.125c0,1.397 0.512,3.137 1.5,4.125c0.989,0.989 2.728,1.5 4.125,1.5c1.397,0 3.137,-0.511 4.125,-1.5c0.989,-0.988 1.5,-4.125 1.5,-4.125" style="fill:#f55;fill-rule:nonzero;"/><path id="path152" d="M23.671,23.671c-4.155,0 -7.5,3.345 -7.5,7.5l0,3.75l3.75,0l0,-3.75c0,-2.077 1.673,-3.75 3.75,-3.75c2.078,0 3.75,1.673 3.75,3.75l0,3.75c0,2.078 -1.672,3.75 -3.75,3.75l-3.75,0l0,3.75l3.75,0c2.078,0 3.75,1.673 3.75,3.75l0,7.5c0,2.078 -1.672,3.75 -3.75,3.75c-2.077,0 -3.75,-1.672 -3.75,-3.75l0,-3.75l-3.75,0l0,3.75c0,4.155 3.345,7.5 7.5,7.5c4.155,0 7.5,-3.345 7.5,-7.5l0,-7.5c0,-2.25 -0.992,-4.252 -2.554,-5.625c1.562,-1.372 2.554,-3.372 2.554,-5.625l0,-3.75c0,-4.155 -3.345,-7.5 -7.5,-7.5" style="fill:#f55;fill-rule:nonzero;"/><path id="path154" d="M136.171,53.671c0,0 1.365,-8.365 4,-11c2.635,-2.636 7.273,-4 11,-4c3.727,0 8.365,1.365 11,4c2.636,2.635 4,7.273 4,11c0,3.727 -2,9 -4,11c-2,2.001 -3.999,3 -6,5.001c-2,2 -3,2 -5,3.999c-2,2.001 -3,3 -5,5.001c-2,2 -5,6 -7,9.999c-2,4 -3,10 -3,10c0,0 -1,-6 -3,-10c-2,-3.999 -5,-8 -7,-9.999c-2,-2.001 -3,-3 -5,-5.001c-2,-2 -3,-2 -5,-3.999c-2,-2.001 -4,-3 -6,-5.001c-2,-2 -4,-7.273 -4,-11c0,-3.727 1.365,-8.365 4,-11c2.635,-2.636 7.273,-4 11,-4c3.727,0 8.365,1.365 11,4c2.636,2.635 4,11 4,11" style="fill:#f55;fill-rule:nonzero;"/><path id="path156" d="M136.171,353.671c0,0 1.365,8.365 4,11c2.635,2.636 7.273,4 11,4c3.727,0 8.365,-1.365 11,-4c2.636,-2.635 4,-7.273 4,-11c0,-3.727 -2,-9 -4,-11c-2,-2 -3.999,-3 -6,-5c-2,-2.001 -3,-2.001 -5,-4c-2,-2 -3,-3 -5,-5c-2,-2.001 -5,-6 -7,-10c-2,-4 -3,-10 -3,-10c0,0 -1,6 -3,10c-2,4 -5,8 -7,10c-2,2 -3,3 -5,5c-2,2 -3,2 -5,4c-2,2 -4,3 -6,5c-2,2 -4,7.273 -4,11c0,3.727 1.365,8.365 4,11c2.635,2.636 7.273,4 11,4c3.727,0 8.365,-1.365 11,-4c2.636,-2.635 4,-11 4,-11" style="fill:#f55;fill-rule:nonzero;"/><path id="path158" d="M248.671,383.671c4.155,0 7.5,-3.345 7.5,-7.5l0,-3.75l-3.75,0l0,3.75c0,2.078 -1.672,3.75 -3.75,3.75c-2.077,0 -3.75,-1.672 -3.75,-3.75l0,-3.75c0,-2.077 1.673,-3.75 3.75,-3.75l3.75,0l0,-3.75l-3.75,0c-2.077,0 -3.75,-1.672 -3.75,-3.75l0,-7.5c0,-2.077 1.673,-3.75 3.75,-3.75c2.078,0 3.75,1.673 3.75,3.75l0,3.75l3.75,0l0,-3.75c0,-4.155 -3.345,-7.5 -7.5,-7.5c-4.155,0 -7.5,3.345 -7.5,7.5l0,7.5c0,2.25 0.992,4.253 2.555,5.625c-1.563,1.373 -2.555,3.372 -2.555,5.625l0,3.75c0,4.155 3.345,7.5 7.5,7.5" style="fill:#f55;fill-rule:nonzero;"/></g></g></svg>