<?xml version="1.0" encoding="UTF-8" standalone="no"?><!DOCTYPE svg PUBLIC "-//W3C//DTD SVG 1.1//EN" "http://www.w3.org/Graphics/SVG/1.1/DTD/svg11.dtd"><svg width="100%" height="100%" viewBox="0 0 273 408" version="1.1" xmlns="http://www.w3.org/2000/svg" xmlns:xlink="http://www.w3.org/1999/xlink" xml:space="preserve" xmlns:serif="http://www.serif.com/" style="fill-rule:evenodd;clip-rule:evenodd;stroke-linejoin:round;stroke-miterlimit:1.41421;"><g><g id="g336"><path id="path338" d="M23.671,74.296c0,0 0.512,-3.136 1.5,-4.125c0.989,-0.988 2.728,-1.5 4.125,-1.5c1.397,0 3.137,0.512 4.125,1.5c0.989,0.989 1.5,2.728 1.5,4.125c0,1.397 -0.75,3.375 -1.5,4.125c-0.75,0.75 -1.5,1.125 -2.25,1.875c-0.75,0.75 -1.125,0.75 -1.875,1.5c-0.75,0.75 -1.125,1.125 -1.875,1.875c-0.75,0.75 -1.875,2.25 -2.625,3.75c-0.75,1.5 -1.125,3.75 -1.125,3.75c0,0 -0.375,-2.25 -1.125,-3.75c-0.75,-1.5 -1.875,-3 -2.625,-3.75c-0.75,-0.75 -1.125,-1.125 -1.875,-1.875c-0.75,-0.75 -1.125,-0.75 -1.875,-1.5c-0.75,-0.75 -1.5,-1.125 -2.25,-1.875c-0.75,-0.75 -1.5,-2.728 -1.5,-4.125c0,-1.397 0.512,-3.136 1.5,-4.125c0.989,-0.988 2.728,-1.5 4.125,-1.5c1.397,0 3.137,0.512 4.125,1.5c0.989,0.989 1.5,4.125 1.5,4.125" style="fill:#f55;fill-rule:nonzero;"/><path id="path340" d="M248.671,333.046c0,0 0.512,3.137 1.5,4.125c0.989,0.989 2.728,1.5 4.125,1.5c1.397,0 3.137,-0.511 4.125,-1.5c0.989,-0.988 1.5,-2.728 1.5,-4.125c0,-1.397 -0.75,-3.375 -1.5,-4.125c-0.75,-0.75 -1.5,-1.125 -2.25,-1.875c-0.75,-0.75 -1.125,-0.75 -1.875,-1.5c-0.75,-0.75 -1.125,-1.125 -1.875,-1.875c-0.75,-0.75 -1.875,-2.25 -2.625,-3.75c-0.75,-1.5 -1.125,-3.75 -1.125,-3.75c0,0 -0.375,2.25 -1.125,3.75c-0.75,1.5 -1.875,3 -2.625,3.75c-0.75,0.75 -1.125,1.125 -1.875,1.875c-0.75,0.75 -1.125,0.75 -1.875,1.5c-0.75,0.75 -1.5,1.125 -2.25,1.875c-0.75,0.75 -1.5,2.728 -1.5,4.125c0,1.397 0.512,3.137 1.5,4.125c0.989,0.989 2.728,1.5 4.125,1.5c1.397,0 3.137,-0.511 4.125,-1.5c0.989,-0.988 1.5,-4.125 1.5,-4.125" style="fill:#f55;fill-rule:nonzero;"/><path id="path342" d="M76.171,53.671c0,0 1.365,-8.365 4,-11c2.635,-2.636 7.273,-4 11,-4c3.727,0 8.365,1.365 11,4c2.636,2.635 4,7.273 4,11c0,3.727 -2,9 -4,11c-2,2.001 -3.999,3 -6,5.001c-2,2 -3,2 -5,3.999c-2,2.001 -3,3 -5,5.001c-2,2 -5,6 -7,9.999c-2,4 -3,10 -3,10c0,0 -1,-6 -3,-10c-2,-3.999 -5,-8 -7,-9.999c-2,-2.001 -3,-3 -5,-5.001c-2,-2 -3,-2 -5,-3.999c-2,-2.001 -4,-3 -6,-5.001c-2,-2 -4,-7.273 -4,-11c0,-3.727 1.365,-8.365 4,-11c2.635,-2.636 7.273,-4 11,-4c3.727,0 8.365,1.365 11,4c2.636,2.635 4,11 4,11" style="fill:#f55;fill-rule:nonzero;"/><path id="path344" d="M76.171,353.671c0,0 1.365,8.365 4,11c2.635,2.636 7.273,4 11,4c3.727,0 8.365,-1.365 11,-4c2.636,-2.635 4,-7.273 4,-11c0,-3.727 -2,-9 -4,-11c-2,-2 -3.999,-3 -6,-5c-2,-2.001 -3,-2.001 -5,-4c-2,-2 -3,-3 -5,-5c-2,-2.001 -5,-6 -7,-10c-2,-4 -3,-10 -3,-10c0,0 -1,6 -3,10c-2,4 -5,8 -7,10c-2,2 -3,3 -5,5c-2,2 -3,2 -5,4c-2,2 -4,3 -6,5c-2,2 -4,7.273 -4,11c0,3.727 1.365,8.365 4,11c2.635,2.636 7.273,4 11,4c3.727,0 8.365,-1.365 11,-4c2.636,-2.635 4,-11 4,-11" style="fill:#f55;fill-rule:nonzero;"/><path id="path346" d="M23.671,23.671l-7.5,26.25l0,3.75l9,0l0,7.5l3.75,0l0,-7.5l2.25,0l0,-3.75l-2.25,0l0,-11.25l-3.75,0l0,11.25l-5.1,0l7.5,-26.25l-3.9,0Z" style="fill:#f55;fill-rule:nonzero;"/><path id="path348" d="M248.671,383.671l7.5,-26.25l0,-3.75l-9,0l0,-7.5l-3.75,0l0,7.5l-2.25,0l0,3.75l2.25,0l0,11.25l3.75,0l0,-11.25l5.1,0l-7.5,26.25l3.9,0Z" style="fill:#f55;fill-rule:nonzero;"/><path id="path350" d="M196.171,353.671c0,0 1.365,8.365 4,11c2.635,2.636 7.273,4 11,4c3.727,0 8.365,-1.365 11,-4c2.636,-2.635 4,-7.273 4,-11c0,-3.727 -2,-9 -4,-11c-2,-2 -3.999,-3 -6,-5c-2,-2.001 -3,-2.001 -5,-4c-2,-2 -3,-3 -5,-5c-2,-2.001 -5,-6 -7,-10c-2,-4 -3,-10 -3,-10c0,0 -1,6 -3,10c-2,4 -5,8 -7,10c-2,2 -3,3 -5,5c-2,2 -3,2 -5,4c-2,2 -4,3 -6,5c-2,2 -4,7.273 -4,11c0,3.727 1.365,8.365 4,11c2.635,2.636 7.273,4 11,4c3.727,0 8.365,-1.365 11,-4c2.636,-2.635 4,-11 4,-11" style="fill:#f55;fill-rule:nonzero;"/><path id="path352" d="M196.171,53.671c0,0 1.365,-8.365 4,-11c2.635,-2.636 7.273,-4 11,-4c3.727,0 8.365,1.365 11,4c2.636,2.635 4,7.273 4,11c0,3.727 -2,9 -4,11c-2,2.001 -3.999,3 -6,5.001c-2,2 -3,2 -5,3.999c-2,2.001 -3,3 -5,5.001c-2,2 -5,6 -7,9.999c-2,4 -3,10 -3,10c0,0 -1,-6 -3,-10c-2,-3.999 -5,-8 -7,-9.999c-2,-2.001 -3,-3 -5,-5.001c-2,-2 -3,-2 -5,-3.999c-2,-2.001 -4,-3 -6,-5.001c-2,-2 -4,-7.273 -4,-11c0,-3.727 1.365,-8.365 4,-11c2.635,-2.636 7.273,-4 11,-4c3.727,0 8.365,1.365 11,4c2.636,2.635 4,11 4,11" style="fill:#f55;fill-rule:nonzero;"/></g></g></svg>