<?xml version="1.0" encoding="UTF-8" standalone="no"?><!DOCTYPE svg PUBLIC "-//W3C//DTD SVG 1.1//EN" "http://www.w3.org/Graphics/SVG/1.1/DTD/svg11.dtd"><svg width="100%" height="100%" viewBox="0 0 273 408" version="1.1" xmlns="http://www.w3.org/2000/svg" xmlns:xlink="http://www.w3.org/1999/xlink" xml:space="preserve" xmlns:serif="http://www.serif.com/" style="fill-rule:evenodd;clip-rule:evenodd;stroke-linejoin:round;stroke-miterlimit:1.41421;"><g><g id="g358"><path id="path360" d="M76.171,38.671c0,0 6,10 13,17c7,7 17,13 17,13c0,0 -10,6 -17,13c-7,7 -13,17 -13,17c0,0 -6,-10 -13,-17c-6.999,-7 -17,-13 -17,-13c0,0 10,-6 17,-13c7,-6.999 13,-17 13,-17" style="fill:#f55;fill-rule:nonzero;"/><path id="path362" d="M196.171,38.671c0,0 6,10 13,17c7,7 17,13 17,13c0,0 -10,6 -17,13c-7,7 -13,17 -13,17c0,0 -6,-10 -13,-17c-6.999,-7 -17,-13 -17,-13c0,0 10,-6 17,-13c7,-6.999 13,-17 13,-17" style="fill:#f55;fill-rule:nonzero;"/><path id="path364" d="M136.171,173.671c0,0 6,10 13,17c7,7 17,13 17,13c0,0 -10,6 -17,13c-7,7 -13,17 -13,17c0,0 -6,-10 -13,-17c-6.999,-7 -17,-13 -17,-13c0,0 10,-6 17,-13c7,-6.999 13,-17 13,-17" style="fill:#f55;fill-rule:nonzero;"/><path id="path366" d="M76.171,308.671c0,0 6,10 13,17c7,7 17,13 17,13c0,0 -10,6 -17,13c-7,7 -13,17 -13,17c0,0 -6,-10 -13,-17c-6.999,-7 -17,-13 -17,-13c0,0 10,-6 17,-13c7,-6.999 13,-17 13,-17" style="fill:#f55;fill-rule:nonzero;"/><path id="path368" d="M196.171,308.671c0,0 6,10 13,17c7,7 17,13 17,13c0,0 -10,6 -17,13c-7,7 -13,17 -13,17c0,0 -6,-10 -13,-17c-6.999,-7 -17,-13 -17,-13c0,0 10,-6 17,-13c7,-6.999 13,-17 13,-17" style="fill:#f55;fill-rule:nonzero;"/><path id="path370" d="M248.671,316.171c0,0 2.25,3.75 4.875,6.375c2.625,2.625 6.375,4.875 6.375,4.875c0,0 -3.75,2.25 -6.375,4.875c-2.625,2.625 -4.875,6.375 -4.875,6.375c0,0 -2.25,-3.75 -4.875,-6.375c-2.625,-2.625 -6.375,-4.875 -6.375,-4.875c0,0 3.75,-2.25 6.375,-4.875c2.625,-2.625 4.875,-6.375 4.875,-6.375" style="fill:#f55;fill-rule:nonzero;"/><path id="path372" d="M23.671,68.671c0,0 2.25,3.75 4.875,6.375c2.625,2.625 6.375,4.875 6.375,4.875c0,0 -3.75,2.25 -6.375,4.875c-2.625,2.625 -4.875,6.375 -4.875,6.375c0,0 -2.25,-3.75 -4.875,-6.375c-2.625,-2.625 -6.375,-4.875 -6.375,-4.875c0,0 3.75,-2.25 6.375,-4.875c2.625,-2.625 4.875,-6.375 4.875,-6.375" style="fill:#f55;fill-rule:nonzero;"/><path id="path374" d="M16.171,23.671l0,15l7.5,0c2.078,0 3.75,1.673 3.75,3.75l0,11.25c0,2.078 -1.672,3.75 -3.75,3.75c-2.077,0 -3.75,-1.672 -3.75,-3.75l0,-3.75l-3.75,0l0,3.75c0,4.155 3.345,7.5 7.5,7.5c4.155,0 7.5,-3.345 7.5,-7.5l0,-11.25c0,-4.155 -3.52,-8.695 -7.5,-7.5l-3.75,0l0,-7.5l11.25,0l0,-3.75l-7.5,0l-3.75,0l-3.75,0Z" style="fill:#f55;fill-rule:nonzero;"/><path id="path376" d="M256.171,383.671l0,-11.25l0,-3.75l-7.5,0c-2.077,0 -3.75,-1.672 -3.75,-3.75l0,-11.25c0,-2.077 1.673,-3.75 3.75,-3.75c2.078,0 3.75,1.673 3.75,3.75l0,3.75l3.75,0l0,-3.75c0,-4.155 -3.345,-7.5 -7.5,-7.5c-4.155,0 -7.5,3.345 -7.5,7.5l0,11.25c0,4.155 3.345,7.5 7.5,7.5l3.75,0l0,7.5l-3.75,0l-7.5,0l0,3.75l15,0Z" style="fill:#f55;fill-rule:nonzero;"/></g></g></svg>