<?xml version="1.0" encoding="UTF-8" standalone="no"?><!DOCTYPE svg PUBLIC "-//W3C//DTD SVG 1.1//EN" "http://www.w3.org/Graphics/SVG/1.1/DTD/svg11.dtd"><svg width="100%" height="100%" viewBox="0 0 273 408" version="1.1" xmlns="http://www.w3.org/2000/svg" xmlns:xlink="http://www.w3.org/1999/xlink" xml:space="preserve" xmlns:serif="http://www.serif.com/" style="fill-rule:evenodd;clip-rule:evenodd;stroke-linejoin:round;stroke-miterlimit:1.41421;"><g><path id="path14438" d="M16.171,23.671l0,15l7.5,0c2.078,0 3.75,1.673 3.75,3.75l0,11.25c0,2.078 -1.672,3.75 -3.75,3.75c-2.077,0 -3.75,-1.672 -3.75,-3.75l0,-3.75l-3.75,0l0,3.75c0,4.155 3.345,7.5 7.5,7.5c4.155,0 7.5,-3.345 7.5,-7.5l0,-11.25c0,-4.155 -3.345,-7.5 -7.5,-7.5l-3.75,0l0,-7.5l11.25,0l0,-3.75l-7.5,0l-3.75,0l-3.75,0Z" style="fill-rule:nonzero;"/><path id="path14440" d="M256.171,383.671l0,-11.25l0,-3.75l-7.5,0c-2.077,0 -3.75,-1.672 -3.75,-3.75l0,-11.25c0,-2.077 1.673,-3.75 3.75,-3.75c2.078,0 3.75,1.673 3.75,3.75l0,3.75l3.75,0l0,-3.75c0,-4.155 -3.345,-7.5 -7.5,-7.5c-4.155,0 -7.5,3.345 -7.5,7.5l0,11.25c0,4.155 3.345,7.5 7.5,7.5l3.75,0l0,7.5l-3.75,0l-7.5,0l0,3.75l15,0Z" style="fill-rule:nonzero;"/><path id="path14442" d="M76.171,38.671c-1,5 -2.141,6.294 -4,9c-1.601,2.332 -3.841,4.172 -6,6c-2.187,1.853 -4.686,3.306 -6.999,5c-2.69,1.969 -5.865,3.441 -8.001,6c-2.388,2.862 -5,6.273 -5,10c0,2.981 1.806,5.981 4,8c2.642,2.431 6.411,4.083 10,4c4.026,-0.093 8.1,-2.205 11,-5c2.146,-2.069 4,-8 4,-8l0,2c0,1 -0.1,5.467 -1,8c-1.053,2.963 -2.873,5.684 -5,8c-2.258,2.455 -8.001,6 -8.001,6l0,1c0,0 7.959,-1.666 12,-2c1.994,-0.165 4.007,-0.165 6,0c4.041,0.334 12,2 12,2l0,-1c0,0 -5.745,-3.545 -8,-6c-2.127,-2.316 -3.947,-5.037 -5,-8c-0.9,-2.532 -1,-8 -1,-8l0,-2c0,0 1.853,5.931 4,8c2.9,2.794 6.973,4.907 11,5c3.59,0.083 7.358,-1.569 10,-4c2.194,-2.019 4,-5.018 4,-8c0,-3.727 -2.613,-7.138 -5.001,-10c-2.136,-2.559 -5.31,-4.031 -8,-6c-2.314,-1.693 -4.812,-3.146 -7,-5c-2.158,-1.828 -4.398,-3.668 -6,-6c-1.858,-2.706 -3,-4 -3.999,-9" style="fill-rule:nonzero;"/><path id="path14444" d="M196.171,38.671c-1,5 -2.141,6.294 -4,9c-1.601,2.332 -3.841,4.172 -6,6c-2.187,1.853 -4.686,3.306 -6.999,5c-2.69,1.969 -5.865,3.441 -8.001,6c-2.388,2.862 -5,6.273 -5,10c0,2.981 1.806,5.981 4,8c2.642,2.431 6.411,4.083 10,4c4.026,-0.093 8.1,-2.205 11,-5c2.146,-2.069 4,-8 4,-8l0,2c0,1 -0.1,5.467 -1,8c-1.053,2.963 -2.873,5.684 -5,8c-2.258,2.455 -8.001,6 -8.001,6l0,1c0,0 7.959,-1.666 12,-2c1.994,-0.165 4.007,-0.165 6,0c4.041,0.334 12,2 12,2l0,-1c0,0 -5.745,-3.545 -8,-6c-2.127,-2.316 -3.947,-5.037 -5,-8c-0.9,-2.532 -1,-8 -1,-8l0,-2c0,0 1.853,5.931 4,8c2.9,2.794 6.973,4.907 11,5c3.59,0.083 7.358,-1.569 10,-4c2.194,-2.019 4,-5.018 4,-8c0,-3.727 -2.613,-7.138 -5.001,-10c-2.136,-2.559 -5.31,-4.031 -8,-6c-2.314,-1.693 -4.812,-3.146 -7,-5c-2.158,-1.828 -4.398,-3.668 -6,-6c-1.858,-2.706 -3,-4 -3.999,-9" style="fill-rule:nonzero;"/><path id="path14446" d="M136.171,173.671c-1,5 -2.141,6.294 -4,9c-1.601,2.332 -3.841,4.172 -6,6c-2.187,1.853 -4.686,3.306 -6.999,5c-2.69,1.969 -5.865,3.441 -8.001,6c-2.388,2.862 -5,6.273 -5,10c0,2.981 1.806,5.981 4,8c2.642,2.431 6.411,4.083 10,4c4.026,-0.093 8.1,-2.205 11,-5c2.146,-2.069 4,-8 4,-8l0,2c0,1 -0.1,5.467 -1,8c-1.053,2.963 -2.873,5.684 -5,8c-2.258,2.455 -8.001,6 -8.001,6l0,1c0,0 7.959,-1.666 12,-2c1.994,-0.165 4.007,-0.165 6,0c4.041,0.334 12,2 12,2l0,-1c0,0 -5.745,-3.545 -8,-6c-2.127,-2.316 -3.947,-5.037 -5,-8c-0.9,-2.532 -1,-8 -1,-8l0,-2c0,0 1.853,5.931 4,8c2.9,2.794 6.973,4.907 11,5c3.59,0.083 7.358,-1.569 10,-4c2.194,-2.019 4,-5.018 4,-8c0,-3.727 -2.613,-7.138 -5.001,-10c-2.136,-2.559 -5.31,-4.031 -8,-6c-2.314,-1.693 -4.812,-3.146 -7,-5c-2.158,-1.828 -4.398,-3.668 -6,-6c-1.858,-2.706 -3,-4 -3.999,-9" style="fill-rule:nonzero;"/><path id="path14448" d="M76.171,368.671c-1,-5 -2.141,-6.294 -4,-9c-1.601,-2.332 -3.841,-4.171 -6,-6c-2.187,-1.853 -4.686,-3.306 -6.999,-5c-2.69,-1.969 -5.865,-3.441 -8.001,-6c-2.388,-2.861 -5,-6.273 -5,-10c0,-2.981 1.806,-5.981 4,-8c2.642,-2.431 6.411,-4.083 10,-4c4.026,0.093 8.1,2.205 11,5c2.146,2.069 4,8.001 4,8.001l0,-2.001c0,-0.999 -0.1,-5.467 -1,-8c-1.053,-2.963 -2.873,-5.684 -5,-8c-2.258,-2.455 -8.001,-6 -8.001,-6l0,-1c0,0 7.959,1.666 12,2c1.994,0.165 4.007,0.165 6,0c4.041,-0.334 12,-2 12,-2l0,1c0,0 -5.745,3.545 -8,6c-2.127,2.316 -3.947,5.037 -5,8c-0.9,2.532 -1,8 -1,8l0,2.001c0,0 1.853,-5.931 4,-8.001c2.9,-2.794 6.973,-4.907 11,-5c3.59,-0.082 7.358,1.569 10,4c2.194,2.019 4,5.018 4,8c0,3.727 -2.613,7.139 -5.001,10c-2.136,2.559 -5.31,4.031 -8,6c-2.314,1.693 -4.812,3.146 -7,5c-2.158,1.829 -4.398,3.668 -6,6c-1.858,2.706 -3,4 -3.999,9" style="fill-rule:nonzero;"/><path id="path14450" d="M196.171,368.671c-1,-5 -2.141,-6.294 -4,-9c-1.601,-2.332 -3.841,-4.171 -6,-6c-2.187,-1.853 -4.686,-3.306 -6.999,-5c-2.69,-1.969 -5.865,-3.441 -8.001,-6c-2.388,-2.861 -5,-6.273 -5,-10c0,-2.981 1.806,-5.981 4,-8c2.642,-2.431 6.411,-4.083 10,-4c4.026,0.093 8.1,2.205 11,5c2.146,2.069 4,8.001 4,8.001l0,-2.001c0,-0.999 -0.1,-5.467 -1,-8c-1.053,-2.963 -2.873,-5.684 -5,-8c-2.258,-2.455 -8.001,-6 -8.001,-6l0,-1c0,0 7.959,1.666 12,2c1.994,0.165 4.007,0.165 6,0c4.041,-0.334 12,-2 12,-2l0,1c0,0 -5.745,3.545 -8,6c-2.127,2.316 -3.947,5.037 -5,8c-0.9,2.532 -1,8 -1,8l0,2.001c0,0 1.853,-5.931 4,-8.001c2.9,-2.794 6.973,-4.907 11,-5c3.59,-0.082 7.358,1.569 10,4c2.194,2.019 4,5.018 4,8c0,3.727 -2.613,7.139 -5.001,10c-2.136,2.559 -5.31,4.031 -8,6c-2.314,1.693 -4.812,3.146 -7,5c-2.158,1.829 -4.398,3.668 -6,6c-1.858,2.706 -3,4 -3.999,9" style="fill-rule:nonzero;"/><path id="path14452" d="M23.671,68.671c-0.375,1.875 -0.803,2.36 -1.5,3.375c-0.601,0.875 -1.441,1.565 -2.25,2.25c-0.82,0.695 -1.757,1.24 -2.625,1.875c-1.009,0.738 -2.199,1.29 -3,2.25c-0.895,1.073 -1.875,2.353 -1.875,3.75c0,1.118 0.677,2.243 1.5,3c0.991,0.911 2.404,1.531 3.75,1.5c1.508,-0.034 3.038,-0.827 4.125,-1.875c0.805,-0.775 1.5,-3 1.5,-3l0,0.75c0,0.375 -0.037,2.051 -0.375,3c-0.395,1.112 -1.077,2.132 -1.875,3c-0.845,0.92 -3,2.25 -3,2.25l0,0.375c0,0 2.984,-0.625 4.5,-0.75c0.748,-0.061 1.5,-0.061 2.25,0c1.515,0.125 4.5,0.75 4.5,0.75l0,-0.375c0,0 -2.155,-1.33 -3,-2.25c-0.798,-0.868 -1.48,-1.888 -1.875,-3c-0.337,-0.949 -0.375,-3 -0.375,-3l0,-0.75c0,0 0.695,2.225 1.5,3c1.088,1.048 2.615,1.841 4.125,1.875c1.346,0.031 2.759,-0.589 3.75,-1.5c0.823,-0.757 1.5,-1.882 1.5,-3c0,-1.397 -0.979,-2.677 -1.875,-3.75c-0.801,-0.96 -1.991,-1.515 -3,-2.25c-0.868,-0.635 -1.804,-1.18 -2.625,-1.875c-0.809,-0.685 -1.649,-1.375 -2.25,-2.25c-0.697,-1.015 -1.125,-1.5 -1.5,-3.375" style="fill-rule:nonzero;"/><path id="path14454" d="M248.671,338.671c-0.375,-1.875 -0.803,-2.36 -1.5,-3.375c-0.601,-0.874 -1.441,-1.564 -2.25,-2.25c-0.82,-0.695 -1.757,-1.24 -2.625,-1.875c-1.009,-0.738 -2.199,-1.29 -3,-2.25c-0.895,-1.073 -1.875,-2.353 -1.875,-3.75c0,-1.118 0.677,-2.243 1.5,-3c0.991,-0.911 2.404,-1.531 3.75,-1.5c1.508,0.035 3.038,0.827 4.125,1.875c0.805,0.776 1.5,3 1.5,3l0,-0.75c0,-0.375 -0.037,-2.05 -0.375,-3c-0.395,-1.111 -1.077,-2.131 -1.875,-3c-0.845,-0.92 -3,-2.25 -3,-2.25l0,-0.375c0,0 2.984,0.625 4.5,0.75c0.748,0.062 1.5,0.062 2.25,0c1.515,-0.125 4.5,-0.75 4.5,-0.75l0,0.375c0,0 -2.155,1.33 -3,2.25c-0.798,0.869 -1.48,1.889 -1.875,3c-0.337,0.95 -0.375,3 -0.375,3l0,0.75c0,0 0.695,-2.224 1.5,-3c1.088,-1.048 2.615,-1.84 4.125,-1.875c1.346,-0.031 2.759,0.589 3.75,1.5c0.823,0.758 1.5,1.882 1.5,3c0,1.397 -0.979,2.677 -1.875,3.75c-0.801,0.96 -1.991,1.515 -3,2.25c-0.868,0.635 -1.804,1.18 -2.625,1.875c-0.809,0.686 -1.649,1.376 -2.25,2.25c-0.697,1.015 -1.125,1.5 -1.5,3.375" style="fill-rule:nonzero;"/></g></svg>