<?xml version="1.0" encoding="UTF-8" standalone="no"?><!DOCTYPE svg PUBLIC "-//W3C//DTD SVG 1.1//EN" "http://www.w3.org/Graphics/SVG/1.1/DTD/svg11.dtd"><svg width="100%" height="100%" viewBox="0 0 500 600" version="1.1" xmlns="http://www.w3.org/2000/svg" xmlns:xlink="http://www.w3.org/1999/xlink" xml:space="preserve" xmlns:serif="http://www.serif.com/" style="fill-rule:evenodd;clip-rule:evenodd;stroke-linejoin:round;stroke-miterlimit:1.41421;"><g><path d="M11.233,176.444c8.409,52.028 38.588,90.579 67.28,85.942c21.555,-3.483 36.13,-31.288 38.563,-66.258l-5.708,-35.314l-47.868,7.736l5.62,34.775l18.136,-2.931c-3.45,8.856 -9.076,15.574 -16.063,16.704c-15.014,2.426 -30.733,-17.439 -35.134,-44.666c-4.27,-26.419 3.666,-50.937 18.086,-53.268c10.109,-1.634 18.254,5.348 25.531,18.28l27.205,-4.397c-12.815,-37.762 -35.378,-63.16 -58.866,-59.364c-28.691,4.637 -45.191,50.733 -36.782,102.761Z" style="fill:none;stroke:#f55;stroke-width:9.5px;"/><path d="M11.233,176.444c8.409,52.028 38.588,90.579 67.28,85.942c21.555,-3.483 36.13,-31.288 38.563,-66.258l-5.708,-35.314l-47.868,7.736l5.62,34.775l18.136,-2.931c-3.45,8.856 -9.076,15.574 -16.063,16.704c-15.014,2.426 -30.733,-17.439 -35.134,-44.666c-4.27,-26.419 3.666,-50.937 18.086,-53.268c10.109,-1.634 18.254,5.348 25.531,18.28l27.205,-4.397c-12.815,-37.762 -35.378,-63.16 -58.866,-59.364c-28.691,4.637 -45.191,50.733 -36.782,102.761Z" style="fill:#1800ff;fill-rule:nonzero;"/><path d="M220.689,291.331l28.988,-4.686l-66.325,-182.913l-28.84,4.661l-5.18,194.47l28.989,-4.685l1.374,-33.97l28.989,-4.685l12.005,31.808Zm-40.694,-63.961l1.049,-46.365l15.453,43.698l-16.502,2.667Z" style="fill:none;stroke:#f55;stroke-width:9.5px;"/><path d="M220.689,291.331l28.988,-4.686l-66.325,-182.913l-28.84,4.661l-5.18,194.47l28.989,-4.685l1.374,-33.97l28.989,-4.685l12.005,31.808Zm-40.694,-63.961l1.049,-46.365l15.453,43.698l-16.502,2.667Z" style="fill:#1800ff;fill-rule:nonzero;"/><path d="M322.379,29.894l-28.988,4.685l-10.287,85.478l-37.582,-77.741l-28.989,4.685l30.498,188.703l28.989,-4.685l-17.297,-107.022l15.143,35.173l29.434,-4.757l3.292,-38.152l17.296,107.022l28.989,-4.686l-30.498,-188.703Z" style="fill:none;stroke:#f55;stroke-width:9.5px;"/><path d="M322.379,29.894l-28.988,4.685l-10.287,85.478l-37.582,-77.741l-28.989,4.685l30.498,188.703l28.989,-4.685l-17.297,-107.022l15.143,35.173l29.434,-4.757l3.292,-38.152l17.296,107.022l28.989,-4.686l-30.498,-188.703Z" style="fill:#1800ff;fill-rule:nonzero;"/><path d="M450.006,208.903l-46.977,7.593l-4.531,-28.036l46.976,-7.592l-7.145,-44.211l-46.976,7.592l-4.531,-28.036l46.976,-7.592l-7.145,-44.21l-73.884,11.941l30.498,188.703l73.884,-11.941l-7.145,-44.211Z" style="fill:none;stroke:#f55;stroke-width:9.5px;"/><path d="M450.006,208.903l-46.977,7.593l-4.531,-28.036l46.976,-7.592l-7.145,-44.211l-46.976,7.592l-4.531,-28.036l46.976,-7.592l-7.145,-44.21l-73.884,11.941l30.498,188.703l73.884,-11.941l-7.145,-44.211Z" style="fill:#1800ff;fill-rule:nonzero;"/><path d="M44.09,379.746c8.409,52.028 38.589,90.58 67.429,85.919c28.691,-4.637 45.19,-50.733 36.782,-102.761c-8.409,-52.028 -38.589,-90.58 -67.28,-85.943c-28.84,4.661 -45.339,50.757 -36.931,102.785Zm24.975,-4.036c-4.4,-27.227 4.217,-51.303 19.232,-53.729c15.014,-2.427 30.628,17.732 35.029,44.959c4.4,27.227 -4.069,51.279 -19.083,53.705c-15.015,2.427 -30.777,-17.708 -35.178,-44.935Z" style="fill:none;stroke:#1800ff;stroke-width:9.5px;"/><path d="M44.09,379.746c8.409,52.028 38.589,90.58 67.429,85.919c28.691,-4.637 45.19,-50.733 36.782,-102.761c-8.409,-52.028 -38.589,-90.58 -67.28,-85.943c-28.84,4.661 -45.339,50.757 -36.931,102.785Zm24.975,-4.036c-4.4,-27.227 4.217,-51.303 19.232,-53.729c15.014,-2.427 30.628,17.732 35.029,44.959c4.4,27.227 -4.069,51.279 -19.083,53.705c-15.015,2.427 -30.777,-17.708 -35.178,-44.935Z" style="fill:#f55;fill-rule:nonzero;"/><path d="M223.157,305.359l-2.786,117.736l-39.731,-110.865l-28.989,4.685l66.325,182.913l28.84,-4.661l5.329,-194.493l-28.988,4.685Z" style="fill:none;stroke:#1800ff;stroke-width:9.5px;"/><path d="M223.157,305.359l-2.786,117.736l-39.731,-110.865l-28.989,4.685l66.325,182.913l28.84,-4.661l5.329,-194.493l-28.988,4.685Z" style="fill:#f55;fill-rule:nonzero;"/><path d="M361.964,379.823l-46.977,7.592l-4.531,-28.036l46.977,-7.592l-7.146,-44.211l-46.976,7.593l-4.531,-28.036l46.976,-7.592l-7.145,-44.211l-73.884,11.941l30.498,188.703l73.884,-11.941l-7.145,-44.21Z" style="fill:none;stroke:#1800ff;stroke-width:9.5px;"/><path d="M361.964,379.823l-46.977,7.592l-4.531,-28.036l46.977,-7.592l-7.146,-44.211l-46.976,7.593l-4.531,-28.036l46.976,-7.592l-7.145,-44.211l-73.884,11.941l30.498,188.703l73.884,-11.941l-7.145,-44.21Z" style="fill:#f55;fill-rule:nonzero;"/><path d="M426.867,272.435l-55.599,8.986l30.498,188.703l27.056,-4.372l-11.589,-71.708l11,-1.778l32.551,68.32l30.178,-4.877l-34.465,-68.84c24.975,-4.037 18.929,-28.232 13.265,-63.277c-6.405,-39.627 -10.785,-56.346 -42.895,-51.157Zm19.965,56.523c1.961,12.131 2.955,16.396 -2.843,17.333l-33.597,5.43l-5.333,-32.056l33.702,-5.723c5.203,-0.841 6.285,3.963 8.071,15.016Z" style="fill:none;stroke:#1800ff;stroke-width:9.5px;"/><path d="M426.867,272.435l-55.599,8.986l30.498,188.703l27.056,-4.372l-11.589,-71.708l11,-1.778l32.551,68.32l30.178,-4.877l-34.465,-68.84c24.975,-4.037 18.929,-28.232 13.265,-63.277c-6.405,-39.627 -10.785,-56.346 -42.895,-51.157Zm19.965,56.523c1.961,12.131 2.955,16.396 -2.843,17.333l-33.597,5.43l-5.333,-32.056l33.702,-5.723c5.203,-0.841 6.285,3.963 8.071,15.016Z" style="fill:#f55;fill-rule:nonzero;"/></g></svg>