<?xml version="1.0" encoding="UTF-8" standalone="no"?><!DOCTYPE svg PUBLIC "-//W3C//DTD SVG 1.1//EN" "http://www.w3.org/Graphics/SVG/1.1/DTD/svg11.dtd"><svg width="100%" height="100%" viewBox="0 0 270 405" version="1.1" xmlns="http://www.w3.org/2000/svg" xmlns:xlink="http://www.w3.org/1999/xlink" xml:space="preserve" xmlns:serif="http://www.serif.com/" style="fill-rule:evenodd;clip-rule:evenodd;stroke-linecap:round;stroke-linejoin:round;"><g><path id="path1242" d="M15,22.5l0,37.5l7.5,0c4.155,0 7.5,-3.345 7.5,-7.5l0,-7.5c0,-2.25 -0.992,-4.252 -2.554,-5.625c1.562,-1.372 2.554,-3.372 2.554,-5.625l0,-3.75c0,-4.155 -3.345,-7.5 -7.5,-7.5l-3.75,0l-3.75,0Zm3.75,3.75l3.75,0c2.078,0 3.75,1.673 3.75,3.75l0,3.75c0,2.078 -1.672,3.75 -3.75,3.75l-3.75,0l0,-11.25Zm0,15l3.75,0c2.078,0 3.75,1.673 3.75,3.75l0,7.5c0,2.078 -1.672,3.75 -3.75,3.75l-3.75,0l0,-15Z" style="fill-rule:nonzero;"/><path id="path1244" d="M255,382.5l0,-37.5l-3.75,0l-3.75,0c-4.155,0 -7.5,3.345 -7.5,7.5l0,7.5c0,2.25 0.992,4.253 2.555,5.625c-1.563,1.373 -2.555,3.372 -2.555,5.625l0,3.75c0,4.155 3.345,7.5 7.5,7.5l7.5,0Zm-3.75,-3.75l-3.75,0c-2.077,0 -3.75,-1.672 -3.75,-3.75l0,-3.75c0,-2.077 1.673,-3.75 3.75,-3.75l3.75,0l0,11.25Zm0,-15l-3.75,0c-2.077,0 -3.75,-1.672 -3.75,-3.75l0,-7.5c0,-2.077 1.673,-3.75 3.75,-3.75l3.75,0l0,15Z" style="fill-rule:nonzero;"/><g id="g1246"><path id="path1248" d="M37.5,22.5l210,0l0,285" style="fill:none;stroke:#000;stroke-width:1.5px;"/><path id="path1250" d="M232.5,382.5l-210,0l0,-285" style="fill:none;stroke:#000;stroke-width:1.5px;"/><path id="path1252" d="M22.5,202.5l225,0" style="fill:none;stroke:#000;stroke-width:1.5px;"/></g><g id="g1254"><path id="path1256" d="M67.5,30.008c-2.999,-0.062 -5,0.999 -7,3c-2,2 -3,3.999 -3,6.999c0,3 1.139,4.779 3,7c1.782,2.125 3,3 4,5c1,2 2,6 2,7.999c0,2 0,1.799 0,3l-2,0c-2,0 -6,-2 -7,-3l-3,-3c-2,-2 -3.999,-3 -6.999,-3c-3,0 -5.001,1 -7,3c-2,2 -3,4 -3,7c0,3 1,4.999 3,7c2,2 4,3 7,3c3,0 5,-1 6.999,-3l3,-3c1,-1 5.001,-3 7,-3l2,0c-0.049,2.832 -0.259,7.777 -0.999,9.999c-1,3 -3.001,6 -5.001,8c-2,2 -8,6 -8,6l0,1c0,0 10,-2.001 12,-2.001l6,0c2,0 12,2.001 12,2.001l0,-1c0,0 -6,-4 -8,-6c-2.001,-2 -4,-5 -5.001,-8c-0.74,-2.222 -0.95,-7.167 -0.999,-9.999l2,0c2,0 6,2 7,3l3,3c2,2 3.999,3 6.999,3c3.001,0 5.001,-1 7,-3c2.001,-2.001 3,-4 3,-7c0,-3 -0.999,-5 -3,-7c-2,-2 -3.999,-3 -6.999,-3c-3.001,0 -5.001,1 -7,3l-3,3c-1,1 -5.001,3 -7,3l-2,0c0,-1.391 0,-1 0,-3c0,-2 0.999,-6 2,-7.999c1,-2.001 2,-3 4,-5c1.99,-1.99 3,-4 3,-7c0,-3 -1,-4.999 -3,-6.999c-2.001,-2.001 -4,-3 -7,-3" style="fill-rule:nonzero;"/><path id="path1258" d="M22.5,67.5c-1.125,-0.023 -1.875,0.375 -2.625,1.125c-0.75,0.75 -1.125,1.5 -1.125,2.625c0,1.125 0.427,1.793 1.125,2.625c0.668,0.797 1.125,1.125 1.5,1.875c0.375,0.75 0.75,2.25 0.75,3c0,0.75 0,0.674 0,1.125l-0.75,0c-0.75,0 -2.25,-0.75 -2.625,-1.125l-1.125,-1.125c-0.75,-0.75 -1.5,-1.125 -2.625,-1.125c-1.125,0 -1.875,0.375 -2.625,1.125c-0.75,0.75 -1.125,1.5 -1.125,2.625c0,1.125 0.375,1.875 1.125,2.625c0.75,0.75 1.5,1.125 2.625,1.125c1.125,0 1.875,-0.375 2.625,-1.125l1.125,-1.125c0.375,-0.375 1.875,-1.125 2.625,-1.125l0.75,0c-0.019,1.062 -0.098,2.917 -0.375,3.75c-0.375,1.125 -1.125,2.25 -1.875,3c-0.75,0.75 -3,2.25 -3,2.25l0,0.375c0,0 3.75,-0.75 4.5,-0.75l2.25,0c0.75,0 4.5,0.75 4.5,0.75l0,-0.375c0,0 -2.25,-1.5 -3,-2.25c-0.75,-0.75 -1.5,-1.875 -1.875,-3c-0.277,-0.833 -0.356,-2.688 -0.375,-3.75l0.75,0c0.75,0 2.25,0.75 2.625,1.125l1.125,1.125c0.75,0.75 1.5,1.125 2.625,1.125c1.125,0 1.875,-0.375 2.625,-1.125c0.75,-0.75 1.125,-1.5 1.125,-2.625c0,-1.125 -0.375,-1.875 -1.125,-2.625c-0.75,-0.75 -1.5,-1.125 -2.625,-1.125c-1.125,0 -1.875,0.375 -2.625,1.125l-1.125,1.125c-0.375,0.375 -1.875,1.125 -2.625,1.125l-0.75,0c0,-0.522 0,-0.375 0,-1.125c0,-0.75 0.375,-2.25 0.75,-3c0.375,-0.75 0.75,-1.125 1.5,-1.875c0.746,-0.746 1.125,-1.5 1.125,-2.625c0,-1.125 -0.375,-1.875 -1.125,-2.625c-0.75,-0.75 -1.5,-1.125 -2.625,-1.125" style="fill-rule:nonzero;"/><path id="path1260" d="M247.5,337.5c-1.125,0.023 -1.875,-0.375 -2.625,-1.125c-0.75,-0.75 -1.125,-1.5 -1.125,-2.625c0,-1.125 0.427,-1.792 1.125,-2.625c0.668,-0.797 1.125,-1.125 1.5,-1.875c0.375,-0.75 0.75,-2.25 0.75,-3c0,-0.75 0,-0.674 0,-1.125l-0.75,0c-0.75,0 -2.25,0.75 -2.625,1.125l-1.125,1.125c-0.75,0.75 -1.5,1.125 -2.625,1.125c-1.125,0 -1.875,-0.375 -2.625,-1.125c-0.75,-0.75 -1.125,-1.5 -1.125,-2.625c0,-1.125 0.375,-1.875 1.125,-2.625c0.75,-0.75 1.5,-1.125 2.625,-1.125c1.125,0 1.875,0.375 2.625,1.125l1.125,1.125c0.375,0.375 1.875,1.125 2.625,1.125l0.75,0c-0.019,-1.062 -0.097,-2.917 -0.375,-3.75c-0.375,-1.125 -1.125,-2.25 -1.875,-3c-0.75,-0.75 -3,-2.25 -3,-2.25l0,-0.375c0,0 3.75,0.75 4.5,0.75l2.25,0c0.75,0 4.5,-0.75 4.5,-0.75l0,0.375c0,0 -2.25,1.5 -3,2.25c-0.75,0.75 -1.5,1.875 -1.875,3c-0.278,0.833 -0.356,2.688 -0.375,3.75l0.75,0c0.75,0 2.25,-0.75 2.625,-1.125l1.125,-1.125c0.75,-0.75 1.5,-1.125 2.625,-1.125c1.125,0 1.875,0.375 2.625,1.125c0.75,0.75 1.125,1.5 1.125,2.625c0,1.125 -0.375,1.875 -1.125,2.625c-0.75,0.75 -1.5,1.125 -2.625,1.125c-1.125,0 -1.875,-0.375 -2.625,-1.125l-1.125,-1.125c-0.375,-0.375 -1.875,-1.125 -2.625,-1.125l-0.75,0c0,0.522 0,0.375 0,1.125c0,0.75 0.375,2.25 0.75,3c0.375,0.75 0.75,1.125 1.5,1.875c0.746,0.746 1.125,1.5 1.125,2.625c0,1.125 -0.375,1.875 -1.125,2.625c-0.75,0.75 -1.5,1.125 -2.625,1.125" style="fill-rule:nonzero;"/><path id="path1262" d="M202.5,375c-2.999,0.061 -5,-1 -7,-3c-2,-2 -3,-4 -3,-7c0,-3 1.139,-4.779 3,-6.999c1.781,-2.125 3,-3 4,-5c1,-2 2,-6 2,-7.999c0,-2.001 0,-1.799 0,-3l-2,0c-2,0 -6,2 -7,3l-3,3c-2,2 -4,3 -7,3c-3,0 -5,-1 -6.999,-3c-2.001,-2.001 -3,-4 -3,-7c0,-3 0.999,-5 3,-7c2,-2 3.999,-3 6.999,-3c3,0 5.001,1 7,3l3,3c1,1 5,3 7,3l2,0c-0.049,-2.832 -0.259,-7.777 -1,-10c-0.999,-3 -3,-6 -5,-7.999c-2,-2 -8,-6 -8,-6l0,-1c0,0 10,2 12,2l6,0c2,0 12,-2 12,-2l0,1c0,0 -6,4 -8,6c-2,2 -4,4.999 -5,7.999c-0.741,2.223 -0.951,7.168 -1,10l2,0c2,0 6,-2 7,-3l3,-3c2,-2 4,-3 7,-3c3,0 5,1 6.999,3c2.001,2 3,4 3,7c0,3 -0.999,4.999 -3,7c-2,2 -3.999,3 -6.999,3c-3,0 -5.001,-1 -7,-3l-3,-3c-1,-1 -5,-3 -7,-3l-2,0c0,1.391 0,0.999 0,3c0,2 1,6 2,7.999c1,2 2,3 4,5c1.99,1.989 3,3.999 3,6.999c0,3 -1,5 -3,7c-2,2 -4,3 -7,3" style="fill-rule:nonzero;"/></g><g id="g1264"><path id="path1266" d="M100.125,103.875c-6.855,3.563 -14.464,5.432 -21.316,8.906c-2.401,1.614 -3.87,3.873 -4.578,6.661c-10.618,27.561 -21.237,55.125 -31.856,82.68c11.625,0.25 22.5,0.125 33.75,0c-1.303,-1.894 -4.01,-4.458 -2.248,-6.849c2.992,-6.935 4.164,-13.014 6.673,-20.124c0.566,-1.996 1.2,-3.634 3.434,-4.318c0.69,2.234 0.966,3.093 1.177,5.436c0.745,4.71 1.952,9.405 4.575,13.473c1.516,2.85 2.948,7.618 4.39,10.507c6.429,-1.675 12.21,-2.296 19.459,-2.812c9.417,-0.259 19.545,-0.318 29.227,-0.563c9.772,0 19.545,0.938 29.317,0.938c5.188,1.312 7.375,1.125 11.438,2.437c0.894,-5.764 1.315,-10.259 3.088,-15.81c1.797,-3.197 1.178,-6.943 1.975,-10.44c2.075,1.359 2.076,4.052 2.817,6.196c0.949,2.749 2.646,5.257 2.058,8.481c-0.28,2.643 -0.66,5.236 1.136,7.471c0.603,1.962 0.277,6.071 3.13,5.994c9.075,0.119 18.158,0.239 27.233,0.358c2.589,-5.009 3.173,-10.657 3,-16.224c-0.11,-4.496 0.662,-9.148 -1.578,-13.271c-1.769,-5.054 -3.356,-10.197 -6.745,-14.446c-3.993,-5.678 -7.343,-11.719 -10.171,-18.052c-2.921,-5.763 -4.902,-11.955 -8.565,-17.333c-2.593,-3.623 -4.487,-8 -8.652,-10.092c-3.516,-2.386 -7.703,-6.679 -12.21,-6.098c-21.259,0.114 -56.572,-13.295 -79.957,-3.104l-0.001,-0.002Z" style="fill:#a00;fill-rule:nonzero;stroke:#000;stroke-width:0.75px;"/><path id="path1268" d="M102.623,109.08l2.916,7.424l3.978,11.933l3.977,13.522l2.917,14.85l1.326,9.28l0.265,7.424l0.796,7.69l0.796,8.486l0.265,7.443l13.789,0.531l25.717,0l12.618,0.594l5.679,-19.175l1.59,-10.076l0.531,-5.039l1.326,-33.937l-0.796,-12.197l0.796,-9.281l-0.266,-1.591l-11.667,-7.955l-18.825,-4.773l-22.009,-0.796l-18.296,5.569l-9.281,5.303l2.387,6.099l-0.53,-1.328Z" style="fill:#55a;fill-rule:nonzero;stroke:#000;stroke-width:0.75px;stroke-linecap:butt;stroke-linejoin:miter;"/><g id="g1270"><g id="g1272"><path id="path1274" d="M109.5,62.813c-1.787,1.82 -2.69,4.344 -3.291,6.78c-0.773,2.812 1.131,5.566 0.358,8.364c-1.254,2.196 -4.005,2.991 -5.31,5.199c-1.341,2.013 -0.788,4.593 -0.255,6.78c1.877,2.085 -1.738,1.63 -2.801,2.125c-2.317,1.079 -4.042,2.623 -5.17,4.649c-0.996,2.868 0.109,6.045 2.238,8.096c1.488,1.638 3.339,3 5.376,3.858c2.763,0.382 5.634,-0.031 7.617,-1.847c1.415,-1.091 2.817,-2.506 3.757,-4.875c0.987,1.969 3.008,0.896 3.859,-0.584c1.594,-1.615 3.427,-3.015 5.089,-4.537c1.198,-1.587 -1.884,-2.451 -2.444,-3.849c-3.481,-4.272 -4.714,-9.818 -5.875,-15.083c-0.954,-5.088 -1.235,-10.3 -0.893,-15.462c0.958,-2.257 -1.685,0 -2.257,0.384l0.002,0.002Z" style="fill:#af5500;fill-rule:nonzero;stroke:#000;stroke-width:0.75px;"/><path id="path1276" d="M147.188,37.125c-0.001,1.215 2.501,4.319 2.983,6.724c0.415,2.071 -0.383,4.237 -0.14,6.334c0.135,1.161 0.518,2.282 0.877,3.393c0.647,1.997 1.887,3.805 2.295,5.864c0.683,3.442 0.063,7.018 0.194,10.522c0.17,4.523 0.198,6.504 1.061,10.74c0.406,1.993 -0.855,3.822 -1.769,5.526c-0.357,0.664 -1.352,1.014 -1.413,1.765c-0.082,1.002 0.975,1.76 1.476,2.631c0.515,0.896 0.94,1.855 1.573,2.672c0.544,0.703 1.061,1.549 1.883,1.886c1.004,0.41 2.286,0.517 3.252,-0.032c0.366,2.127 0.594,2.046 1.032,3.015c1.52,3.355 2.31,7.742 5.5,9.585c1.842,1.064 4.268,0.225 6.381,-0.014c2.738,-0.31 5.752,-0.324 8.06,-1.828c0.765,-0.5 1.194,-1.401 1.633,-2.203c0.883,-1.615 1.603,-3.356 1.958,-5.162c0.426,-2.176 0.746,-4.508 0.167,-6.649c-0.461,-1.705 -2.167,-2.853 -2.785,-4.508c-0.718,-1.923 0.026,-4.295 -0.988,-6.081c-1.083,-1.905 -3.42,-2.748 -5.035,-4.23c-0.492,-0.451 -1.274,-0.764 -1.416,-1.416c-0.37,-1.705 1.9,-3.157 1.836,-4.9c-0.096,-2.577 -2.03,-4.749 -3.245,-7.023c-0.74,-1.382 -1.878,-2.554 -2.456,-4.011c-0.402,-1.014 -0.319,-2.17 -0.667,-3.203c-0.524,-1.56 -1.453,-2.952 -2.117,-4.457c-1.018,-2.309 -1.452,-4.915 -2.86,-7.009c-1.06,-1.575 -2.534,-2.87 -4.073,-3.981c-1.456,-1.052 -3.084,-1.899 -4.785,-2.473c-2.698,-0.911 -5.579,-1.151 -8.413,-1.477l0,0Z" style="fill:#af5500;fill-rule:nonzero;stroke:#000;stroke-width:0.75px;"/></g><path id="path1278" d="M112.125,61.125c-0.637,2.904 -0.587,5.372 -0.507,8.063c0.107,3.606 0.506,7.227 1.321,10.74c0.757,3.258 1.794,6.486 3.283,9.48c1.089,2.191 2.223,4.508 4.081,6.101c1.892,1.621 4.326,2.692 6.773,3.153c2.745,0.517 5.649,0.126 8.364,-0.529c2.563,-0.617 5,-1.783 7.254,-3.151c3.023,-1.832 5.875,-4.047 8.243,-6.67c1.828,-2.026 3.967,-4.175 4.471,-6.856c0.556,-2.95 -1.531,-5.831 -1.84,-8.818c-0.228,-2.201 0.084,-4.427 -0.005,-6.639c-0.099,-2.434 -0.039,-4.911 -0.585,-7.286c-0.558,-2.428 -2.319,-4.507 -2.716,-6.965c-0.417,-2.579 1.033,-5.295 0.4,-7.829c-0.692,-2.774 -2.239,-6.052 -4.411,-7.356c-1.925,-1.272 -4.964,-0.196 -7.391,0.228c-4.508,0.789 -8.81,2.541 -13.052,4.256c-4.757,1.923 -8.325,6.416 -10.943,10.833c-1.529,2.582 -1.357,5.872 -2.478,8.656c-0.04,0.099 -0.107,0.187 -0.151,0.285c-0.044,0.099 -0.022,0.242 -0.11,0.304l-0.001,0Z" style="fill:#faa;fill-rule:nonzero;stroke:#000;stroke-width:0.75px;"/><path id="path1280" d="M113.063,50.25c-0.205,1.515 1.353,3.349 2.209,1.204c1.507,-2.429 3.901,-5.512 6.08,-7.427c2.93,-2.94 6.151,-3.359 9.84,-4.971c7.394,-2.777 15.521,-2.36 23.159,-0.96c4.44,0.958 8.624,3.717 10.516,7.957c1.14,1.368 0.517,6.485 3.186,4.921c1.762,-0.976 2.658,-3.59 2.34,-5.481c-0.233,-3.937 -3.314,-7.007 -6.518,-8.931c-6.4,-3.674 -14.014,-4.445 -21.247,-3.727c-6.27,0.065 -12.455,1.531 -18.211,3.98c-2.914,0.937 -5.624,2.48 -7.698,4.761c-1.644,1.804 -4.307,3.141 -4.396,5.895c-0.111,0.992 0.41,1.881 0.739,2.779Z" style="fill:#55a;fill-rule:nonzero;stroke:#000;stroke-width:0.75px;"/><path id="path1282" d="M112.875,46.125c-1.475,3.388 1.87,6.158 0.75,9.644c0.088,2.687 -1.379,5.5 -3.711,6.765c-3.765,1.714 -6.527,-2.45 -8.147,-5.244c-1.822,-3.144 -0.228,-7.203 -0.564,-10.887c-0.258,-4.317 0.337,-8.325 2.812,-12.618c5.145,-3.765 9.643,-6.542 15.78,-8.137c3.842,-1.595 9.106,-3.278 13.385,-3.379c10.119,-0.861 20.407,-0.854 30.423,0.943c3.945,1.177 8.186,1.909 11.668,4.213c5.762,4.318 7.916,12.344 6.52,19.214c-1.22,3.361 -3.139,7.072 -6.43,8.774c-2.908,1.52 -7.646,2.132 -7.753,-2.521c-0.282,-3.023 4.275,-4.353 2.556,-7.866c-0.737,-4.269 -4.327,-7.172 -8.073,-8.852c-5.837,-3.232 -12.687,-3.544 -19.198,-3.17c-7.421,-0.244 -14.665,2.137 -21.354,5.147c-3.371,1.94 -6.558,4.698 -8.669,7.97l0.005,0.004Z" style="fill:#a00;fill-rule:nonzero;stroke:#000;stroke-width:0.75px;"/><g id="g1284"><path id="path1286" d="M116.25,50.438c1.299,-0.471 3.088,-1.315 4.5,-0.75c1.246,0.498 2.103,1.913 2.419,3.217c0.721,2.97 -0.956,6.038 -1.541,9.038c-0.41,2.102 -0.803,4.213 -1.378,6.276c-0.321,1.15 -1.48,2.243 -1.153,3.391c0.217,0.764 1.197,1.049 1.841,1.515c0.771,0.56 1.463,1.595 2.415,1.532c0.882,-0.058 1.224,-1.345 2.033,-1.703c0.616,-0.272 1.339,-0.154 2.002,-0.273c0.558,-0.1 1.29,0.058 1.659,-0.373c0.661,-0.771 0.672,-2.137 0.205,-3.039c-0.079,-0.153 -0.287,-0.189 -0.44,-0.269" style="fill:none;stroke:#000;stroke-width:0.75px;"/><path id="path1288" d="M130.462,54.375c-0.132,-0.663 -0.55,-1.33 -0.397,-1.989c0.14,-0.605 0.609,-1.145 1.132,-1.48c0.818,-0.524 1.881,-0.503 2.841,-0.641c1.384,-0.199 2.788,-0.301 4.185,-0.265c0.888,0.022 1.815,-0.012 2.646,0.302c0.89,0.337 1.587,1.054 2.341,1.635c0.973,0.749 1.829,1.642 2.811,2.38c0.155,0.117 0.323,0.216 0.484,0.324" style="fill:none;stroke:#000;stroke-width:0.75px;"/><path id="path1290" d="M131.52,58.433c0.388,-0.615 0.585,-1.395 1.13,-1.884c0.851,-0.762 1.983,-1.262 3.113,-1.431c1.201,-0.18 2.488,0.018 3.609,0.486c1.225,0.51 1.945,1.881 3.153,2.43c0.436,0.198 0.966,0.102 1.411,0.281c0.601,0.241 0.98,0.876 1.638,1.045" style="fill:none;stroke:#000;stroke-width:0.75px;"/></g><path id="path1292" d="M132.547,58.77c0.591,-0.776 2.005,-0.699 3.058,-0.888c0.807,-0.145 1.647,-0.277 2.464,-0.181c0.929,0.108 1.772,0.529 2.637,0.838c0.818,0.292 1.544,0.816 2.414,0.956c0.612,0.099 1.678,-0.612 1.865,-0.099c0.324,0.894 -1.899,0.906 -2.778,1.461c-0.551,0.348 -0.973,0.862 -1.554,1.167c-0.453,0.237 -0.957,0.405 -1.47,0.495c-0.806,0.143 -1.643,0.128 -2.461,0.063c-0.673,-0.053 -1.376,-0.101 -1.986,-0.367c-0.444,-0.194 -0.591,-0.41 -1.141,-0.86c-0.509,-0.415 -0.75,-0.915 -0.939,-1.45c-0.127,-0.362 -0.351,-0.818 -0.109,-1.135l0,0Z" style="fill:#fff;fill-opacity:0.980392;fill-rule:nonzero;stroke:#000;stroke-width:0.75px;"/><path id="path1294" d="M122.243,56.708c-0.607,-0.792 -0.985,-1.821 -1.794,-2.413c-0.626,-0.458 -1.427,-0.699 -2.2,-0.758c-0.79,-0.06 -1.569,0.239 -2.339,0.427c-0.684,0.167 -1.343,0.423 -2.02,0.623" style="fill:none;stroke:#000;stroke-width:0.75px;"/><path id="path1296" d="M121.973,58.163c-0.396,-1.393 -2.653,-1.272 -4.087,-1.474c-0.75,-0.107 -1.529,0.01 -2.278,0.148c-0.731,0.135 -1.613,0.129 -2.132,0.663c-0.301,0.31 -0.448,0.829 -0.349,1.251c0.099,0.422 0.558,0.667 0.872,0.967c0.525,0.501 1.01,1.107 1.682,1.38c0.762,0.309 1.641,0.303 2.458,0.206c0.632,-0.075 1.291,-0.236 1.813,-0.6c0.887,-0.62 2.317,-1.5 2.021,-2.541l0,0Z" style="fill:#fff;fill-opacity:0.980392;fill-rule:nonzero;stroke:#000;stroke-width:0.75px;"/><g id="g1298"><path id="path1300" d="M119.258,58.566c0,0 0,0.001 0,0.002c0,1.054 -0.808,1.922 -1.79,1.922c-0.982,0 -1.79,-0.868 -1.79,-1.922c0,-0.001 0,-0.002 0,-0.002c0,-0.001 0,-0.002 0,-0.003c0,-1.054 0.808,-1.922 1.79,-1.922c0.982,0 1.79,0.868 1.79,1.922c0,0.001 0,0.002 0,0.003Z" style="fill:#5a5;fill-rule:nonzero;stroke:#000;stroke-width:0.75px;"/><path id="path1302" d="M139.323,59.983c0,0.001 0,0.002 0,0.002c0,1.055 -0.898,1.923 -1.989,1.923c-1.091,0 -1.988,-0.868 -1.988,-1.923c0,0 0,-0.001 0,-0.002c0,-0.001 0,-0.001 0,-0.002c0,-1.055 0.897,-1.923 1.988,-1.923c1.091,0 1.989,0.868 1.989,1.923c0,0.001 0,0.001 0,0.002Z" style="fill:#5a5;fill-rule:nonzero;stroke:#000;stroke-width:0.75px;"/></g><path id="path1304" d="M118.131,58.23c0,0.001 0,0.001 0,0.002c0,0.327 -0.239,0.596 -0.53,0.596c-0.291,0 -0.531,-0.269 -0.531,-0.596c0,-0.001 0,-0.001 0,-0.002c0,0 0,-0.001 0,-0.001c0,-0.327 0.24,-0.597 0.531,-0.597c0.291,0 0.53,0.27 0.53,0.597c0,0 0,0.001 0,0.001Z" style="fill-rule:nonzero;stroke:#000;stroke-width:0.75px;"/><path id="path1306" d="M138.384,59.786c0,0.4 -0.299,0.73 -0.663,0.73c-0.364,0 -0.663,-0.33 -0.663,-0.73c0,-0.4 0.299,-0.729 0.663,-0.729c0.364,0 0.663,0.329 0.663,0.729Z" style="fill-rule:nonzero;stroke:#000;stroke-width:0.75px;"/><g id="g1308"><path id="path1310" d="M119.635,79.93c0.246,-0.75 1.101,-0.964 1.667,-1.408c0.417,-0.315 0.676,-0.894 1.267,-0.92c0.661,-0.085 1.462,0.014 1.856,0.619c0.399,0.368 1.187,0.314 1.193,-0.264c0.335,-0.278 1.19,-0.244 1.572,-0.222c1.061,0.223 1.552,0.692 2.496,1.223c0.391,0.198 0.986,0.354 1.013,0.877c-0.159,0.588 -1.022,0.417 -1.302,0.937c-0.619,0.734 -0.984,0.853 -1.653,1.55c-0.503,0.644 -1.091,1.343 -1.956,1.455c-1.026,0.164 -2.064,-0.076 -3.06,-0.318c-0.651,-0.18 -1.33,-0.552 -1.544,-1.241c-0.175,-0.594 -0.562,-0.279 -0.892,-0.79c-0.253,-0.435 -0.462,-0.897 -0.66,-1.357l-0.006,-0.071l0.01,-0.072l-0.001,0.002Z" style="fill:#f55;fill-rule:nonzero;stroke:#000;stroke-width:0.75px;"/><path id="path1312" d="M119.635,80.117c0.708,-0.053 1.422,-0.057 2.117,-0.215c0.574,-0.16 0.779,0.539 1.285,0.625c0.749,0.195 1.552,0.313 2.317,0.152c0.492,-0.155 0.876,-0.525 1.346,-0.733c0.474,-0.324 1.066,-0.391 1.62,-0.268c0.62,0.04 1.195,0.328 1.816,0.345c0.129,-0.008 0.254,-0.053 0.375,-0.094" style="fill:#f55;fill-rule:nonzero;stroke:#000;stroke-width:0.75px;"/></g><path id="path1314" d="M125.393,74.91c0.609,-0.028 1.648,-0.094 2.466,-0.01c0.618,0.063 1.245,0.16 1.824,0.387c0.985,0.387 1.89,0.978 2.724,1.63c0.285,0.223 0.545,0.483 0.765,0.77c0.457,0.594 0.577,1.439 1.131,1.944c0.26,0.237 0.607,0.485 0.957,0.445c0.412,-0.046 0.666,-0.496 0.982,-0.763c0.28,-0.236 0.488,-0.568 0.81,-0.742c0.341,-0.185 0.742,-0.255 1.129,-0.287c0.783,-0.066 1.609,-0.071 2.348,0.193c0.359,0.128 0.899,0.271 0.941,0.65c0.038,0.336 -0.37,0.621 -0.682,0.75c-0.685,0.286 -1.551,-0.407 -2.224,-0.093c-1.005,0.468 -1.178,1.925 -2.031,2.634c-0.413,0.343 -0.927,0.557 -1.434,0.735c-0.802,0.28 -1.651,0.322 -2.497,0.507c-0.606,0.132 -1.215,-0.349 -1.721,-0.708c-0.807,-0.573 -1.242,-1.551 -1.973,-2.217c-0.621,-0.567 -1.327,-1.035 -2.029,-1.497c-0.635,-0.417 -1.234,-0.96 -1.971,-1.146c-0.649,-0.164 -1.363,-0.124 -2.005,0.065c-0.488,0.143 -0.96,0.413 -1.309,0.783c-0.448,0.475 -0.493,1.231 -0.906,1.735c-0.288,0.352 -0.659,0.647 -1.061,0.858c-0.51,0.267 -1.081,0.516 -1.656,0.485c-0.537,-0.029 -1.005,-0.39 -1.494,-0.617c-0.351,-0.164 -0.69,-0.352 -1.031,-0.536c-0.307,-0.166 -0.614,-0.334 -0.914,-0.514c-0.38,-0.228 -0.877,-0.347 -1.119,-0.718c-0.2,-0.307 -0.321,-0.75 -0.169,-1.085c0.104,-0.225 0.384,-0.399 0.632,-0.394c0.579,0.01 0.858,0.978 1.437,0.973c0.519,-0.006 0.911,-0.525 1.272,-0.897c0.531,-0.549 0.671,-1.428 1.259,-1.916c0.5,-0.415 1.183,-0.544 1.798,-0.75c0.497,-0.169 0.999,-0.361 1.521,-0.4c0.402,-0.03 0.802,0.082 1.203,0.129c0.39,0.046 0.607,0.017 1.17,0.15c0.484,-0.106 1.327,-0.475 1.855,-0.531l0.002,-0.002Z" style="fill:#a50;fill-rule:nonzero;stroke:#000;stroke-width:0.75px;"/><g id="g1316"><path id="path1318" d="M113.018,103.238c0.71,2.042 2.207,4.355 3.545,6.086c1.817,2.831 3.765,5.605 5.759,8.302c1.454,1.445 3.124,2.697 4.24,4.443c3.229,-3.101 6.621,-6.015 10.156,-8.758c1.22,-0.741 -1.31,-1.077 -1.863,-1.627c-1.669,-1.001 -3.264,-2.216 -4.714,-3.512c-1.534,-1.79 -3.42,-3.339 -4.242,-5.616c-0.922,-2.21 -3.286,-4.297 -4.632,-6.252c-1.16,-0.601 -1.621,1.107 -2.431,1.661c-1.958,1.736 -3.942,3.446 -5.819,5.273l0.001,0Z" style="fill:#fff;fill-rule:nonzero;stroke:#000;stroke-width:0.75px;"/><path id="path1320" d="M145.5,112.5c2.735,2.809 5.657,5.477 8.939,7.626c0.788,1.208 1.54,1.307 2.247,-0.019c1.546,-1.804 3.336,-3.441 4.212,-5.701c1.133,-2.503 2.675,-4.757 4.29,-6.968c-1.193,-1.696 -2.563,-3.301 -3.015,-5.378c-0.769,-2.424 -1.979,-4.345 -2.851,-6.732c-1.262,-0.091 -2.835,0.108 -3.773,-0.991c-0.708,-0.266 -0.276,1.941 -0.543,2.634c-0.108,2.172 -0.94,4.239 -1.528,6.309c-1.689,2.895 -1.883,4.413 -4.707,6.378c-0.588,0.475 -2.623,2.449 -3.266,2.843l-0.005,-0.001Z" style="fill:#fff;fill-rule:nonzero;stroke:#000;stroke-width:0.75px;"/></g><path id="path1322" d="M122.063,97.125c1.876,3.128 4.22,5.942 6.076,9.083c0.912,1.243 2.257,2.1 3.353,3.178c0.961,0.899 1.991,1.698 3.164,2.297c1.335,0.913 2.683,2.022 4.352,2.164c1.27,0.045 2.612,0.389 3.772,-0.319c1.23,-0.768 2.906,-1.086 3.999,-2.026c1.854,-1.394 3.339,-2.442 4.796,-4.225c1.028,-1.757 1.937,-3.594 2.464,-5.57c0.9,-2.165 1.114,-5.191 1.347,-7.492c-1.55,-1.081 -1.275,-2.464 -2.417,-3.687c-0.778,-0.721 -1.108,-2.194 -1.891,-2.308c-1.211,1.332 -3.307,3.547 -4.926,4.424c-2.091,1.369 -4.051,2.986 -6.405,3.892c-1.972,0.93 -4.065,1.59 -6.175,2.113c-2.041,0.079 -4.103,0.36 -6.137,0.277c-1.811,-0.531 -3.591,-1.163 -5.368,-1.799l-0.005,-0.002Z" style="fill:#faa;fill-rule:nonzero;stroke:#000;stroke-width:0.75px;"/><path id="path1324" d="M126.938,121.688l1.687,6.937l1.125,8.625l1.688,12.188l1.125,10.687l0.187,6.938l0,7.125l0.563,10.125l0.375,6.562l0.187,6.75l25.875,0l0.75,-12.562l0.938,-12.375l-0.188,-12.375l0,-15.375l-0.75,-8.813l-1.5,-11.25l-1.5,-5.625l-1.5,1.688l-3.75,-2.625l-3.375,-2.438l-2.063,-2.062l-1.125,-1.5l-2.812,1.125l-2.813,0.562l-2.25,-0.562l-1.125,-0.375l-3.187,3.187l-3.375,2.438l-3.188,3Z" style="fill:#fff;fill-rule:nonzero;stroke:#000;stroke-width:0.75px;"/><g id="g1326"><path id="path1328" d="M140.438,114.188l2.249,12.75l1.313,10.687l1.688,12.188l1.312,12.187l0.375,9.188l0,12.75l-0.375,6.562l-0.375,7.125" style="fill:none;stroke:#000;stroke-width:0.75px;"/><path id="path1330" d="M149.063,197.625l0.937,-16.312l-0.188,-17.438l-1.5,-15.75l-1.5,-8.25l-1.125,-8.25l-0.937,-6.937l-1.5,-7.125l-0.563,-3.938" style="fill:none;stroke:#000;stroke-width:0.75px;"/></g><g id="g1332"><path id="path1334" d="M138.563,125.438c-0.001,1.645 -1.355,3 -3.001,3c-1.645,0 -3,-1.355 -3,-3c0,-1.646 1.355,-3 3,-3c1.646,0 3,1.354 3,3Z" style="fill:#fa5;fill-rule:nonzero;stroke:#000;stroke-width:0.75px;"/><path id="path1336" d="M140.25,135.938c0,1.645 -1.354,3 -3,3c-1.646,0 -3,-1.355 -3,-3c0,-1.646 1.354,-3 3,-3c1.646,0 3,1.354 3,3Z" style="fill:#fa5;fill-rule:nonzero;stroke:#000;stroke-width:0.75px;"/><path id="path1338" d="M141.938,147.375c-0.001,1.646 -1.355,3 -3.001,3c-1.645,0 -3,-1.354 -3,-3c0,-1.646 1.355,-3 3,-3c1.646,0 3,1.354 3,3Z" style="fill:#fa5;fill-rule:nonzero;stroke:#000;stroke-width:0.75px;"/><path id="path1340" d="M143.063,159.563c-0.001,1.645 -1.355,3 -3.001,3c-1.645,0 -3,-1.355 -3,-3c0,-1.646 1.355,-3 3,-3c1.646,0 3,1.354 3,3Z" style="fill:#fa5;fill-rule:nonzero;stroke:#000;stroke-width:0.75px;"/><path id="path1342" d="M158.813,160.313c-0.001,1.645 -1.355,3 -3.001,3c-1.645,0 -3,-1.355 -3,-3c0,-1.646 1.355,-3 3,-3c1.646,0 3,1.354 3,3Z" style="fill:#fa5;fill-rule:nonzero;stroke:#000;stroke-width:0.75px;"/><path id="path1344" d="M158.25,147.563c0,1.645 -1.354,3 -3,3c-1.646,0 -3,-1.355 -3,-3c0,-1.646 1.354,-3 3,-3c1.646,0 3,1.354 3,3Z" style="fill:#fa5;fill-rule:nonzero;stroke:#000;stroke-width:0.75px;"/><path id="path1346" d="M156.75,135.75c0,1.646 -1.354,3 -3,3c-1.646,0 -3,-1.354 -3,-3c0,-1.646 1.354,-3 3,-3c1.646,0 3,1.354 3,3Z" style="fill:#fa5;fill-rule:nonzero;stroke:#000;stroke-width:0.75px;"/><path id="path1348" d="M154.688,124.688c-0.001,1.645 -1.355,3 -3.001,3c-1.645,0 -3,-1.355 -3,-3c0,-1.646 1.355,-3 3,-3c1.646,0 3,1.354 3,3Z" style="fill:#fa5;fill-rule:nonzero;stroke:#000;stroke-width:0.75px;"/><path id="path1350" d="M143.063,171c-0.001,1.646 -1.355,3 -3.001,3c-1.645,0 -3,-1.354 -3,-3c0,-1.646 1.355,-3 3,-3c1.646,0 3,1.354 3,3Z" style="fill:#fa5;fill-rule:nonzero;stroke:#000;stroke-width:0.75px;"/><path id="path1352" d="M143.438,182.063c-0.001,1.645 -1.355,3 -3.001,3c-1.645,0 -3,-1.355 -3,-3c0,-1.646 1.355,-3 3,-3c1.646,0 3,1.354 3,3Z" style="fill:#fa5;fill-rule:nonzero;stroke:#000;stroke-width:0.75px;"/><path id="path1354" d="M143.25,192.188c0,1.645 -1.354,3 -3,3c-1.646,0 -3,-1.355 -3,-3c0,-1.646 1.354,-3 3,-3c1.646,0 3,1.354 3,3Z" style="fill:#fa5;fill-rule:nonzero;stroke:#000;stroke-width:0.75px;"/><path id="path1356" d="M157.688,192c-0.001,1.646 -1.355,3 -3.001,3c-1.645,0 -3,-1.354 -3,-3c0,-1.646 1.355,-3 3,-3c1.646,0 3,1.354 3,3Z" style="fill:#fa5;fill-rule:nonzero;stroke:#000;stroke-width:0.75px;"/><path id="path1358" d="M158.063,181.313c-0.001,1.645 -1.355,3 -3.001,3c-1.645,0 -3,-1.355 -3,-3c0,-1.646 1.355,-3 3,-3c1.646,0 3,1.354 3,3Z" style="fill:#fa5;fill-rule:nonzero;stroke:#000;stroke-width:0.75px;"/><path id="path1360" d="M158.625,171c0,1.646 -1.354,3 -3,3c-1.646,0 -3,-1.354 -3,-3c0,-1.646 1.354,-3 3,-3c1.646,0 3,1.354 3,3Z" style="fill:#fa5;fill-rule:nonzero;stroke:#000;stroke-width:0.75px;"/></g><path id="path1362" d="M198.878,48.09c3.27,-7.071 6.54,-14.142 9.809,-21.21c1.227,-1.717 1.657,0.502 1.572,1.643c-0.17,7.584 -0.34,15.168 -0.511,22.752c-0.942,-0.169 -2.794,-2.284 -3.041,-0.967c-1.158,5.484 -1.674,11.077 -2.527,16.612c2.173,-0.07 4.421,0.141 6.548,-0.105c1.555,-1.066 3.707,-1.524 4.401,-3.47c1.1,-1.027 0.906,-2.912 0.719,-4.379c-0.177,-1.383 -0.478,-2.56 -1.695,-3.824c-1.012,-1.17 1.357,-1.865 1.937,-2.811c2.024,-1.642 3.787,-3.523 5.229,-5.698c1.684,-2.345 3.578,-4.523 5.401,-6.758c1.561,1.973 3.126,3.941 4.313,6.143c1.757,3.259 3.007,6.802 4.084,10.331c0.807,3.646 1.686,7.281 1.755,11.034c0.403,4.431 0.247,8.892 -0.468,13.283c-0.522,3.078 -1.356,6.127 -2.231,9.121c-1.285,3.191 -2.385,6.472 -4.378,9.311c-1.891,3.406 -2.718,4.208 -4.724,7.552c-1.158,1.793 -4.495,5.388 -6.293,6.598c-0.977,0.823 -1.954,1.645 -2.93,2.467c-2.36,-5.755 -4.58,-11.572 -7.482,-17.085c-0.259,-1.083 -2.11,-2.554 -0.411,-3.16c0.951,-0.8 1.893,-1.624 2.345,-2.738c0.765,-1.884 0.984,-4.146 0.382,-6.09c-0.52,-1.68 -1.743,-3.249 -3.248,-4.159c-1.659,-1.002 -3.813,-2.056 -5.722,-1.036c-1.437,-0.078 -1.747,-1.306 -3.144,-1.279c-1.957,0.733 -2.711,0.558 -2.373,-1.032c-0.492,-0.717 -2.337,-0.454 -3.363,-0.544c-1.228,0.082 -2.076,1.515 -2.7,2.511c-0.93,0.844 -0.435,2.651 -1.467,3.191c-1.014,-0.082 -1.695,-1.954 -1.977,-3.015c-0.475,-1.241 -0.042,-2.695 0.518,-3.814c0.599,-0.999 2.452,-2.125 0.63,-2.88c-1.934,-1.703 -3.47,-3.813 -5.399,-5.536c1.773,-1.304 2.321,-2.183 3.713,-2.917c1.429,-0.757 4.622,-0.565 4.624,-1.458c-0.758,-1.222 -0.605,-2.488 -0.09,-3.772c0.346,-1.785 2.482,-2.341 3.951,-2.994c0.052,1.614 -0.323,3.328 0.758,4.699c0.694,1.246 1.813,2.498 3.357,2.44c0.493,-1.16 0.521,-2.966 0.836,-4.373c0.647,-4.016 1.295,-8.031 1.943,-12.045c-0.885,-0.177 -1.768,-0.354 -2.652,-0.531l0,-0.008Z" style="fill:#aaf;fill-rule:nonzero;stroke:#000;stroke-width:0.75px;"/></g><g id="g1364"><path id="path1366" d="M198.608,65.063l-2.387,14.053" style="fill:none;stroke:#000;stroke-width:0.75px;stroke-linecap:butt;stroke-linejoin:miter;"/><path id="path1368" d="M204.18,66.915l-2.121,14.318" style="fill:none;stroke:#000;stroke-width:0.75px;stroke-linecap:butt;stroke-linejoin:miter;"/><path id="path1370" d="M209.745,26.61l-5.302,20.415l2.652,3.182" style="fill:none;stroke:#000;stroke-width:0.75px;stroke-linecap:butt;stroke-linejoin:miter;"/><path id="path1372" d="M204.443,46.5l-2.653,1.856" style="fill:none;stroke:#000;stroke-width:0.75px;stroke-linecap:butt;stroke-linejoin:miter;"/></g><path id="path1374" d="M224.048,69.975c-0.729,-0.176 -1.275,-0.024 -1.871,0.356c-0.595,0.381 -0.947,0.816 -1.109,1.548c-0.161,0.733 0.022,1.228 0.358,1.871c0.32,0.614 0.571,0.893 0.708,1.435c0.136,0.543 0.166,1.572 0.058,2.061c-0.107,0.489 -0.097,0.439 -0.161,0.733l-0.488,-0.107c-0.489,-0.107 -1.358,-0.811 -1.549,-1.109l-0.571,-0.893c-0.381,-0.595 -0.815,-0.947 -1.548,-1.108c-0.733,-0.162 -1.274,-0.024 -1.871,0.356c-0.595,0.381 -0.947,0.815 -1.108,1.548c-0.161,0.733 -0.024,1.274 0.357,1.87c0.381,0.596 0.815,0.948 1.548,1.109c0.733,0.161 1.274,0.024 1.871,-0.356l0.893,-0.572c0.297,-0.19 1.382,-0.464 1.87,-0.356l0.489,0.107c-0.165,0.689 -0.481,1.885 -0.781,2.388c-0.405,0.679 -1.055,1.304 -1.65,1.685c-0.596,0.381 -2.276,1.035 -2.276,1.035l-0.054,0.245c0,0 2.55,0.049 3.038,0.156l1.465,0.322c0.488,0.108 2.822,1.133 2.822,1.133l0.054,-0.245c0,0 -1.25,-1.299 -1.632,-1.894c-0.38,-0.596 -0.708,-1.436 -0.791,-2.222c-0.061,-0.582 0.153,-1.801 0.293,-2.495l0.488,0.107c0.488,0.108 1.357,0.811 1.548,1.109l0.571,0.893c0.381,0.596 0.816,0.947 1.549,1.109c0.732,0.161 1.274,0.024 1.87,-0.357c0.596,-0.381 0.947,-0.815 1.109,-1.548c0.161,-0.732 0.023,-1.274 -0.357,-1.87c-0.381,-0.596 -0.816,-0.947 -1.548,-1.109c-0.733,-0.161 -1.275,-0.024 -1.871,0.357l-0.893,0.571c-0.298,0.191 -1.382,0.464 -1.871,0.356l-0.488,-0.107c0.075,-0.34 0.054,-0.244 0.161,-0.733c0.107,-0.488 0.566,-1.411 0.918,-1.845c0.352,-0.435 0.65,-0.625 1.245,-1.006c0.593,-0.379 0.947,-0.815 1.109,-1.548c0.161,-0.733 0.024,-1.274 -0.357,-1.871c-0.381,-0.595 -0.816,-0.947 -1.548,-1.108l0.001,-0.001Z" style="fill-rule:nonzero;stroke:#000;stroke-width:0.75px;stroke-linecap:butt;stroke-linejoin:miter;"/><g id="g1376"><path id="path1378" d="M29.625,202.125c2.131,-9.504 3.645,-19.124 5.295,-28.717c1.744,-8.867 4.057,-14.433 5.339,-18.158c2.675,-7.186 2.982,-7.627 6.022,-14.663c1.958,-4.83 2.829,-8.588 5.555,-13.067c1.722,-3.267 3.4,-6.828 5.788,-9.674c2.087,-2.908 4.713,-6.868 7.409,-9.252c1.975,-2.265 4.379,-4.009 6.891,-5.625c1.257,-1.058 2.395,-1.837 2.25,0.422c0.597,4.014 1.555,8.004 1.924,12.03c-0.164,5.587 -0.319,11.175 -1.116,16.716c-0.369,3.918 -0.827,7.822 -1.919,11.616c-1.767,7.794 -3.796,15.535 -6.218,23.151c-1.963,5.552 -3.576,11.243 -6.252,16.515c-2.248,5.04 -5.049,9.817 -7.477,14.766c-1.062,1.254 -1.877,2.993 -3.093,3.945c-6.802,0 -13.597,0 -20.4,0l0.002,-0.005Z" style="fill:#fa5;fill-rule:nonzero;stroke:#000;stroke-width:0.75px;"/><g id="g1380"><path id="path1382" d="M72.128,103.245c1.029,6.456 2.349,12.935 1.804,19.515c-0.487,13.334 -3.617,26.43 -7.585,39.113c-3.733,10.795 -7.114,21.87 -13.283,31.59c-1.694,2.812 -3.048,5.823 -5.067,8.427c1.333,0.423 2.569,0.601 3.133,-0.951c2.517,-3.833 4.797,-7.847 6.921,-11.913c2.348,-4.866 4.761,-9.741 6.476,-14.869c1.597,-5.793 3.918,-11.355 5.34,-17.198c2.2,-8.265 3.829,-16.682 5.342,-25.095c0.376,-5.706 1.142,-11.399 0.791,-17.125c-0.188,-3.8 -1.225,-7.515 -1.718,-11.295c0.157,-1.765 -0.839,-2.08 -1.781,-0.624c-0.124,0.142 -0.248,0.284 -0.373,0.426l-0.001,-0.001Z" style="fill:#fffe55;fill-rule:nonzero;stroke:#000;stroke-width:0.75px;"/><path id="path1384" d="M39.248,202.148c2.246,-2.943 4.236,-6.053 6.123,-9.225c2.156,-3.625 4.175,-7.344 5.922,-11.184c2.943,-6.467 5.444,-13.141 7.645,-19.897c1.04,-3.191 1.757,-6.477 2.618,-9.72c1.124,-4.229 2.51,-8.401 3.33,-12.7c0.767,-4.028 1.257,-8.118 1.472,-12.213c0.222,-4.226 0.243,-8.485 -0.19,-12.694c-0.217,-2.106 -0.799,-4.158 -1.199,-6.237l1.989,-1.59c0.721,5.351 1.477,10.723 1.416,16.116c-0.063,5.727 -0.895,11.437 -1.883,17.079c-0.793,4.515 -2.014,8.952 -3.233,13.374c-1.53,5.55 -3.194,11.07 -5.116,16.497c-1.267,3.579 -2.676,7.109 -4.221,10.575c-2.013,4.515 -4.127,9.008 -6.568,13.306c-1.693,2.984 -3.837,5.834 -5.586,8.644l-2.52,-0.131Z" style="fill:#fffe55;fill-rule:nonzero;stroke:#000;stroke-width:0.75px;"/></g><path id="path1386" d="M58.605,115.973c0.959,0.291 2.413,0.32 1.5,1.599c-0.716,2.185 -1.836,4.214 -2.352,6.472c-0.458,1.802 -0.09,3.73 -0.209,5.583c0.057,1.367 -0.487,2.703 -0.892,3.975c-1.157,1.368 -1.925,3.167 -3.67,3.881c-0.999,0.413 -1.662,1.169 -2.124,2.128c-0.742,0.992 -0.852,2.273 -1.269,3.409c1.118,1.243 0.951,-0.714 1.25,-1.515c0.377,-1.029 1.153,-1.948 1.798,-2.825c1.088,-0.922 2.321,-1.561 3.71,-1.893c0.943,-0.252 1.798,0.745 2.704,1.017c0.725,0.479 0.476,1.787 0.575,2.615c-0.101,2.083 -1.099,4.045 -0.698,6.155c-0.148,0.846 0.758,2.25 -0.358,2.584c-2.048,1.114 -4.307,2.215 -5.488,4.324c-1.082,1.17 -1.265,2.799 -1.637,4.279c0,1.272 0,2.545 0,3.817c-1.128,-1.12 -2.379,-2.285 -2.974,-3.765c-0.244,-1.133 -0.32,-2.308 -0.738,-3.396c-0.78,0.726 -1.196,1.658 -1.638,2.575c-0.615,1.276 -1.046,2.643 -1.384,4.018c-0.431,1.759 -0.496,3.589 -0.81,5.373c-0.352,2.003 -1.359,3.902 -1.206,5.979c0.164,0.727 2.219,0.312 2.831,1.121c0.701,0.929 0.939,2.469 0.351,3.473c-0.662,1.132 -2.297,1.5 -3.606,1.571c-1.148,0.06 -2.346,-0.248 -3.288,-1.041c-0.572,2.273 -1.137,4.545 -2.249,6.619c-0.678,1.636 -1.392,3.284 -2.766,4.465c-0.526,0.252 -1.981,2.19 -1.805,1.167c1.056,-6.731 1.989,-13.497 3.526,-20.134c3.723,-11.34 7.725,-22.598 11.923,-33.773c2.593,-5.108 5.067,-10.289 7.734,-15.352c1.086,-1.508 2.173,-3.008 3.259,-4.515l0,0.01Z" style="fill:#ff5;fill-rule:nonzero;stroke:#000;stroke-width:0.75px;"/><g id="g1388"><path id="path1390" d="M40.703,155.348l5.17,1.723" style="fill:none;stroke:#000;stroke-width:0.75px;"/><path id="path1392" d="M39.375,158.265l5.17,1.591" style="fill:none;stroke:#000;stroke-width:0.75px;"/><path id="path1394" d="M38.58,161.183l5.569,1.59" style="fill:none;stroke:#000;stroke-width:0.75px;"/><path id="path1396" d="M37.65,163.965l6.099,1.856" style="fill:none;stroke:#000;stroke-width:0.75px;"/></g><path id="path1398" d="M67.35,165.293c0,0 2.34,0.388 3.447,0.795c1.355,0.498 2.57,1.314 3.845,1.989c1.066,0.565 2.132,1.131 3.183,1.724c0.758,0.428 1.519,0.856 2.257,1.326c0.589,0.376 1.723,1.193 1.723,1.193c0,0 -1.191,2.246 -1.59,3.447c-0.401,1.201 -0.437,2.499 -0.796,3.713c-0.282,0.952 -0.734,1.846 -1.061,2.784c-0.289,0.831 -0.795,2.519 -0.795,2.519c0,0 -0.803,-1.568 -1.459,-2.121c-0.484,-0.408 -1.141,-0.548 -1.723,-0.796c-1.005,-0.427 -2.036,-0.788 -3.05,-1.193c-1.196,-0.478 -2.413,-0.911 -3.58,-1.459c-0.68,-0.319 -1.277,-0.819 -1.989,-1.06c-0.509,-0.174 -1.055,-0.221 -1.59,-0.266c-0.397,-0.033 -1.194,0 -1.194,0c0,0 1.657,-4.13 2.387,-6.231c0.729,-2.099 1.989,-6.364 1.989,-6.364l-0.004,0Z" style="fill:#fa5;fill-rule:nonzero;stroke:#000;stroke-width:0.75px;"/><path id="path1400" d="M78.885,180.278c-0.218,-0.528 -0.43,-1.098 -0.834,-1.508c-1.395,-1.402 -3.412,-2.007 -5.176,-2.903c-1.543,-0.785 -3.03,-1.814 -4.722,-2.163c-1.041,-0.215 -2.145,-0.156 -3.189,0.075l0.795,-2.784c1.608,-0.046 3.264,-0.122 4.818,0.298c1.382,0.374 2.562,1.277 3.835,1.932c1.274,0.657 2.678,1.118 3.805,2.004c0.709,0.557 1.236,1.316 1.791,2.027c0.025,0.033 0.07,0.103 0.07,0.103l-1.193,2.919Z" style="fill:#ff5;fill-rule:nonzero;stroke:#000;stroke-width:0.75px;"/></g><g id="g1402"><path id="path1404" d="M84.06,170.73c0.742,-1.442 1.539,-2.86 2.115,-4.374c0.58,-1.524 1.112,-3.091 1.336,-4.706c0.929,-6.698 0.427,-13.538 -0.024,-20.288c-0.191,-2.847 -0.591,-5.683 -1.131,-8.484c-0.453,-2.352 -1.113,-4.656 -1.766,-6.964" style="fill:none;stroke:#000;stroke-width:0.75px;stroke-linecap:butt;stroke-linejoin:miter;"/><path id="path1406" d="M87.24,163.838c1.207,-1.835 2.626,-3.545 3.656,-5.486c1.216,-2.29 2.074,-4.758 2.942,-7.201c0.62,-1.743 1.404,-3.472 1.615,-5.31c0.072,-0.628 -0.084,-1.26 -0.126,-1.89" style="fill:none;stroke:#000;stroke-width:0.75px;stroke-linecap:butt;stroke-linejoin:miter;"/></g><g id="g1408"><path id="path1410" d="M191.183,178.553c1.531,-0.213 3.125,-0.489 4.463,-1.265c2.961,-1.718 5.108,-4.589 7.334,-7.191c0.643,-0.75 1.15,-1.611 1.727,-2.416c-0.93,-0.666 -2.095,-1.08 -2.835,-1.958c-0.657,-0.78 -1.046,-1.785 -1.287,-2.776c-0.881,-3.628 -0.258,-7.463 -0.478,-11.19c-0.109,-1.841 -0.079,-3.703 -0.416,-5.516c-0.215,-1.151 -0.492,-2.316 -1.015,-3.364c-0.965,-1.929 -2.317,-3.681 -3.834,-5.214c-0.718,-0.726 -1.568,-1.321 -2.447,-1.839c-2.366,-1.393 -5.153,-1.97 -7.522,-3.357c-0.851,-0.499 -1.467,-1.379 -2.374,-1.767c-0.626,-0.269 -1.419,-0.675 -2.015,-0.345c-0.539,0.298 -0.729,1.094 -0.701,1.71c0.033,0.742 0.528,1.426 1.025,1.98c0.734,0.819 1.81,1.252 2.747,1.827c1.796,1.102 3.758,1.926 5.507,3.106c1.062,0.718 2.016,1.584 3,2.403c0.644,0.535 1.267,2.182 1.904,1.639c0.37,-0.315 -0.428,-0.889 -0.762,-1.241c-1.331,-1.409 -3.106,-2.331 -4.776,-3.315c-1.445,-0.853 -2.928,-1.683 -4.514,-2.232c-1.587,-0.548 -3.308,-1.473 -4.929,-1.035c-0.69,0.187 -1.309,0.782 -1.59,1.439c-0.311,0.725 -0.19,1.619 0.064,2.366c0.411,1.212 1.343,2.207 2.25,3.11c0.903,0.9 2.756,1.809 3.107,2.23c0.17,0.205 -0.51,0.154 -0.769,0.215c-0.792,0.184 -1.714,0.01 -2.398,0.451c-0.656,0.423 -1.072,1.187 -1.346,1.918c-0.273,0.73 -0.462,1.576 -0.245,2.325c0.457,1.57 1.584,2.611 3.05,3.845c0.295,0.248 -0.773,0.026 -1.154,0.089c-0.598,0.097 -1.314,0.036 -1.763,0.441c-0.577,0.521 -0.691,1.421 -0.796,2.19c-0.114,0.843 -0.087,1.742 0.198,2.543c0.404,1.131 1.426,1.901 2.056,2.957c0.261,0.437 -1.025,-0.577 -1.182,0.968c-0.098,0.973 0.332,1.953 0.75,2.835c0.992,2.08 2.6,3.815 4.076,5.583c0.795,0.951 1.482,2.088 2.565,2.694c0.793,0.444 1.904,0.075 2.667,0.569c0.605,0.393 0.903,1.132 1.275,1.75c0.543,0.901 0.831,1.927 1.382,2.837l0,0.001Z" style="fill:#faa;fill-rule:nonzero;stroke:#000;stroke-width:0.75px;"/><g id="g1412"><path id="path1414" d="M184.553,136.41c0,0 2.207,1.139 3.314,1.701c0.747,0.38 2.245,1.129 2.245,1.129l4.782,-26.318l-5.966,-2.784l-4.375,26.272Z" style="fill:#fa5;fill-rule:nonzero;stroke:#000;stroke-width:0.75px;"/><path id="path1416" d="M195.96,80.97c-0.95,1.169 -2.039,2.3 -2.545,3.749c-0.325,1.421 -0.493,2.923 -0.137,4.356c0.368,0.657 1.191,0.774 1.864,0.891c1.275,0.135 2.587,-0.168 3.838,0.21c0.548,0.123 1.206,0.179 1.554,0.667c0.37,-0.211 0.294,-0.864 0.458,-1.256c0.278,-1.31 0.546,-1.187 0.855,-2.49c0.127,-1.062 0.286,-3.03 0.273,-4.088c-0.027,-0.51 -0.558,-1.755 -1.15,-1.986c-0.514,-0.265 -1.074,-0.432 -1.572,-0.73c-0.566,-0.245 -1.205,0.074 -1.791,0.138c-0.564,0.128 -1.12,0.302 -1.647,0.54l0,-0.001Z" style="fill:#fa5;fill-rule:nonzero;stroke:#000;stroke-width:0.75px;"/></g></g><g id="g1418"><path id="path1420" d="M193.305,85.74c0.913,-0.75 1.912,-1.408 2.755,-2.238c0.746,-0.733 1.66,-1.42 2.018,-2.402c0.076,-0.208 0,-0.442 0,-0.663" style="fill:none;stroke:#000;stroke-width:0.75px;stroke-linecap:butt;stroke-linejoin:miter;"/><path id="path1422" d="M193.965,89.325c1.088,-1.058 1.21,-1.582 1.961,-2.224c0.765,-0.654 1.556,-0.923 2.547,-1.62c0.808,-0.57 1.324,-1.518 1.686,-2.438c0.256,-0.649 0.202,-1.734 0.303,-2.071" style="fill:none;stroke:#000;stroke-width:0.75px;stroke-linecap:butt;stroke-linejoin:miter;"/><path id="path1424" d="M197.003,90c0.831,-0.781 0.849,-1.303 1.901,-1.742c0.706,-0.295 1.473,-0.689 1.998,-1.281c0.664,-0.75 1.133,-2.249 1.304,-2.71" style="fill:none;stroke:#000;stroke-width:0.72px;stroke-linecap:butt;stroke-linejoin:miter;"/></g><path id="path1426" d="M193.568,89.588c-1.341,-0.758 -2.9,1.261 -3.958,2.379c-1.071,1.131 -1.535,2.714 -2.185,4.128c-0.891,1.938 -1.828,3.885 -2.343,5.955c-0.509,2.043 -0.51,4.179 -0.713,6.273c-0.139,1.443 -1.561,3.541 -0.348,4.334c0.528,0.345 1.052,-1.035 1.667,-0.896c0.789,0.18 0.627,2.022 1.433,1.959c0.897,-0.071 0.336,-2.457 1.234,-2.4c0.943,0.059 0.067,2.387 0.97,2.663c0.575,0.175 0.86,-1.121 1.458,-1.061c0.716,0.072 0.742,1.654 1.459,1.591c0.574,-0.05 0.352,-1.474 0.928,-1.459c0.811,0.022 0.395,1.975 1.193,2.121c0.679,0.125 0.901,-1.343 1.591,-1.326c0.781,0.02 0.946,1.668 1.724,1.591c1.196,-0.118 0.943,-3.159 2.12,-2.917c0.977,0.201 -0.326,2.794 0.663,2.917c1.484,0.184 1.471,-2.613 2.033,-3.998c0.599,-1.48 1.191,-2.995 1.415,-4.576c0.425,-3.015 0.321,-6.132 -0.174,-9.138c-0.258,-1.561 -0.642,-3.156 -1.438,-4.522c-0.629,-1.083 -1.448,-2.162 -2.547,-2.762c-1.45,-0.791 -3.236,-0.712 -4.882,-0.855c-0.432,-0.037 -0.994,0.307 -1.3,0l-0.001,-0.001Z" style="fill:#fa5;fill-rule:nonzero;stroke:#000;stroke-width:0.75px;"/><g id="g1428"><path id="path1430" d="M185.813,111.66c0.151,-1.607 0.182,-3.23 0.424,-4.827c0.286,-1.887 0.652,-3.772 1.212,-5.596c0.695,-2.265 1.716,-4.414 2.649,-6.591c0.331,-0.771 0.567,-1.602 1.045,-2.292c0.733,-1.059 1.603,-3.37 2.727,-2.739c0.247,0.138 -0.114,0.557 -0.203,0.826c-0.574,1.74 -1.5,3.346 -2.125,5.069c-0.698,1.933 -1.377,3.886 -1.799,5.898c-0.452,2.158 -0.483,4.384 -0.774,6.57c-0.154,1.158 -0.444,1.956 -0.515,3.466" style="fill:none;stroke:#000;stroke-width:0.75px;stroke-linecap:butt;stroke-linejoin:miter;"/><path id="path1432" d="M190.965,112.598c0.284,-2.923 0.511,-5.853 0.901,-8.764c0.225,-1.687 0.501,-3.368 0.832,-5.038c0.472,-2.384 0.799,-4.825 1.642,-7.105c0.281,-0.76 0.374,-1.852 1.125,-2.156c0.328,-0.133 1.01,-0.018 1.009,0.336c-0.004,1.635 -0.919,2.97 -1.107,4.508c-0.23,1.869 0.135,3.772 -0.018,5.649c-0.205,2.515 -0.76,4.991 -1.201,7.476c-0.313,1.767 -0.912,3.398 -1.027,5.288" style="fill:none;stroke:#000;stroke-width:0.75px;stroke-linecap:butt;stroke-linejoin:miter;"/><path id="path1434" d="M196.125,113.813c0.305,-1.635 0.699,-3.255 0.938,-4.901c0.42,-2.904 0.891,-5.826 0.869,-8.761c-0.015,-2.001 -0.629,-3.965 -0.682,-5.966c-0.026,-0.988 0.071,-1.978 0.179,-2.96c0.045,-0.411 -0.14,-0.984 0.196,-1.225c0.272,-0.194 0.738,-0.049 0.989,0.171c1.054,0.926 0.744,2.711 1.244,4.022c0.276,0.723 0.764,1.365 0.968,2.113c0.388,1.422 0.387,2.926 0.455,4.399c0.059,1.259 0.085,2.527 -0.037,3.78c-0.164,1.69 -0.646,3.334 -0.932,5.008c-0.16,0.938 -0.337,1.87 -0.438,2.819" style="fill:none;stroke:#000;stroke-width:0.75px;stroke-linecap:butt;stroke-linejoin:miter;"/></g><g id="g1436"><path id="path1438" d="M94.125,200.25c-0.627,-0.031 -0.125,0.563 -0.188,1.875c29.875,-0.062 59.753,0.062 89.626,0c-0.063,-1.375 -0.126,-0.875 -0.188,-2.25c-3.319,-0.817 -6.703,-1.258 -10.091,-1.619c-3.149,-0.335 -6.322,-0.419 -9.488,-0.503c-4.808,-0.129 -9.619,0.02 -14.428,-0.004c-3.626,-0.018 -7.253,-0.012 -10.877,-0.107c-3.327,-0.087 -6.647,-0.375 -9.975,-0.422c-5.587,-0.079 -11.185,-0.136 -16.759,0.239c-3.894,0.261 -7.78,0.724 -11.623,1.399c-2.025,0.356 -5.067,1.283 -6.007,1.394l-0.002,-0.002Z" style="fill:#fa5;fill-rule:nonzero;stroke:#000;stroke-width:0.75px;stroke-linecap:butt;stroke-linejoin:miter;"/><path id="path1440" d="M184.793,172.215c-0.001,0 -1.804,-1.677 -2.565,-2.638c-1.151,-1.455 -2.995,-4.692 -2.995,-4.692l-6.845,37.24l6.904,0l5.5,-29.91Z" style="fill:#fa5;fill-rule:nonzero;stroke:#000;stroke-width:0.75px;"/></g><g id="g1442"><g id="g1444"><path id="path1446" d="M204.75,167.625c2.498,1.62 4.199,3.846 6.625,5.295c2.299,1.373 5.025,1.89 7.39,3.144c1.308,0.693 2.754,1.295 3.73,2.406c0.419,0.476 0.534,1.156 0.818,1.717" style="fill:none;stroke:#000;stroke-width:0.75px;"/><path id="path1448" d="M214.5,174.375c1.822,-0.573 3.669,-1.181 5.572,-1.378c1.212,-0.126 2.458,-0.1 3.656,0.13c1.029,0.198 2.392,0.011 2.959,1.061" style="fill:none;stroke:#000;stroke-width:0.75px;"/></g><path id="path1450" d="M193.5,187.035c0,0 3.339,-0.443 4.975,-1.25c1.678,-0.827 3.402,-1.836 4.885,-2.976c1.797,-1.382 3.536,-3.524 5.058,-5.204c0.821,-0.907 1.49,-1.942 2.172,-2.958c0.36,-0.536 1.01,-1.653 1.01,-1.653c0,0 -4.812,-4.655 -7.225,-5.833c-1.183,0.55 -1.809,2.791 -2.812,4.114c-1.363,1.799 -2.894,3.467 -4.629,4.909c-0.734,0.61 -1.776,1.007 -2.68,1.311c-1.202,0.405 -2.421,0.677 -3.302,0.895c0.106,1.166 0.395,1.623 0.681,2.405c0.48,1.309 0.93,1.891 1.263,3.245c0.195,0.789 0.604,2.996 0.604,2.996l0,-0.001Z" style="fill:#fa5;fill-rule:nonzero;stroke:#000;stroke-width:0.75px;"/><g id="g1452"><path id="path1454" d="M193.313,185.25c1.307,-0.292 2.63,-0.546 3.89,-1.002c0.91,-0.329 1.798,-0.737 2.623,-1.244c1.093,-0.672 2.087,-1.5 3.043,-2.36c1.114,-0.998 2.152,-2.085 3.124,-3.222c1.515,-1.768 2.928,-3.621 4.195,-5.577" style="fill:none;stroke:#000;stroke-width:0.75px;"/><path id="path1456" d="M151.148,37.748c1.148,2.898 2.406,5.86 2.786,8.967c0.253,2.078 -0.75,4.212 -0.365,6.268c0.335,1.771 1.81,3.167 2.258,4.912c0.882,3.424 0.698,7.044 0.776,10.582c0.101,4.593 2.246,7.182 2.178,10.88c-0.044,2.396 -0.476,4.915 -1.672,6.992c-0.973,1.691 -2.644,2.918 -4.24,4.037" style="fill:none;stroke:#000;stroke-width:0.75px;"/><path id="path1458" d="M154.62,38.183c1.148,2.898 2.407,5.86 2.786,8.967c0.254,2.078 -0.75,4.212 -0.364,6.268c0.334,1.771 1.81,3.167 2.257,4.912c0.882,3.424 0.698,7.044 0.776,10.582c0.102,4.593 2.22,7.182 2.178,10.88c-0.032,2.836 -0.532,5.797 -1.859,8.302c-1.223,2.312 -3.772,4.606 -5.365,5.724" style="fill:none;stroke:#000;stroke-width:0.75px;"/><path id="path1460" d="M158.745,40.245c1.148,2.899 2.407,5.861 2.786,8.968c0.254,2.077 -0.55,4.183 -0.364,6.268c0.286,3.213 1.845,6.212 2.257,9.411c0.248,1.916 0.049,2.258 0.127,5.794c0.101,4.593 1.978,6.174 2.165,9.376c0.143,2.452 0.057,5.026 -0.811,7.324c-1.14,3.022 -3.593,6.817 -5.564,7.932" style="fill:none;stroke:#000;stroke-width:0.75px;"/><path id="path1462" d="M167.745,54.308c-0.727,3.836 1.003,6.249 1.661,9.342c0.435,2.043 1.231,4.011 1.508,6.081c0.345,2.552 -0.257,5.189 0.196,7.724c0.517,2.887 3.176,4.81 2.839,8.332c-0.175,1.828 -1.529,2.391 -2.417,3.492c-1.508,1.872 -3.568,2.642 -3.681,6.367c-0.101,3.326 1.246,4.523 3.138,4.798c1.4,0.202 2.728,-0.45 3.23,-2.753c0.674,-3.093 -3.224,-4.396 -3.375,-0.938" style="fill:none;stroke:#000;stroke-width:0.75px;"/><path id="path1464" d="M173.85,75.413c0.423,3.97 2.928,4.87 3.41,7.197c0.396,2.206 0.304,4.497 0.998,6.447c0.627,1.646 2.16,2.944 2.47,4.681c0.42,2.357 -0.183,4.851 -0.951,7.118c-0.489,1.442 -1.219,2.862 -2.273,3.963c-1.264,1.321 -3,2.272 -4.632,2.937" style="fill:none;stroke:#000;stroke-width:0.75px;"/><path id="path1466" d="M111.503,64.665c-0.952,1.163 -2.121,2.25 -2.587,3.673c-0.458,1.399 -0.253,2.953 -0.086,4.415c0.419,3.658 1.633,7.186 2.703,10.708c1.184,3.894 3.758,7.475 4.106,11.499c0.255,2.958 -1.381,2.41 -2.037,3.633c-0.588,1.098 -0.366,1.965 -1.701,3.327" style="fill:none;stroke:#000;stroke-width:0.75px;"/><path id="path1468" d="M106.598,77.79c1.006,2.768 2.309,6.172 3.363,9.293c0.785,2.322 2.17,4.564 2.205,7.015c0.032,2.18 -0.704,4.399 -1.782,6.294c-1.033,1.814 -2.538,3.443 -4.311,4.545c-0.928,0.577 -2.039,1.028 -3.13,0.971c-1.203,-0.063 -2.397,-0.652 -3.321,-1.425c-1.379,-1.156 -2.865,-2.715 -2.964,-4.515c-0.101,-1.824 1.024,-3.788 2.486,-4.881c1.051,-0.788 2.841,-1.539 3.874,-0.726c1.189,0.936 1.439,3.618 0.235,4.537c-0.695,0.53 -1.803,-1.366 -2.489,-0.824c-0.862,0.68 -0.407,2.464 0.28,3.282c0.562,0.669 1.407,1.293 2.282,1.291c1.204,-0.001 2.296,-0.93 3.139,-1.789c1.471,-1.499 2.693,-3.218 3.015,-5.531c-0.331,-3.237 -1.857,-5.604 -3.679,-8.125" style="fill:none;stroke:#000;stroke-width:0.75px;"/><path id="path1470" d="M101.558,91.178c2.056,-0.283 1.862,-2.419 2.93,-3.503c1.265,-1.282 2.755,-2.339 4.096,-3.524" style="fill:none;stroke:#000;stroke-width:0.75px;"/><path id="path1472" d="M101.025,87.998c1.225,-1.09 1.259,-1.759 2.017,-2.525c0.789,-0.796 1.857,-1.289 2.605,-2.124c0.768,-0.86 1.507,-2.52 1.874,-2.908" style="fill:none;stroke:#000;stroke-width:0.75px;"/><path id="path1474" d="M103.545,90.518c1.016,0.75 2.171,2.079 2.652,3.447c0.733,2.085 0.068,4.552 0.133,6.629" style="fill:none;stroke:#000;stroke-width:0.75px;"/><path id="path1476" d="M162.945,43.305c1.148,2.899 1.012,5.849 1.474,8.78c0.338,2.149 0.055,4.311 0.76,6.456c2.022,6.141 1.374,9.255 1.508,12.037c0.131,2.693 1.094,3.314 1.968,6.74c0.78,3.059 1.357,3.997 1.191,6.045c-0.137,1.698 -1.103,3.228 -1.781,4.79c-1.023,2.352 -2.958,4.329 -3.441,6.88c-0.664,3.516 0.705,6.326 2.952,8.063c1.591,1.229 4.191,1.525 5.997,0.641c2.395,-1.171 3.891,-4.477 4.211,-6.795c0.448,-3.241 -4.109,-8.178 -7.864,-5.998" style="fill:none;stroke:#000;stroke-width:0.75px;"/></g></g></g><g id="g1478"><path id="path1480" d="M166.59,301.095c6.855,-3.562 14.464,-5.431 21.316,-8.905c2.401,-1.614 3.871,-3.873 4.578,-6.662c10.618,-27.561 21.238,-55.125 31.856,-82.68c-11.625,-0.25 -22.5,-0.125 -33.75,0c1.304,1.895 4.01,4.458 2.248,6.849c-2.992,6.935 -4.163,13.014 -6.673,20.124c-0.565,1.997 -1.2,3.635 -3.434,4.318c-0.69,-2.234 -0.965,-3.093 -1.177,-5.436c-0.745,-4.71 -1.951,-9.404 -4.575,-13.472c-1.516,-2.85 -2.947,-7.619 -4.39,-10.508c-6.429,1.675 -12.21,2.297 -19.459,2.813c-9.417,0.258 -19.545,0.317 -29.227,0.562c-9.772,0 -19.545,-0.937 -29.317,-0.937c-5.188,-1.313 -7.375,-1.125 -11.438,-2.438c-0.894,5.765 -1.315,10.259 -3.088,15.81c-1.797,3.197 -1.178,6.944 -1.974,10.44c-2.076,-1.359 -2.077,-4.051 -2.817,-6.196c-0.95,-2.749 -2.647,-5.257 -2.058,-8.481c0.279,-2.643 0.659,-5.236 -1.137,-7.47c-0.603,-1.963 -0.276,-6.072 -3.13,-5.994c-9.075,-0.12 -18.158,-0.24 -27.233,-0.359c-2.589,5.009 -3.173,10.657 -3,16.224c0.111,4.496 -0.662,9.148 1.578,13.271c1.769,5.054 3.356,10.197 6.745,14.446c3.993,5.678 7.343,11.72 10.172,18.053c2.92,5.763 4.901,11.955 8.565,17.332c2.592,3.623 4.486,8 8.651,10.092c3.516,2.386 7.703,6.679 12.21,6.098c21.259,-0.114 56.572,13.296 79.957,3.105l0.001,0.001Z" style="fill:#a00;fill-rule:nonzero;stroke:#000;stroke-width:0.75px;"/><path id="path1482" d="M164.093,295.89l-2.917,-7.424l-3.977,-11.933l-3.978,-13.522l-2.916,-14.849l-1.326,-9.281l-0.266,-7.424l-0.796,-7.69l-0.796,-8.485l-0.265,-7.444l-13.789,-0.53l-25.717,0l-12.618,-0.595l-5.679,19.175l-1.59,10.076l-0.531,5.039l-1.326,33.937l0.796,12.198l-0.796,9.28l0.266,1.591l11.667,7.955l18.825,4.773l22.009,0.796l18.296,-5.569l9.28,-5.302l-2.386,-6.099l0.529,1.327Z" style="fill:#55a;fill-rule:nonzero;stroke:#000;stroke-width:0.75px;stroke-linecap:butt;stroke-linejoin:miter;"/><g id="g1484"><g id="g1486"><path id="path1488" d="M157.215,342.158c1.787,-1.821 2.69,-4.345 3.291,-6.78c0.773,-2.813 -1.131,-5.567 -0.358,-8.364c1.254,-2.197 4.005,-2.992 5.31,-5.199c1.341,-2.013 0.788,-4.593 0.255,-6.78c-1.877,-2.085 1.738,-1.631 2.801,-2.126c2.317,-1.079 4.042,-2.623 5.17,-4.649c0.996,-2.867 -0.109,-6.045 -2.238,-8.096c-1.488,-1.638 -3.339,-3 -5.376,-3.858c-2.763,-0.382 -5.634,0.031 -7.617,1.847c-1.415,1.091 -2.817,2.506 -3.757,4.875c-0.987,-1.969 -3.008,-0.896 -3.859,0.584c-1.594,1.615 -3.427,3.015 -5.089,4.538c-1.198,1.587 1.884,2.45 2.444,3.849c3.481,4.271 4.714,9.817 5.875,15.082c0.954,5.088 1.235,10.3 0.893,15.462c-0.958,2.258 1.685,0 2.257,-0.384l-0.002,-0.001Z" style="fill:#af5500;fill-rule:nonzero;stroke:#000;stroke-width:0.75px;"/><path id="path1490" d="M119.528,367.845c0,-1.215 -2.502,-4.319 -2.984,-6.724c-0.415,-2.07 0.383,-4.236 0.14,-6.334c-0.135,-1.16 -0.518,-2.282 -0.877,-3.392c-0.647,-1.998 -1.887,-3.806 -2.295,-5.865c-0.683,-3.441 -0.063,-7.017 -0.194,-10.522c-0.17,-4.523 -0.198,-6.503 -1.061,-10.739c-0.406,-1.994 0.855,-3.822 1.769,-5.526c0.357,-0.665 1.352,-1.015 1.413,-1.766c0.082,-1.002 -0.975,-1.759 -1.476,-2.631c-0.515,-0.896 -0.94,-1.855 -1.573,-2.672c-0.544,-0.703 -1.061,-1.549 -1.883,-1.886c-1.004,-0.41 -2.286,-0.516 -3.252,0.033c-0.366,-2.127 -0.594,-2.047 -1.032,-3.015c-1.52,-3.356 -2.311,-7.743 -5.5,-9.585c-1.842,-1.065 -4.268,-0.226 -6.381,0.013c-2.738,0.31 -5.752,0.324 -8.06,1.829c-0.766,0.499 -1.194,1.4 -1.633,2.202c-0.883,1.615 -1.603,3.357 -1.958,5.163c-0.427,2.175 -0.746,4.507 -0.167,6.648c0.461,1.705 2.167,2.853 2.785,4.508c0.718,1.924 -0.027,4.295 0.988,6.081c1.082,1.906 3.419,2.749 5.035,4.231c0.492,0.45 1.274,0.763 1.416,1.416c0.37,1.704 -1.901,3.156 -1.836,4.899c0.096,2.577 2.029,4.749 3.245,7.023c0.74,1.383 1.878,2.554 2.456,4.011c0.402,1.014 0.319,2.17 0.666,3.204c0.525,1.559 1.454,2.952 2.118,4.456c1.018,2.309 1.452,4.916 2.86,7.01c1.06,1.575 2.534,2.869 4.073,3.981c1.456,1.051 3.084,1.899 4.785,2.472c2.697,0.911 5.579,1.152 8.413,1.477l0,0Z" style="fill:#af5500;fill-rule:nonzero;stroke:#000;stroke-width:0.75px;"/></g><path id="path1492" d="M154.59,343.845c0.638,-2.904 0.587,-5.371 0.507,-8.063c-0.107,-3.605 -0.506,-7.226 -1.321,-10.739c-0.757,-3.258 -1.794,-6.486 -3.283,-9.481c-1.089,-2.191 -2.223,-4.508 -4.081,-6.101c-1.892,-1.62 -4.326,-2.691 -6.773,-3.153c-2.745,-0.517 -5.649,-0.126 -8.364,0.529c-2.563,0.617 -5,1.784 -7.254,3.151c-3.023,1.832 -5.875,4.047 -8.243,6.67c-1.828,2.026 -3.967,4.175 -4.471,6.856c-0.556,2.951 1.531,5.831 1.84,8.818c0.228,2.201 -0.084,4.427 0.005,6.639c0.099,2.434 0.039,4.912 0.585,7.286c0.558,2.429 2.319,4.508 2.716,6.965c0.417,2.58 -1.032,5.295 -0.4,7.829c0.692,2.774 2.239,6.052 4.411,7.357c1.925,1.271 4.964,0.195 7.392,-0.229c4.507,-0.788 8.809,-2.54 13.051,-4.256c4.757,-1.923 8.325,-6.416 10.943,-10.833c1.529,-2.582 1.357,-5.871 2.478,-8.655c0.04,-0.1 0.107,-0.188 0.151,-0.286c0.043,-0.098 0.022,-0.242 0.11,-0.304l0.001,0Z" style="fill:#faa;fill-rule:nonzero;stroke:#000;stroke-width:0.75px;"/><path id="path1494" d="M153.653,354.72c0.204,-1.515 -1.353,-3.349 -2.21,-1.204c-1.507,2.43 -3.901,5.512 -6.08,7.428c-2.93,2.939 -6.151,3.358 -9.84,4.97c-7.394,2.777 -15.521,2.36 -23.159,0.961c-4.44,-0.959 -8.624,-3.717 -10.515,-7.958c-1.141,-1.368 -0.518,-6.485 -3.187,-4.921c-1.762,0.976 -2.658,3.59 -2.34,5.481c0.233,3.937 3.314,7.008 6.518,8.931c6.4,3.674 14.015,4.446 21.247,3.727c6.27,-0.065 12.455,-1.531 18.211,-3.98c2.914,-0.937 5.625,-2.48 7.698,-4.76c1.644,-1.805 4.307,-3.142 4.396,-5.895c0.111,-0.993 -0.41,-1.882 -0.739,-2.78Z" style="fill:#55a;fill-rule:nonzero;stroke:#000;stroke-width:0.75px;"/><path id="path1496" d="M153.84,358.845c1.475,-3.388 -1.87,-6.158 -0.75,-9.643c-0.088,-2.688 1.379,-5.501 3.711,-6.765c3.765,-1.715 6.527,2.449 8.147,5.244c1.822,3.144 0.228,7.202 0.564,10.887c0.258,4.317 -0.337,8.325 -2.812,12.618c-5.145,3.765 -9.643,6.541 -15.78,8.136c-3.842,1.595 -9.106,3.279 -13.385,3.379c-10.119,0.861 -20.407,0.854 -30.423,-0.943c-3.945,-1.176 -8.186,-1.909 -11.668,-4.213c-5.762,-4.318 -7.916,-12.344 -6.52,-19.214c1.22,-3.36 3.139,-7.072 6.43,-8.774c2.908,-1.52 7.646,-2.132 7.753,2.522c0.282,3.022 -4.275,4.352 -2.556,7.866c0.737,4.268 4.327,7.171 8.073,8.851c5.837,3.232 12.687,3.545 19.198,3.17c7.421,0.244 14.665,-2.137 21.354,-5.147c3.371,-1.939 6.558,-4.698 8.669,-7.97l-0.005,-0.004Z" style="fill:#a00;fill-rule:nonzero;stroke:#000;stroke-width:0.75px;"/><g id="g1498"><path id="path1500" d="M150.465,354.533c-1.299,0.47 -3.088,1.314 -4.5,0.75c-1.246,-0.498 -2.103,-1.914 -2.419,-3.218c-0.72,-2.97 0.956,-6.037 1.541,-9.037c0.41,-2.103 0.803,-4.214 1.378,-6.277c0.321,-1.15 1.48,-2.243 1.153,-3.391c-0.217,-0.764 -1.197,-1.049 -1.84,-1.515c-0.772,-0.559 -1.464,-1.595 -2.415,-1.532c-0.882,0.058 -1.225,1.345 -2.034,1.703c-0.615,0.272 -1.338,0.154 -2.001,0.273c-0.558,0.101 -1.291,-0.058 -1.66,0.373c-0.661,0.771 -0.671,2.137 -0.205,3.04c0.079,0.152 0.287,0.188 0.44,0.268" style="fill:none;stroke:#000;stroke-width:0.75px;"/><path id="path1502" d="M136.253,350.595c0.132,0.663 0.55,1.331 0.397,1.989c-0.14,0.605 -0.609,1.145 -1.132,1.481c-0.818,0.523 -1.881,0.502 -2.841,0.64c-1.384,0.199 -2.788,0.301 -4.185,0.266c-0.888,-0.023 -1.815,0.012 -2.646,-0.303c-0.89,-0.336 -1.587,-1.054 -2.341,-1.635c-0.973,-0.749 -1.829,-1.641 -2.81,-2.38c-0.156,-0.117 -0.324,-0.215 -0.485,-0.323" style="fill:none;stroke:#000;stroke-width:0.75px;"/><path id="path1504" d="M135.195,346.538c-0.388,0.614 -0.585,1.394 -1.13,1.883c-0.851,0.762 -1.983,1.262 -3.113,1.432c-1.2,0.18 -2.488,-0.019 -3.609,-0.486c-1.225,-0.511 -1.944,-1.882 -3.153,-2.431c-0.436,-0.198 -0.966,-0.101 -1.411,-0.281c-0.601,-0.241 -0.98,-0.876 -1.638,-1.045" style="fill:none;stroke:#000;stroke-width:0.75px;"/></g><path id="path1506" d="M134.168,346.2c-0.591,0.776 -2.005,0.699 -3.058,0.888c-0.807,0.145 -1.647,0.277 -2.464,0.182c-0.928,-0.108 -1.771,-0.53 -2.637,-0.839c-0.818,-0.292 -1.544,-0.816 -2.414,-0.956c-0.612,-0.098 -1.678,0.612 -1.865,0.099c-0.324,-0.893 1.899,-0.905 2.778,-1.46c0.551,-0.348 0.973,-0.863 1.554,-1.167c0.453,-0.238 0.957,-0.405 1.47,-0.496c0.806,-0.143 1.643,-0.128 2.461,-0.063c0.673,0.053 1.376,0.101 1.986,0.367c0.444,0.194 0.591,0.411 1.141,0.86c0.509,0.415 0.75,0.915 0.939,1.45c0.127,0.362 0.351,0.818 0.109,1.135l0,0Z" style="fill:#fff;fill-opacity:0.980392;fill-rule:nonzero;stroke:#000;stroke-width:0.75px;"/><path id="path1508" d="M144.473,348.263c0.606,0.792 0.984,1.821 1.793,2.412c0.626,0.459 1.427,0.699 2.2,0.758c0.79,0.06 1.569,-0.239 2.339,-0.427c0.685,-0.167 1.343,-0.423 2.02,-0.622" style="fill:none;stroke:#000;stroke-width:0.75px;"/><path id="path1510" d="M144.743,346.808c0.395,1.392 2.652,1.271 4.086,1.473c0.75,0.107 1.53,-0.009 2.278,-0.147c0.731,-0.136 1.613,-0.129 2.132,-0.663c0.301,-0.311 0.448,-0.83 0.349,-1.251c-0.099,-0.423 -0.558,-0.668 -0.872,-0.968c-0.524,-0.501 -1.01,-1.107 -1.682,-1.38c-0.762,-0.309 -1.641,-0.303 -2.458,-0.206c-0.632,0.075 -1.291,0.236 -1.813,0.601c-0.887,0.619 -2.317,1.499 -2.021,2.54l0.001,0.001Z" style="fill:#fff;fill-opacity:0.980392;fill-rule:nonzero;stroke:#000;stroke-width:0.75px;"/><g id="g1512"><path id="path1514" d="M147.457,346.404c0,0 0,-0.001 0,-0.002c0,-1.054 0.808,-1.922 1.79,-1.922c0.982,0 1.79,0.868 1.79,1.922c0,0.001 0,0.002 0,0.002c0,0.001 0,0.002 0,0.003c0,1.054 -0.808,1.922 -1.79,1.922c-0.982,0 -1.79,-0.868 -1.79,-1.922c0,-0.001 0,-0.002 0,-0.003Z" style="fill:#5a5;fill-rule:nonzero;stroke:#000;stroke-width:0.75px;"/><path id="path1516" d="M127.392,344.987c0,-0.001 0,-0.002 0,-0.002c0,-1.055 0.898,-1.923 1.989,-1.923c1.091,0 1.988,0.868 1.988,1.923c0,0 0,0.001 0,0.002c0,0.001 0,0.001 0,0.002c0,1.055 -0.897,1.923 -1.988,1.923c-1.091,0 -1.989,-0.868 -1.989,-1.923c0,-0.001 0,-0.001 0,-0.002Z" style="fill:#5a5;fill-rule:nonzero;stroke:#000;stroke-width:0.75px;"/></g><path id="path1518" d="M148.584,346.74c0,-0.001 0,-0.001 0,-0.002c0,-0.327 0.239,-0.596 0.53,-0.596c0.291,0 0.531,0.269 0.531,0.596c0,0.001 0,0.001 0,0.002c0,0 0,0.001 0,0.001c0,0.327 -0.24,0.597 -0.531,0.597c-0.291,0 -0.53,-0.27 -0.53,-0.597c0,0 0,-0.001 0,-0.001Z" style="fill-rule:nonzero;stroke:#000;stroke-width:0.75px;"/><path id="path1520" d="M128.331,345.184c0,-0.4 0.299,-0.73 0.663,-0.73c0.364,0 0.663,0.33 0.663,0.73c0,0.4 -0.299,0.729 -0.663,0.729c-0.364,0 -0.663,-0.329 -0.663,-0.729Z" style="fill-rule:nonzero;stroke:#000;stroke-width:0.75px;"/><g id="g1522"><path id="path1524" d="M147.08,325.04c-0.246,0.75 -1.101,0.964 -1.667,1.408c-0.417,0.315 -0.677,0.894 -1.267,0.92c-0.661,0.085 -1.462,-0.014 -1.856,-0.619c-0.399,-0.368 -1.187,-0.314 -1.193,0.264c-0.335,0.278 -1.19,0.244 -1.572,0.223c-1.061,-0.224 -1.552,-0.693 -2.496,-1.224c-0.391,-0.198 -0.987,-0.354 -1.013,-0.877c0.159,-0.588 1.022,-0.416 1.302,-0.937c0.619,-0.733 0.983,-0.853 1.653,-1.549c0.503,-0.645 1.091,-1.344 1.956,-1.456c1.026,-0.164 2.064,0.076 3.06,0.319c0.651,0.18 1.33,0.551 1.544,1.24c0.175,0.594 0.561,0.279 0.892,0.79c0.253,0.435 0.462,0.898 0.66,1.357l0.006,0.072l-0.01,0.071l0.001,-0.002Z" style="fill:#f55;fill-rule:nonzero;stroke:#000;stroke-width:0.75px;"/><path id="path1526" d="M147.08,324.853c-0.708,0.053 -1.423,0.057 -2.117,0.215c-0.575,0.16 -0.779,-0.539 -1.286,-0.625c-0.748,-0.195 -1.551,-0.313 -2.316,-0.152c-0.492,0.155 -0.876,0.525 -1.346,0.733c-0.475,0.324 -1.066,0.391 -1.62,0.268c-0.62,-0.04 -1.195,-0.328 -1.816,-0.345c-0.129,0.009 -0.254,0.053 -0.375,0.094" style="fill:#f55;fill-rule:nonzero;stroke:#000;stroke-width:0.75px;"/></g><path id="path1528" d="M141.323,330.06c-0.61,0.028 -1.649,0.095 -2.466,0.011c-0.619,-0.064 -1.246,-0.161 -1.825,-0.388c-0.985,-0.387 -1.89,-0.978 -2.723,-1.63c-0.285,-0.223 -0.546,-0.483 -0.766,-0.769c-0.457,-0.595 -0.577,-1.44 -1.13,-1.944c-0.261,-0.238 -0.608,-0.486 -0.958,-0.446c-0.412,0.047 -0.665,0.496 -0.982,0.763c-0.28,0.236 -0.487,0.568 -0.81,0.742c-0.341,0.185 -0.742,0.255 -1.129,0.288c-0.783,0.065 -1.608,0.07 -2.348,-0.194c-0.359,-0.128 -0.898,-0.271 -0.941,-0.65c-0.038,-0.336 0.37,-0.62 0.682,-0.75c0.685,-0.286 1.551,0.407 2.224,0.094c1.005,-0.468 1.178,-1.926 2.031,-2.634c0.413,-0.344 0.927,-0.558 1.434,-0.735c0.802,-0.281 1.652,-0.323 2.497,-0.507c0.606,-0.132 1.215,0.348 1.721,0.708c0.807,0.572 1.242,1.55 1.973,2.217c0.621,0.566 1.327,1.035 2.029,1.496c0.635,0.417 1.234,0.961 1.971,1.147c0.649,0.163 1.364,0.123 2.006,-0.066c0.487,-0.143 0.959,-0.413 1.308,-0.783c0.448,-0.474 0.493,-1.23 0.906,-1.735c0.288,-0.352 0.659,-0.647 1.062,-0.857c0.509,-0.267 1.08,-0.516 1.655,-0.486c0.538,0.029 1.006,0.39 1.494,0.618c0.351,0.163 0.691,0.351 1.031,0.535c0.308,0.167 0.614,0.334 0.914,0.514c0.38,0.229 0.877,0.347 1.119,0.718c0.2,0.307 0.321,0.75 0.169,1.085c-0.104,0.226 -0.384,0.399 -0.632,0.394c-0.578,-0.01 -0.858,-0.978 -1.436,-0.972c-0.519,0.005 -0.912,0.524 -1.272,0.897c-0.531,0.549 -0.672,1.427 -1.26,1.915c-0.5,0.415 -1.183,0.544 -1.798,0.75c-0.497,0.169 -0.998,0.362 -1.521,0.401c-0.402,0.03 -0.802,-0.083 -1.203,-0.13c-0.39,-0.046 -0.607,-0.017 -1.17,-0.15c-0.484,0.106 -1.327,0.475 -1.855,0.532l-0.002,0.001Z" style="fill:#a50;fill-rule:nonzero;stroke:#000;stroke-width:0.75px;"/><g id="g1530"><path id="path1532" d="M153.698,301.733c-0.711,-2.043 -2.208,-4.356 -3.546,-6.087c-1.817,-2.831 -3.765,-5.604 -5.759,-8.302c-1.454,-1.445 -3.125,-2.696 -4.24,-4.442c-3.228,3.1 -6.621,6.015 -10.155,8.757c-1.221,0.741 1.309,1.077 1.862,1.627c1.669,1.001 3.264,2.216 4.714,3.512c1.534,1.791 3.42,3.339 4.242,5.616c0.922,2.211 3.286,4.297 4.632,6.252c1.161,0.601 1.621,-1.107 2.431,-1.661c1.958,-1.736 3.942,-3.445 5.819,-5.272l0,0Z" style="fill:#fff;fill-rule:nonzero;stroke:#000;stroke-width:0.75px;"/><path id="path1534" d="M121.215,292.47c-2.735,-2.809 -5.657,-5.477 -8.938,-7.626c-0.789,-1.207 -1.541,-1.307 -2.248,0.02c-1.546,1.803 -3.335,3.44 -4.212,5.7c-1.133,2.503 -2.675,4.758 -4.289,6.969c1.192,1.695 2.562,3.3 3.015,5.377c0.768,2.424 1.978,4.346 2.85,6.732c1.263,0.091 2.835,-0.108 3.773,0.992c0.708,0.265 0.277,-1.942 0.543,-2.634c0.108,-2.173 0.94,-4.24 1.528,-6.31c1.689,-2.894 1.883,-4.412 4.707,-6.377c0.588,-0.476 2.623,-2.45 3.267,-2.844l0.004,0.001Z" style="fill:#fff;fill-rule:nonzero;stroke:#000;stroke-width:0.75px;"/></g><path id="path1536" d="M144.653,307.845c-1.877,-3.128 -4.221,-5.941 -6.077,-9.082c-0.912,-1.244 -2.257,-2.101 -3.353,-3.179c-0.961,-0.899 -1.991,-1.698 -3.164,-2.297c-1.335,-0.913 -2.682,-2.022 -4.352,-2.164c-1.27,-0.045 -2.612,-0.388 -3.772,0.319c-1.23,0.768 -2.906,1.086 -3.999,2.026c-1.854,1.394 -3.339,2.442 -4.796,4.225c-1.028,1.757 -1.937,3.594 -2.464,5.57c-0.9,2.166 -1.113,5.191 -1.347,7.492c1.55,1.082 1.275,2.464 2.417,3.687c0.778,0.721 1.108,2.194 1.891,2.309c1.211,-1.333 3.307,-3.548 4.926,-4.425c2.091,-1.369 4.051,-2.985 6.405,-3.892c1.972,-0.93 4.065,-1.589 6.175,-2.113c2.041,-0.079 4.103,-0.36 6.137,-0.277c1.812,0.531 3.591,1.164 5.368,1.799l0.005,0.002Z" style="fill:#faa;fill-rule:nonzero;stroke:#000;stroke-width:0.75px;"/><path id="path1538" d="M139.778,283.283l-1.688,-6.938l-1.125,-8.625l-1.687,-12.187l-1.125,-10.688l-0.188,-6.937l0,-7.125l-0.562,-10.125l-0.375,-6.563l-0.188,-6.75l-25.875,0l-0.75,12.563l-0.937,12.375l0.187,12.375l0,15.375l0.75,8.812l1.5,11.25l1.5,5.625l1.5,-1.687l3.75,2.625l3.375,2.437l2.063,2.063l1.125,1.5l2.812,-1.125l2.813,-0.563l2.25,0.563l1.125,0.375l3.187,-3.188l3.375,-2.437l3.188,-3Z" style="fill:#fff;fill-rule:nonzero;stroke:#000;stroke-width:0.75px;"/><g id="g1540"><path id="path1542" d="M126.278,290.783l-2.25,-12.75l-1.313,-10.688l-1.687,-12.187l-1.313,-12.188l-0.375,-9.187l0,-12.75l0.375,-6.563l0.375,-7.125" style="fill:none;stroke:#000;stroke-width:0.75px;"/><path id="path1544" d="M117.653,207.345l-0.938,16.313l0.188,17.437l1.5,15.75l1.5,8.25l1.125,8.25l0.937,6.938l1.5,7.125l0.563,3.937" style="fill:none;stroke:#000;stroke-width:0.75px;"/></g><g id="g1546"><path id="path1548" d="M128.153,279.533c0,-1.646 1.354,-3 3,-3c1.645,0 3,1.354 3,3c0,1.645 -1.355,3 -3,3c-1.646,0 -3,-1.355 -3,-3Z" style="fill:#fa5;fill-rule:nonzero;stroke:#000;stroke-width:0.75px;"/><path id="path1550" d="M126.465,269.033c0,-1.646 1.354,-3 3,-3c1.646,0 3,1.354 3,3c0,1.645 -1.354,3 -3,3c-1.646,0 -3,-1.355 -3,-3Z" style="fill:#fa5;fill-rule:nonzero;stroke:#000;stroke-width:0.75px;"/><path id="path1552" d="M124.778,257.595c0,-1.646 1.354,-3 3,-3c1.645,0 3,1.354 3,3c0,1.646 -1.355,3 -3,3c-1.646,0 -3,-1.354 -3,-3Z" style="fill:#fa5;fill-rule:nonzero;stroke:#000;stroke-width:0.75px;"/><path id="path1554" d="M123.653,245.408c0,-1.646 1.354,-3 3,-3c1.645,0 3,1.354 3,3c0,1.645 -1.355,3 -3,3c-1.646,0 -3,-1.355 -3,-3Z" style="fill:#fa5;fill-rule:nonzero;stroke:#000;stroke-width:0.75px;"/><path id="path1556" d="M107.903,244.658c-0.001,-1.646 1.354,-3 2.999,-3c1.646,0 3.001,1.354 3.001,3c-0.001,1.645 -1.355,3 -3.001,3c-1.645,0 -2.999,-1.355 -2.999,-3Z" style="fill:#fa5;fill-rule:nonzero;stroke:#000;stroke-width:0.75px;"/><path id="path1558" d="M108.465,257.408c0,-1.646 1.354,-3 3,-3c1.646,0 3,1.354 3,3c0,1.645 -1.354,3 -3,3c-1.646,0 -3,-1.355 -3,-3Z" style="fill:#fa5;fill-rule:nonzero;stroke:#000;stroke-width:0.75px;"/><path id="path1560" d="M109.965,269.22c0,-1.646 1.354,-3 3,-3c1.646,0 3,1.354 3,3c0,1.646 -1.354,3 -3,3c-1.646,0 -3,-1.354 -3,-3Z" style="fill:#fa5;fill-rule:nonzero;stroke:#000;stroke-width:0.75px;"/><path id="path1562" d="M112.028,280.283c-0.001,-1.646 1.354,-3 2.999,-3c1.646,0 3.001,1.354 3.001,3c-0.001,1.645 -1.355,3 -3.001,3c-1.645,0 -2.999,-1.355 -2.999,-3Z" style="fill:#fa5;fill-rule:nonzero;stroke:#000;stroke-width:0.75px;"/><path id="path1564" d="M123.653,233.97c0,-1.646 1.354,-3 3,-3c1.645,0 3,1.354 3,3c0,1.646 -1.355,3 -3,3c-1.646,0 -3,-1.354 -3,-3Z" style="fill:#fa5;fill-rule:nonzero;stroke:#000;stroke-width:0.75px;"/><path id="path1566" d="M123.278,222.908c0,-1.646 1.354,-3 3,-3c1.645,0 3,1.354 3,3c0,1.645 -1.355,3 -3,3c-1.646,0 -3,-1.355 -3,-3Z" style="fill:#fa5;fill-rule:nonzero;stroke:#000;stroke-width:0.75px;"/><path id="path1568" d="M123.465,212.783c0,-1.646 1.354,-3 3,-3c1.646,0 3,1.354 3,3c0,1.645 -1.354,3 -3,3c-1.646,0 -3,-1.355 -3,-3Z" style="fill:#fa5;fill-rule:nonzero;stroke:#000;stroke-width:0.75px;"/><path id="path1570" d="M109.028,212.97c-0.001,-1.646 1.354,-3 2.999,-3c1.646,0 3.001,1.354 3.001,3c-0.001,1.646 -1.355,3 -3.001,3c-1.645,0 -2.999,-1.354 -2.999,-3Z" style="fill:#fa5;fill-rule:nonzero;stroke:#000;stroke-width:0.75px;"/><path id="path1572" d="M108.653,223.658c-0.001,-1.646 1.354,-3 2.999,-3c1.646,0 3.001,1.354 3.001,3c-0.001,1.645 -1.355,3 -3.001,3c-1.645,0 -2.999,-1.355 -2.999,-3Z" style="fill:#fa5;fill-rule:nonzero;stroke:#000;stroke-width:0.75px;"/><path id="path1574" d="M108.09,233.97c0,-1.646 1.354,-3 3,-3c1.646,0 3,1.354 3,3c0,1.646 -1.354,3 -3,3c-1.646,0 -3,-1.354 -3,-3Z" style="fill:#fa5;fill-rule:nonzero;stroke:#000;stroke-width:0.75px;"/></g><path id="path1576" d="M67.838,356.88c-3.271,7.071 -6.541,14.142 -9.81,21.21c-1.227,1.717 -1.657,-0.502 -1.572,-1.643c0.17,-7.584 0.34,-15.168 0.511,-22.752c0.942,0.169 2.794,2.284 3.041,0.967c1.158,-5.484 1.674,-11.076 2.527,-16.612c-2.173,0.07 -4.421,-0.141 -6.548,0.105c-1.555,1.066 -3.707,1.524 -4.401,3.47c-1.1,1.027 -0.906,2.912 -0.719,4.379c0.177,1.383 0.478,2.56 1.695,3.825c1.012,1.17 -1.357,1.864 -1.937,2.81c-2.024,1.642 -3.787,3.523 -5.229,5.698c-1.684,2.345 -3.578,4.523 -5.401,6.758c-1.561,-1.973 -3.126,-3.941 -4.313,-6.143c-1.757,-3.259 -3.007,-6.802 -4.084,-10.331c-0.807,-3.646 -1.686,-7.281 -1.755,-11.034c-0.403,-4.431 -0.247,-8.892 0.468,-13.283c0.522,-3.078 1.356,-6.127 2.231,-9.121c1.285,-3.19 2.385,-6.472 4.378,-9.31c1.891,-3.407 2.718,-4.209 4.724,-7.553c1.158,-1.792 4.495,-5.388 6.293,-6.598c0.977,-0.822 1.954,-1.644 2.93,-2.467c2.36,5.755 4.58,11.572 7.482,17.086c0.259,1.083 2.11,2.553 0.411,3.159c-0.951,0.801 -1.893,1.624 -2.345,2.738c-0.765,1.885 -0.984,4.147 -0.382,6.09c0.52,1.681 1.743,3.25 3.248,4.159c1.659,1.002 3.813,2.056 5.722,1.036c1.437,0.078 1.747,1.307 3.144,1.28c1.957,-0.734 2.711,-0.558 2.373,1.031c0.492,0.717 2.337,0.454 3.363,0.544c1.228,-0.081 2.076,-1.515 2.7,-2.511c0.93,-0.844 0.435,-2.651 1.467,-3.191c1.014,0.083 1.695,1.955 1.977,3.015c0.475,1.241 0.042,2.695 -0.518,3.815c-0.599,0.999 -2.452,2.124 -0.63,2.879c1.934,1.703 3.47,3.813 5.399,5.536c-1.773,1.304 -2.321,2.183 -3.713,2.917c-1.429,0.758 -4.622,0.565 -4.624,1.458c0.758,1.223 0.605,2.488 0.09,3.773c-0.346,1.784 -2.482,2.34 -3.951,2.993c-0.052,-1.614 0.323,-3.328 -0.758,-4.699c-0.694,-1.246 -1.813,-2.497 -3.357,-2.44c-0.493,1.16 -0.521,2.967 -0.836,4.374c-0.647,4.015 -1.295,8.03 -1.943,12.045c0.885,0.177 1.768,0.353 2.652,0.53l-0.001,0.008Z" style="fill:#aaf;fill-rule:nonzero;stroke:#000;stroke-width:0.75px;"/></g><g id="g1578"><path id="path1580" d="M68.108,339.908l2.386,-14.054" style="fill:none;stroke:#000;stroke-width:0.75px;stroke-linecap:butt;stroke-linejoin:miter;"/><path id="path1582" d="M62.535,338.055l2.121,-14.317" style="fill:none;stroke:#000;stroke-width:0.75px;stroke-linecap:butt;stroke-linejoin:miter;"/><path id="path1584" d="M56.97,378.36l5.303,-20.415l-2.653,-3.182" style="fill:none;stroke:#000;stroke-width:0.75px;stroke-linecap:butt;stroke-linejoin:miter;"/><path id="path1586" d="M62.273,358.47l2.652,-1.856" style="fill:none;stroke:#000;stroke-width:0.75px;stroke-linecap:butt;stroke-linejoin:miter;"/></g><path id="path1588" d="M42.668,334.995c0.729,0.176 1.274,0.024 1.87,-0.356c0.596,-0.381 0.947,-0.815 1.109,-1.548c0.161,-0.733 -0.022,-1.228 -0.357,-1.871c-0.321,-0.614 -0.572,-0.893 -0.708,-1.435c-0.137,-0.542 -0.167,-1.572 -0.059,-2.061c0.107,-0.488 0.097,-0.439 0.161,-0.733l0.489,0.107c0.488,0.108 1.357,0.811 1.548,1.109l0.571,0.893c0.381,0.596 0.815,0.947 1.548,1.109c0.733,0.161 1.274,0.024 1.871,-0.357c0.595,-0.381 0.947,-0.815 1.108,-1.548c0.161,-0.732 0.024,-1.274 -0.357,-1.87c-0.381,-0.596 -0.815,-0.947 -1.548,-1.109c-0.733,-0.161 -1.274,-0.024 -1.87,0.357l-0.894,0.571c-0.297,0.191 -1.382,0.464 -1.87,0.356l-0.488,-0.107c0.164,-0.688 0.48,-1.885 0.78,-2.388c0.405,-0.679 1.055,-1.303 1.65,-1.684c0.596,-0.381 2.276,-1.036 2.276,-1.036l0.054,-0.245c0,0 -2.549,-0.048 -3.038,-0.156l-1.464,-0.322c-0.489,-0.107 -2.823,-1.133 -2.823,-1.133l-0.054,0.245c0,0 1.251,1.299 1.632,1.894c0.381,0.596 0.708,1.436 0.791,2.222c0.061,0.582 -0.153,1.801 -0.293,2.495l-0.488,-0.107c-0.488,-0.107 -1.357,-0.811 -1.548,-1.109l-0.571,-0.893c-0.381,-0.595 -0.816,-0.947 -1.548,-1.108c-0.733,-0.162 -1.275,-0.024 -1.871,0.356c-0.595,0.381 -0.947,0.815 -1.108,1.548c-0.162,0.733 -0.024,1.274 0.357,1.87c0.38,0.596 0.815,0.948 1.548,1.109c0.732,0.161 1.274,0.024 1.87,-0.356l0.893,-0.572c0.298,-0.19 1.383,-0.464 1.871,-0.356l0.488,0.107c-0.075,0.34 -0.054,0.245 -0.161,0.733c-0.107,0.488 -0.566,1.411 -0.918,1.846c-0.352,0.434 -0.65,0.624 -1.245,1.005c-0.593,0.379 -0.947,0.816 -1.109,1.548c-0.161,0.733 -0.024,1.275 0.357,1.871c0.381,0.595 0.816,0.947 1.548,1.108l0,0.001Z" style="fill-rule:nonzero;stroke:#000;stroke-width:0.75px;stroke-linecap:butt;stroke-linejoin:miter;"/><g id="g1590"><path id="path1592" d="M237.09,202.845c-2.131,9.504 -3.645,19.124 -5.295,28.718c-1.744,8.866 -4.057,14.432 -5.338,18.157c-2.677,7.186 -2.982,7.627 -6.023,14.663c-1.958,4.83 -2.829,8.588 -5.555,13.067c-1.722,3.268 -3.4,6.829 -5.788,9.674c-2.087,2.908 -4.713,6.869 -7.409,9.252c-1.975,2.265 -4.379,4.01 -6.891,5.625c-1.256,1.058 -2.395,1.837 -2.25,-0.422c-0.597,-4.014 -1.555,-8.004 -1.924,-12.03c0.164,-5.587 0.319,-11.174 1.116,-16.715c0.369,-3.919 0.826,-7.823 1.919,-11.616c1.766,-7.795 3.796,-15.536 6.218,-23.151c1.963,-5.553 3.576,-11.244 6.252,-16.515c2.248,-5.04 5.049,-9.818 7.477,-14.767c1.062,-1.254 1.877,-2.993 3.092,-3.944c6.803,0 13.598,0 20.4,0l-0.001,0.004Z" style="fill:#fa5;fill-rule:nonzero;stroke:#000;stroke-width:0.75px;"/><g id="g1594"><path id="path1596" d="M194.588,301.725c-1.03,-6.456 -2.349,-12.934 -1.805,-19.515c0.488,-13.334 3.617,-26.43 7.585,-39.112c3.733,-10.796 7.114,-21.87 13.283,-31.59c1.694,-2.813 3.048,-5.823 5.067,-8.428c-1.333,-0.423 -2.569,-0.601 -3.133,0.952c-2.517,3.832 -4.797,7.846 -6.921,11.912c-2.348,4.867 -4.761,9.742 -6.476,14.869c-1.597,5.793 -3.918,11.355 -5.34,17.198c-2.2,8.265 -3.829,16.682 -5.342,25.096c-0.376,5.705 -1.142,11.398 -0.791,17.124c0.188,3.801 1.225,7.515 1.718,11.295c-0.157,1.765 0.839,2.08 1.781,0.624c0.125,-0.141 0.248,-0.284 0.373,-0.426l0.001,0.001Z" style="fill:#fffe55;fill-rule:nonzero;stroke:#000;stroke-width:0.75px;"/><path id="path1598" d="M227.468,202.823c-2.247,2.942 -4.237,6.052 -6.123,9.224c-2.157,3.625 -4.176,7.344 -5.923,11.184c-2.942,6.467 -5.444,13.141 -7.645,19.897c-1.039,3.191 -1.756,6.477 -2.618,9.72c-1.124,4.23 -2.51,8.401 -3.329,12.7c-0.768,4.028 -1.257,8.118 -1.473,12.213c-0.222,4.226 -0.243,8.485 0.19,12.695c0.217,2.106 0.8,4.157 1.199,6.236l-1.989,1.591c-0.721,-5.352 -1.476,-10.724 -1.416,-16.116c0.063,-5.727 0.895,-11.438 1.884,-17.079c0.792,-4.515 2.013,-8.953 3.232,-13.374c1.53,-5.551 3.194,-11.07 5.116,-16.498c1.267,-3.578 2.676,-7.109 4.221,-10.575c2.013,-4.515 4.127,-9.008 6.568,-13.306c1.693,-2.983 3.837,-5.834 5.586,-8.644l2.519,0.132Z" style="fill:#fffe55;fill-rule:nonzero;stroke:#000;stroke-width:0.75px;"/></g><path id="path1600" d="M208.11,288.998c-0.958,-0.291 -2.413,-0.321 -1.5,-1.599c0.716,-2.186 1.836,-4.215 2.352,-6.473c0.458,-1.802 0.09,-3.73 0.209,-5.583c-0.057,-1.366 0.487,-2.703 0.892,-3.975c1.157,-1.368 1.925,-3.166 3.67,-3.881c1,-0.413 1.662,-1.169 2.125,-2.128c0.741,-0.991 0.852,-2.272 1.268,-3.409c-1.118,-1.243 -0.951,0.714 -1.25,1.515c-0.377,1.029 -1.152,1.948 -1.798,2.825c-1.088,0.922 -2.321,1.561 -3.71,1.894c-0.943,0.252 -1.798,-0.746 -2.704,-1.017c-0.725,-0.48 -0.476,-1.788 -0.575,-2.616c0.101,-2.083 1.099,-4.045 0.698,-6.155c0.148,-0.846 -0.758,-2.25 0.358,-2.584c2.048,-1.113 4.307,-2.214 5.488,-4.323c1.082,-1.171 1.265,-2.8 1.637,-4.28c0,-1.272 0,-2.545 0,-3.817c1.128,1.12 2.379,2.285 2.974,3.765c0.244,1.133 0.32,2.308 0.738,3.396c0.78,-0.726 1.196,-1.658 1.638,-2.574c0.615,-1.277 1.046,-2.643 1.384,-4.019c0.431,-1.759 0.496,-3.589 0.81,-5.373c0.352,-2.002 1.359,-3.901 1.206,-5.979c-0.164,-0.727 -2.219,-0.312 -2.831,-1.121c-0.701,-0.929 -0.939,-2.468 -0.351,-3.473c0.662,-1.131 2.297,-1.5 3.606,-1.571c1.148,-0.06 2.346,0.248 3.288,1.041c0.572,-2.272 1.137,-4.545 2.249,-6.619c0.678,-1.636 1.392,-3.284 2.766,-4.464c0.526,-0.253 1.981,-2.191 1.805,-1.167c-1.056,6.73 -1.989,13.496 -3.526,20.133c-3.723,11.34 -7.725,22.598 -11.923,33.773c-2.593,5.108 -5.067,10.289 -7.734,15.352c-1.086,1.508 -2.173,3.008 -3.259,4.515l0,-0.009Z" style="fill:#ff5;fill-rule:nonzero;stroke:#000;stroke-width:0.75px;"/><g id="g1602"><path id="path1604" d="M226.013,249.623l-5.171,-1.724" style="fill:none;stroke:#000;stroke-width:0.75px;"/><path id="path1606" d="M227.34,246.705l-5.17,-1.591" style="fill:none;stroke:#000;stroke-width:0.75px;"/><path id="path1608" d="M228.135,243.788l-5.569,-1.591" style="fill:none;stroke:#000;stroke-width:0.75px;"/><path id="path1610" d="M229.065,241.005l-6.099,-1.856" style="fill:none;stroke:#000;stroke-width:0.75px;"/></g><path id="path1612" d="M199.365,239.678c0,0 -2.34,-0.389 -3.447,-0.796c-1.354,-0.497 -2.569,-1.314 -3.845,-1.989c-1.066,-0.565 -2.132,-1.13 -3.182,-1.724c-0.759,-0.428 -1.52,-0.856 -2.258,-1.326c-0.589,-0.376 -1.723,-1.193 -1.723,-1.193c0,0 1.191,-2.246 1.59,-3.447c0.401,-1.201 0.437,-2.499 0.796,-3.712c0.282,-0.953 0.734,-1.847 1.061,-2.784c0.289,-0.832 0.795,-2.52 0.795,-2.52c0,0 0.803,1.569 1.459,2.121c0.484,0.408 1.142,0.548 1.724,0.796c1.004,0.428 2.035,0.788 3.049,1.193c1.196,0.478 2.413,0.912 3.58,1.459c0.68,0.319 1.277,0.819 1.989,1.061c0.509,0.173 1.055,0.22 1.591,0.265c0.396,0.033 1.193,0 1.193,0c0,0 -1.657,4.13 -2.387,6.231c-0.729,2.099 -1.989,6.364 -1.989,6.364l0.004,0.001Z" style="fill:#fa5;fill-rule:nonzero;stroke:#000;stroke-width:0.75px;"/><path id="path1614" d="M201.75,231.195c-1.043,0.231 -2.147,0.29 -3.189,0.075c-1.696,-0.349 -3.179,-1.378 -4.723,-2.163c-1.763,-0.896 -3.78,-1.5 -5.175,-2.903c-0.405,-0.407 -0.617,-0.978 -0.834,-1.508l-1.194,2.917c0,0 0.045,0.07 0.071,0.103c0.554,0.711 1.081,1.47 1.791,2.027c1.127,0.886 2.53,1.347 3.805,2.003c1.272,0.656 2.453,1.559 3.835,1.933c1.553,0.42 3.209,0.344 4.817,0.298l0.796,-2.782Z" style="fill:#ff5;fill-rule:nonzero;stroke:#000;stroke-width:0.75px;"/></g><g id="g1616"><path id="path1618" d="M182.655,234.24c-0.742,1.442 -1.539,2.861 -2.115,4.374c-0.58,1.524 -1.112,3.091 -1.336,4.706c-0.929,6.698 -0.427,13.538 0.024,20.288c0.191,2.847 0.591,5.683 1.131,8.485c0.453,2.351 1.113,4.656 1.766,6.963" style="fill:none;stroke:#000;stroke-width:0.75px;stroke-linecap:butt;stroke-linejoin:miter;"/><path id="path1620" d="M179.475,241.133c-1.207,1.834 -2.626,3.544 -3.656,5.485c-1.216,2.291 -2.074,4.758 -2.942,7.201c-0.62,1.744 -1.404,3.472 -1.615,5.311c-0.072,0.627 0.084,1.26 0.126,1.89" style="fill:none;stroke:#000;stroke-width:0.75px;stroke-linecap:butt;stroke-linejoin:miter;"/></g><g id="g1622"><path id="path1624" d="M75.533,226.418c-1.532,0.213 -3.126,0.488 -4.464,1.264c-2.961,1.718 -5.108,4.589 -7.334,7.191c-0.643,0.75 -1.15,1.611 -1.726,2.417c0.93,0.666 2.094,1.079 2.835,1.957c0.656,0.78 1.045,1.785 1.286,2.777c0.881,3.627 0.258,7.462 0.478,11.189c0.109,1.841 0.079,3.703 0.416,5.516c0.215,1.151 0.492,2.316 1.015,3.364c0.965,1.93 2.317,3.681 3.834,5.215c0.718,0.725 1.568,1.32 2.447,1.838c2.366,1.393 5.153,1.97 7.522,3.358c0.852,0.498 1.467,1.378 2.374,1.767c0.626,0.268 1.419,0.675 2.015,0.345c0.54,-0.299 0.729,-1.095 0.702,-1.71c-0.034,-0.743 -0.529,-1.427 -1.026,-1.98c-0.734,-0.819 -1.809,-1.253 -2.747,-1.828c-1.796,-1.102 -3.757,-1.926 -5.507,-3.106c-1.062,-0.718 -2.016,-1.584 -3,-2.403c-0.644,-0.535 -1.267,-2.182 -1.904,-1.639c-0.37,0.315 0.428,0.889 0.762,1.242c1.331,1.408 3.106,2.33 4.776,3.315c1.446,0.852 2.928,1.682 4.515,2.231c1.586,0.548 3.307,1.473 4.928,1.035c0.69,-0.187 1.309,-0.782 1.591,-1.439c0.31,-0.725 0.189,-1.619 -0.065,-2.366c-0.411,-1.212 -1.343,-2.206 -2.25,-3.109c-0.903,-0.9 -2.756,-1.809 -3.106,-2.231c-0.171,-0.205 0.51,-0.154 0.768,-0.214c0.792,-0.185 1.714,-0.011 2.398,-0.452c0.656,-0.423 1.073,-1.186 1.346,-1.918c0.273,-0.729 0.462,-1.576 0.245,-2.325c-0.457,-1.57 -1.583,-2.611 -3.05,-3.845c-0.295,-0.248 0.774,-0.026 1.155,-0.088c0.597,-0.098 1.313,-0.036 1.762,-0.442c0.577,-0.521 0.691,-1.421 0.796,-2.19c0.115,-0.842 0.087,-1.742 -0.198,-2.543c-0.404,-1.131 -1.426,-1.901 -2.056,-2.957c-0.261,-0.437 1.025,0.578 1.182,-0.968c0.098,-0.973 -0.332,-1.952 -0.75,-2.835c-0.992,-2.08 -2.6,-3.815 -4.076,-5.583c-0.795,-0.951 -1.482,-2.088 -2.565,-2.693c-0.793,-0.444 -1.904,-0.075 -2.667,-0.57c-0.605,-0.393 -0.903,-1.131 -1.275,-1.749c-0.543,-0.902 -0.831,-1.928 -1.382,-2.838l0,0Z" style="fill:#faa;fill-rule:nonzero;stroke:#000;stroke-width:0.75px;"/><g id="g1626"><path id="path1628" d="M82.163,268.56c0,0 -2.208,-1.138 -3.315,-1.701c-0.747,-0.379 -2.244,-1.129 -2.244,-1.129l-4.783,26.318l5.966,2.784l4.376,-26.272Z" style="fill:#fa5;fill-rule:nonzero;stroke:#000;stroke-width:0.75px;"/><path id="path1630" d="M70.755,324c0.95,-1.169 2.039,-2.299 2.545,-3.748c0.325,-1.422 0.493,-2.924 0.137,-4.356c-0.367,-0.657 -1.191,-0.775 -1.864,-0.892c-1.275,-0.134 -2.587,0.168 -3.838,-0.21c-0.548,-0.123 -1.206,-0.179 -1.554,-0.667c-0.37,0.211 -0.294,0.864 -0.458,1.256c-0.278,1.31 -0.546,1.188 -0.855,2.49c-0.127,1.062 -0.286,3.03 -0.273,4.089c0.027,0.51 0.558,1.754 1.15,1.985c0.514,0.265 1.074,0.432 1.572,0.73c0.566,0.246 1.205,-0.074 1.791,-0.138c0.564,-0.128 1.12,-0.302 1.647,-0.54l0,0.001Z" style="fill:#fa5;fill-rule:nonzero;stroke:#000;stroke-width:0.75px;"/></g></g><g id="g1632"><path id="path1634" d="M73.41,319.23c-0.913,0.75 -1.912,1.409 -2.755,2.238c-0.746,0.734 -1.66,1.42 -2.018,2.402c-0.076,0.208 0,0.442 0,0.663" style="fill:none;stroke:#000;stroke-width:0.75px;stroke-linecap:butt;stroke-linejoin:miter;"/><path id="path1636" d="M72.75,315.645c-1.088,1.058 -1.21,1.582 -1.961,2.224c-0.765,0.654 -1.556,0.923 -2.547,1.621c-0.808,0.569 -1.324,1.518 -1.686,2.437c-0.256,0.649 -0.202,1.734 -0.303,2.071" style="fill:none;stroke:#000;stroke-width:0.75px;stroke-linecap:butt;stroke-linejoin:miter;"/><path id="path1638" d="M69.713,314.97c-0.832,0.781 -0.849,1.303 -1.902,1.742c-0.706,0.295 -1.473,0.69 -1.998,1.281c-0.664,0.75 -1.133,2.25 -1.304,2.71" style="fill:none;stroke:#000;stroke-width:0.72px;stroke-linecap:butt;stroke-linejoin:miter;"/></g><path id="path1640" d="M73.148,315.383c1.34,0.757 2.899,-1.262 3.957,-2.38c1.071,-1.13 1.535,-2.714 2.185,-4.128c0.891,-1.938 1.828,-3.885 2.343,-5.955c0.509,-2.042 0.51,-4.178 0.713,-6.272c0.139,-1.443 1.561,-3.542 0.348,-4.335c-0.528,-0.345 -1.052,1.035 -1.667,0.896c-0.789,-0.179 -0.627,-2.022 -1.433,-1.958c-0.897,0.07 -0.336,2.457 -1.234,2.4c-0.943,-0.06 -0.067,-2.388 -0.97,-2.664c-0.575,-0.175 -0.86,1.121 -1.458,1.061c-0.716,-0.072 -0.742,-1.654 -1.459,-1.591c-0.574,0.05 -0.352,1.474 -0.928,1.459c-0.811,-0.022 -0.395,-1.975 -1.193,-2.121c-0.679,-0.125 -0.901,1.343 -1.591,1.326c-0.781,-0.02 -0.946,-1.668 -1.724,-1.591c-1.196,0.118 -0.943,3.159 -2.12,2.917c-0.977,-0.201 0.326,-2.794 -0.663,-2.917c-1.484,-0.184 -1.471,2.613 -2.033,3.998c-0.599,1.48 -1.191,2.995 -1.414,4.576c-0.426,3.015 -0.321,6.132 0.174,9.138c0.257,1.562 0.642,3.156 1.437,4.523c0.629,1.083 1.448,2.161 2.547,2.761c1.45,0.791 3.236,0.712 4.882,0.855c0.432,0.038 0.994,-0.307 1.301,0l0,0.002Z" style="fill:#fa5;fill-rule:nonzero;stroke:#000;stroke-width:0.75px;"/><g id="g1642"><path id="path1644" d="M80.903,293.31c-0.152,1.607 -0.183,3.23 -0.425,4.827c-0.286,1.887 -0.652,3.773 -1.212,5.597c-0.694,2.265 -1.716,4.413 -2.649,6.59c-0.331,0.772 -0.567,1.602 -1.045,2.293c-0.733,1.059 -1.603,3.369 -2.727,2.739c-0.247,-0.139 0.114,-0.558 0.203,-0.827c0.574,-1.74 1.5,-3.346 2.125,-5.069c0.698,-1.933 1.377,-3.886 1.799,-5.897c0.452,-2.159 0.483,-4.385 0.774,-6.571c0.154,-1.158 0.444,-1.956 0.515,-3.466" style="fill:none;stroke:#000;stroke-width:0.75px;stroke-linecap:butt;stroke-linejoin:miter;"/><path id="path1646" d="M75.75,292.373c-0.284,2.922 -0.511,5.853 -0.901,8.763c-0.225,1.687 -0.501,3.369 -0.832,5.038c-0.472,2.384 -0.799,4.825 -1.642,7.105c-0.281,0.76 -0.373,1.852 -1.125,2.156c-0.328,0.133 -1.009,0.018 -1.009,-0.336c0.004,-1.635 0.919,-2.97 1.107,-4.507c0.23,-1.869 -0.135,-3.773 0.018,-5.649c0.205,-2.516 0.76,-4.992 1.201,-7.477c0.314,-1.767 0.912,-3.398 1.028,-5.288" style="fill:none;stroke:#000;stroke-width:0.75px;stroke-linecap:butt;stroke-linejoin:miter;"/><path id="path1648" d="M70.59,291.158c-0.304,1.634 -0.699,3.254 -0.937,4.9c-0.421,2.904 -0.891,5.826 -0.87,8.761c0.015,2.002 0.629,3.965 0.682,5.966c0.026,0.989 -0.071,1.978 -0.179,2.96c-0.045,0.411 0.14,0.984 -0.196,1.225c-0.272,0.194 -0.738,0.05 -0.989,-0.171c-1.054,-0.926 -0.744,-2.71 -1.244,-4.021c-0.276,-0.724 -0.764,-1.366 -0.968,-2.114c-0.388,-1.422 -0.387,-2.926 -0.455,-4.399c-0.059,-1.259 -0.085,-2.526 0.037,-3.78c0.164,-1.69 0.646,-3.334 0.932,-5.008c0.16,-0.938 0.337,-1.87 0.438,-2.819" style="fill:none;stroke:#000;stroke-width:0.75px;stroke-linecap:butt;stroke-linejoin:miter;"/></g><g id="g1650"><path id="path1652" d="M172.59,204.72c0.627,0.032 0.125,-0.562 0.188,-1.875c-29.875,0.062 -59.753,-0.062 -89.625,0c0.062,1.375 0.125,0.875 0.187,2.25c3.319,0.817 6.704,1.259 10.091,1.619c3.15,0.336 6.322,0.42 9.489,0.504c4.807,0.128 9.618,-0.021 14.427,0.003c3.626,0.018 7.253,0.012 10.878,0.107c3.326,0.087 6.646,0.376 9.974,0.422c5.587,0.079 11.185,0.136 16.759,-0.238c3.894,-0.261 7.78,-0.725 11.623,-1.4c2.025,-0.355 5.067,-1.282 6.008,-1.393l0.001,0.001Z" style="fill:#fa5;fill-rule:nonzero;stroke:#000;stroke-width:0.75px;stroke-linecap:butt;stroke-linejoin:miter;"/><path id="path1654" d="M81.923,232.755c0,0 1.803,1.677 2.564,2.639c1.151,1.454 2.995,4.691 2.995,4.691l6.845,-37.24l-6.904,0l-5.5,29.91Z" style="fill:#fa5;fill-rule:nonzero;stroke:#000;stroke-width:0.75px;"/></g><g id="g1656"><g id="g1658"><path id="path1660" d="M61.965,237.345c-2.497,-1.62 -4.198,-3.846 -6.625,-5.295c-2.299,-1.372 -5.025,-1.89 -7.39,-3.144c-1.307,-0.693 -2.753,-1.295 -3.73,-2.406c-0.418,-0.476 -0.534,-1.156 -0.817,-1.717" style="fill:none;stroke:#000;stroke-width:0.75px;"/><path id="path1662" d="M52.215,230.595c-1.822,0.573 -3.669,1.181 -5.572,1.379c-1.212,0.126 -2.458,0.099 -3.656,-0.131c-1.029,-0.198 -2.392,-0.011 -2.959,-1.06" style="fill:none;stroke:#000;stroke-width:0.75px;"/></g><path id="path1664" d="M73.215,217.935c0,0 -3.339,0.443 -4.975,1.25c-1.677,0.828 -3.402,1.836 -4.885,2.976c-1.797,1.383 -3.536,3.525 -5.057,5.205c-0.822,0.906 -1.491,1.941 -2.172,2.957c-0.36,0.536 -1.011,1.653 -1.011,1.653c0,0 4.812,4.655 7.225,5.833c1.184,-0.55 1.809,-2.79 2.813,-4.114c1.362,-1.799 2.893,-3.467 4.629,-4.909c0.733,-0.61 1.776,-1.006 2.679,-1.311c1.203,-0.405 2.421,-0.676 3.303,-0.895c-0.107,-1.166 -0.396,-1.623 -0.682,-2.405c-0.48,-1.309 -0.93,-1.891 -1.263,-3.245c-0.194,-0.789 -0.604,-2.996 -0.604,-2.996l0,0.001Z" style="fill:#fa5;fill-rule:nonzero;stroke:#000;stroke-width:0.75px;"/><g id="g1666"><path id="path1668" d="M73.403,219.72c-1.308,0.292 -2.631,0.546 -3.891,1.002c-0.909,0.329 -1.798,0.737 -2.623,1.244c-1.093,0.672 -2.087,1.5 -3.043,2.36c-1.114,0.998 -2.152,2.086 -3.124,3.223c-1.515,1.767 -2.928,3.621 -4.195,5.577" style="fill:none;stroke:#000;stroke-width:0.75px;"/><path id="path1670" d="M115.568,367.223c-1.149,-2.899 -2.407,-5.861 -2.787,-8.968c-0.253,-2.078 0.75,-4.211 0.365,-6.268c-0.335,-1.771 -1.81,-3.166 -2.258,-4.912c-0.882,-3.424 -0.698,-7.044 -0.776,-10.582c-0.101,-4.593 -2.246,-7.182 -2.178,-10.88c0.044,-2.396 0.476,-4.915 1.672,-6.992c0.973,-1.691 2.644,-2.918 4.24,-4.036" style="fill:none;stroke:#000;stroke-width:0.75px;"/><path id="path1672" d="M112.095,366.788c-1.148,-2.899 -2.407,-5.861 -2.786,-8.968c-0.254,-2.078 0.75,-4.211 0.364,-6.268c-0.334,-1.771 -1.809,-3.166 -2.257,-4.912c-0.882,-3.424 -0.698,-7.044 -0.776,-10.582c-0.102,-4.593 -2.22,-7.181 -2.178,-10.88c0.032,-2.836 0.532,-5.797 1.859,-8.302c1.223,-2.312 3.772,-4.606 5.365,-5.724" style="fill:none;stroke:#000;stroke-width:0.75px;"/><path id="path1674" d="M107.97,364.725c-1.148,-2.899 -2.407,-5.86 -2.786,-8.968c-0.254,-2.077 0.55,-4.183 0.364,-6.267c-0.285,-3.214 -1.845,-6.213 -2.257,-9.412c-0.248,-1.916 -0.049,-2.258 -0.127,-5.794c-0.101,-4.593 -1.978,-6.174 -2.164,-9.376c-0.144,-2.451 -0.058,-5.025 0.81,-7.323c1.14,-3.023 3.593,-6.818 5.564,-7.933" style="fill:none;stroke:#000;stroke-width:0.75px;"/><path id="path1676" d="M98.97,350.663c0.727,-3.837 -1.003,-6.249 -1.661,-9.343c-0.435,-2.042 -1.231,-4.011 -1.508,-6.08c-0.345,-2.553 0.257,-5.19 -0.196,-7.725c-0.517,-2.887 -3.176,-4.809 -2.839,-8.332c0.175,-1.828 1.529,-2.39 2.417,-3.491c1.508,-1.872 3.568,-2.643 3.681,-6.368c0.102,-3.325 -1.246,-4.522 -3.138,-4.798c-1.4,-0.201 -2.728,0.45 -3.23,2.754c-0.674,3.093 3.224,4.395 3.375,0.937" style="fill:none;stroke:#000;stroke-width:0.75px;"/><path id="path1678" d="M92.865,329.558c-0.423,-3.971 -2.928,-4.871 -3.409,-7.197c-0.397,-2.207 -0.305,-4.498 -0.999,-6.448c-0.627,-1.646 -2.16,-2.944 -2.469,-4.681c-0.42,-2.356 0.183,-4.851 0.951,-7.118c0.488,-1.442 1.218,-2.862 2.272,-3.962c1.264,-1.322 3,-2.273 4.632,-2.937" style="fill:none;stroke:#000;stroke-width:0.75px;"/><path id="path1680" d="M155.213,340.305c0.951,-1.162 2.12,-2.25 2.586,-3.673c0.458,-1.398 0.253,-2.952 0.086,-4.415c-0.419,-3.658 -1.633,-7.186 -2.703,-10.708c-1.184,-3.894 -3.758,-7.475 -4.106,-11.499c-0.255,-2.958 1.381,-2.409 2.037,-3.633c0.588,-1.098 0.366,-1.965 1.701,-3.327" style="fill:none;stroke:#000;stroke-width:0.75px;"/><path id="path1682" d="M160.118,327.18c-1.007,-2.767 -2.31,-6.172 -3.364,-9.293c-0.785,-2.322 -2.17,-4.564 -2.205,-7.015c-0.032,-2.18 0.704,-4.399 1.783,-6.294c1.032,-1.814 2.537,-3.442 4.31,-4.545c0.928,-0.577 2.039,-1.027 3.13,-0.97c1.203,0.063 2.397,0.651 3.321,1.425c1.379,1.155 2.865,2.715 2.964,4.515c0.101,1.823 -1.024,3.787 -2.486,4.881c-1.051,0.787 -2.841,1.539 -3.874,0.726c-1.189,-0.937 -1.439,-3.618 -0.235,-4.538c0.695,-0.53 1.803,1.366 2.489,0.824c0.862,-0.68 0.407,-2.464 -0.28,-3.282c-0.562,-0.669 -1.407,-1.293 -2.282,-1.291c-1.204,0.001 -2.296,0.93 -3.139,1.789c-1.471,1.499 -2.693,3.218 -3.015,5.531c0.331,3.238 1.857,5.604 3.679,8.125" style="fill:none;stroke:#000;stroke-width:0.75px;"/><path id="path1684" d="M165.158,313.793c-2.057,0.282 -1.863,2.418 -2.931,3.502c-1.265,1.283 -2.755,2.339 -4.096,3.524" style="fill:none;stroke:#000;stroke-width:0.75px;"/><path id="path1686" d="M165.69,316.973c-1.225,1.089 -1.259,1.758 -2.017,2.524c-0.789,0.796 -1.857,1.289 -2.604,2.124c-0.769,0.86 -1.508,2.52 -1.875,2.909" style="fill:none;stroke:#000;stroke-width:0.75px;"/><path id="path1688" d="M163.17,314.453c-1.016,-0.75 -2.171,-2.08 -2.652,-3.447c-0.733,-2.085 -0.068,-4.553 -0.133,-6.63" style="fill:none;stroke:#000;stroke-width:0.75px;"/><path id="path1690" d="M103.77,361.665c-1.148,-2.899 -1.012,-5.848 -1.474,-8.78c-0.338,-2.149 -0.054,-4.311 -0.76,-6.455c-2.022,-6.141 -1.374,-9.256 -1.508,-12.038c-0.131,-2.693 -1.094,-3.314 -1.968,-6.74c-0.78,-3.059 -1.356,-3.997 -1.191,-6.045c0.138,-1.698 1.103,-3.227 1.782,-4.79c1.022,-2.352 2.958,-4.329 3.44,-6.88c0.664,-3.515 -0.705,-6.326 -2.952,-8.063c-1.591,-1.229 -4.191,-1.524 -5.997,-0.641c-2.395,1.171 -3.89,4.477 -4.211,6.795c-0.447,3.241 4.11,8.178 7.864,5.998" style="fill:none;stroke:#000;stroke-width:0.75px;"/></g></g></g></g></svg>