<?xml version="1.0" encoding="UTF-8" standalone="no"?><!DOCTYPE svg PUBLIC "-//W3C//DTD SVG 1.1//EN" "http://www.w3.org/Graphics/SVG/1.1/DTD/svg11.dtd"><svg width="100%" height="100%" viewBox="0 0 273 408" version="1.1" xmlns="http://www.w3.org/2000/svg" xmlns:xlink="http://www.w3.org/1999/xlink" xml:space="preserve" xmlns:serif="http://www.serif.com/" style="fill-rule:evenodd;clip-rule:evenodd;stroke-linejoin:round;stroke-miterlimit:1.41421;"><g><g id="g14650"><path id="path14652" d="M12.421,23.673l-3.75,5.25l0,5.25l3.75,-5.25l0,32.25l3.75,0l0,-37.5l-3.75,0" style="fill:#f55;fill-rule:nonzero;"/><path id="path14654" d="M27.421,23.673c-4.155,0 -7.5,3.345 -7.5,7.5l0,22.5c0,4.155 3.345,7.5 7.5,7.5c4.155,0 7.5,-3.345 7.5,-7.5l0,-22.5c0,-4.155 -3.345,-7.5 -7.5,-7.5m0,3.75c2.078,0 3.75,1.672 3.75,3.75l0,22.5c0,2.077 -1.672,3.75 -3.75,3.75c-2.077,0 -3.75,-1.673 -3.75,-3.75l0,-22.5c0,-2.078 1.673,-3.75 3.75,-3.75" style="fill:#f55;fill-rule:nonzero;"/></g><g id="g14656"><g id="g14658"><path id="path14660" d="M259.921,383.671l3.75,-5.25l0,-5.25l-3.75,5.25l0,-32.25l-3.75,0l0,37.5l3.75,0" style="fill:#f55;fill-rule:nonzero;"/><path id="path14662" d="M244.921,383.671c4.155,0 7.5,-3.345 7.5,-7.5l0,-22.5c0,-4.155 -3.345,-7.5 -7.5,-7.5c-4.155,0 -7.5,3.345 -7.5,7.5l0,22.5c0,4.155 3.345,7.5 7.5,7.5m0,-3.75c-2.077,0 -3.75,-1.672 -3.75,-3.75l0,-22.5c0,-2.077 1.673,-3.75 3.75,-3.75c2.078,0 3.75,1.673 3.75,3.75l0,22.5c0,2.078 -1.672,3.75 -3.75,3.75" style="fill:#f55;fill-rule:nonzero;"/></g><path id="path14664" d="M76.171,38.671c0,0 6,10 13,17c7,7 17,13 17,13c0,0 -10,6 -17,13c-7,7 -13,17 -13,17c0,0 -6,-10 -13,-17c-6.999,-7 -17,-13 -17,-13c0,0 10,-6 17,-13c7,-6.999 13,-17 13,-17" style="fill:#f55;fill-rule:nonzero;"/><path id="path14666" d="M248.671,316.171c0,0 2.25,3.75 4.875,6.375c2.625,2.625 6.375,4.875 6.375,4.875c0,0 -3.75,2.25 -6.375,4.875c-2.625,2.625 -4.875,6.375 -4.875,6.375c0,0 -2.25,-3.75 -4.875,-6.375c-2.625,-2.625 -6.375,-4.875 -6.375,-4.875c0,0 3.75,-2.25 6.375,-4.875c2.625,-2.625 4.875,-6.375 4.875,-6.375" style="fill:#f55;fill-rule:nonzero;"/><path id="path14668" d="M23.671,68.671c0,0 2.25,3.75 4.875,6.375c2.625,2.625 6.375,4.875 6.375,4.875c0,0 -3.75,2.25 -6.375,4.875c-2.625,2.625 -4.875,6.375 -4.875,6.375c0,0 -2.25,-3.75 -4.875,-6.375c-2.625,-2.625 -6.375,-4.875 -6.375,-4.875c0,0 3.75,-2.25 6.375,-4.875c2.625,-2.625 4.875,-6.375 4.875,-6.375" style="fill:#f55;fill-rule:nonzero;"/><path id="path14670" d="M196.171,38.671c0,0 6,10 13,17c7,7 17,13 17,13c0,0 -10,6 -17,13c-7,7 -13,17 -13,17c0,0 -6,-10 -13,-17c-6.999,-7 -17,-13 -17,-13c0,0 10,-6 17,-13c7,-6.999 13,-17 13,-17" style="fill:#f55;fill-rule:nonzero;"/><path id="path14672" d="M196.171,128.671c0,0 6,10 13,17c7,7 17,13 17,13c0,0 -10,6 -17,13c-7,7 -13,17 -13,17c0,0 -6,-10 -13,-17c-6.999,-7 -17,-13 -17,-13c0,0 10,-6 17,-13c7,-6.999 13,-17 13,-17" style="fill:#f55;fill-rule:nonzero;"/><path id="path14674" d="M196.171,218.671c0,0 6,10 13,17c7,7 17,13 17,13c0,0 -10,6 -17,13c-7,7 -13,17 -13,17c0,0 -6,-10 -13,-17c-6.999,-7 -17,-13 -17,-13c0,0 10,-6 17,-13c7,-6.999 13,-17 13,-17" style="fill:#f55;fill-rule:nonzero;"/><path id="path14676" d="M196.171,308.671c0,0 6,10 13,17c7,7 17,13 17,13c0,0 -10,6 -17,13c-7,7 -13,17 -13,17c0,0 -6,-10 -13,-17c-6.999,-7 -17,-13 -17,-13c0,0 10,-6 17,-13c7,-6.999 13,-17 13,-17" style="fill:#f55;fill-rule:nonzero;"/><path id="path14678" d="M76.171,128.671c0,0 6,10 13,17c7,7 17,13 17,13c0,0 -10,6 -17,13c-7,7 -13,17 -13,17c0,0 -6,-10 -13,-17c-6.999,-7 -17,-13 -17,-13c0,0 10,-6 17,-13c7,-6.999 13,-17 13,-17" style="fill:#f55;fill-rule:nonzero;"/><path id="path14680" d="M76.171,218.671c0,0 6,10 13,17c7,7 17,13 17,13c0,0 -10,6 -17,13c-7,7 -13,17 -13,17c0,0 -6,-10 -13,-17c-6.999,-7 -17,-13 -17,-13c0,0 10,-6 17,-13c7,-6.999 13,-17 13,-17" style="fill:#f55;fill-rule:nonzero;"/><path id="path14682" d="M76.171,308.671c0,0 6,10 13,17c7,7 17,13 17,13c0,0 -10,6 -17,13c-7,7 -13,17 -13,17c0,0 -6,-10 -13,-17c-6.999,-7 -17,-13 -17,-13c0,0 10,-6 17,-13c7,-6.999 13,-17 13,-17" style="fill:#f55;fill-rule:nonzero;"/><path id="path14684" d="M136.171,83.671c0,0 6,10 13,17c7,7 17,13 17,13c0,0 -10,6 -17,13c-7,7 -13,17 -13,17c0,0 -6,-10 -13,-17c-6.999,-7 -17,-13 -17,-13c0,0 10,-6 17,-13c7,-6.999 13,-17 13,-17" style="fill:#f55;fill-rule:nonzero;"/><path id="path14686" d="M136.171,263.671c0,0 6,10 13,17c7,7 17,13 17,13c0,0 -10,6 -17,13c-7,7 -13,17 -13,17c0,0 -6,-10 -13,-17c-6.999,-7 -17,-13 -17,-13c0,0 10,-6 17,-13c7,-6.999 13,-17 13,-17" style="fill:#f55;fill-rule:nonzero;"/></g></g></svg>