<?xml version="1.0" encoding="UTF-8" standalone="no"?><!DOCTYPE svg PUBLIC "-//W3C//DTD SVG 1.1//EN" "http://www.w3.org/Graphics/SVG/1.1/DTD/svg11.dtd"><svg width="100%" height="100%" viewBox="0 0 1861 420" version="1.1" xmlns="http://www.w3.org/2000/svg" xmlns:xlink="http://www.w3.org/1999/xlink" xml:space="preserve" xmlns:serif="http://www.serif.com/" style="fill-rule:evenodd;clip-rule:evenodd;stroke-linejoin:round;stroke-miterlimit:1.41421;"><g><g><path d="M86.687,0l-86.687,0l0,418.673l42.298,0l0,-163.283l44.389,0c50.2,0 52.988,-45.456 52.988,-123.807c0,-84.333 -2.788,-131.583 -52.988,-131.583Zm7.437,162.684l-51.826,0l0,-67.586l51.826,0c8.367,0 8.831,12.561 8.831,34.092c0,23.925 -0.464,33.494 -8.831,33.494Z" style="fill-rule:nonzero;"/><path d="M212.651,0.598l-41.601,0l0,291.277c0,87.921 33.699,127.396 71.581,127.396c40.438,0 71.581,-32.298 71.581,-133.377l0,-285.296l-42.995,0.598l0,264.96c0,55.624 -17.896,62.203 -28.586,62.203c-10.458,0 -29.98,-10.168 -29.98,-62.801l0,-264.96Z" style="fill-rule:nonzero;"/><path d="M349.072,419.271l161.987,0l0,-116.631l-99.935,0l99.935,-185.412l0,-116.63l-161.987,0l0,116.63l100.167,0l-100.167,185.412l0,116.631Z" style="fill-rule:nonzero;"/><path d="M545.919,419.271l161.987,0l0,-116.631l-99.934,0l99.934,-185.412l0,-116.63l-161.987,0l0,116.63l100.167,0l-100.167,185.412l0,116.631Z" style="fill-rule:nonzero;"/><path d="M858.504,321.182l-73.44,0l-0.232,-319.986l-42.066,0l0,418.075l115.738,0l0,-98.089Z" style="fill-rule:nonzero;"/><path d="M1005.38,321.182l-73.44,0l0,-62.203l73.44,0l0,-98.089l-73.44,0l0,-62.203l73.44,0l0,-98.089l-115.505,0l0,418.673l115.505,0l0,-98.089Z" style="fill-rule:nonzero;"/><path d="M1126.93,0l-86.687,0l0,418.673l42.298,0l0,-163.283l44.389,0c50.199,0 52.988,-45.456 52.988,-123.807c0,-84.333 -2.789,-131.583 -52.988,-131.583Zm7.437,162.684l-51.826,0l0,-67.586l51.826,0c8.367,0 8.831,12.561 8.831,34.092c0,23.925 -0.464,33.494 -8.831,33.494Z" style="fill-rule:nonzero;"/><path d="M1207.81,209.934c0,115.434 36.488,209.337 81.574,209.337c44.854,0 81.342,-93.903 81.342,-209.337c0,-115.434 -36.488,-209.336 -81.342,-209.336c-45.086,0 -81.574,93.902 -81.574,209.336Zm39.044,0c0,-60.408 19.057,-109.453 42.53,-109.453c23.473,0 42.298,49.045 42.298,109.453c0,60.409 -18.825,109.453 -42.298,109.453c-23.473,0 -42.53,-49.044 -42.53,-109.453Z" style="fill-rule:nonzero;"/><path d="M1542.24,0.598l-41.136,0l-36.488,167.469l-20.219,0l0,-167.469l-42.297,0l0,418.673l42.297,0l-0.232,-159.096l20.451,0l32.77,159.096l44.621,0l-43.924,-209.337l44.157,-209.336Z" style="fill-rule:nonzero;"/><path d="M1685.63,321.182l-73.44,0l0,-62.203l73.44,0l0,-98.089l-73.44,0l0,-62.203l73.44,0l0,-98.089l-115.506,0l0,418.673l115.506,0l0,-98.089Z" style="fill-rule:nonzero;"/><path d="M1807.41,0.598l-86.92,0l0,418.673l42.298,0l0,-159.096l17.198,0l32.769,159.096l47.178,0l-35.558,-160.89c39.044,0 35.791,-54.428 35.791,-132.181c0,-87.921 -2.557,-125.602 -52.756,-125.602Zm16.501,129.19c0,26.915 0.464,36.485 -8.599,36.485l-52.524,0l-0.232,-71.175l52.756,-0.598c8.134,0 8.599,10.766 8.599,35.288Z" style="fill-rule:nonzero;"/></g></g></svg>