<?xml version="1.0" encoding="UTF-8" standalone="no"?><!DOCTYPE svg PUBLIC "-//W3C//DTD SVG 1.1//EN" "http://www.w3.org/Graphics/SVG/1.1/DTD/svg11.dtd"><svg width="100%" height="100%" viewBox="0 0 273 408" version="1.1" xmlns="http://www.w3.org/2000/svg" xmlns:xlink="http://www.w3.org/1999/xlink" xml:space="preserve" xmlns:serif="http://www.serif.com/" style="fill-rule:evenodd;clip-rule:evenodd;stroke-linejoin:round;stroke-miterlimit:1.41421;"><path id="diamond" d="M136.167,188.451c0,0 19.966,33.276 43.259,56.569c23.293,23.293 56.569,43.259 56.569,43.259c0,0 -33.276,19.965 -56.569,43.258c-23.293,23.293 -43.259,56.569 -43.259,56.569c0,0 -19.965,-33.276 -43.258,-56.569c-23.29,-23.293 -56.569,-43.258 -56.569,-43.258c0,0 33.276,-19.966 56.569,-43.259c23.293,-23.29 43.258,-56.569 43.258,-56.569" style="fill:#f55;fill-rule:nonzero;"/><g id="red-numbers" serif:id="red numbers"><g><path d="M206.24,140.432l-103.84,0l0,-11c0,-9.68 5.72,-10.34 24.2,-10.34l23.32,0c14.3,0 56.32,-1.1 56.32,-49.5c0,-47.52 -40.26,-47.52 -56.98,-47.52l-82.5,0l0,36.74l83.16,0.22c17.38,0 21.56,1.32 21.56,11.88c0,10.12 -4.4,11.22 -21.56,11.22l-23.32,-0.22c-44.44,0 -59.84,7.92 -59.84,48.4l0,45.54l139.48,0.44l0,-35.86Z" style="fill:#ff5454;fill-rule:nonzero;"/></g></g></svg>