<?xml version="1.0" encoding="UTF-8" standalone="no"?><!DOCTYPE svg PUBLIC "-//W3C//DTD SVG 1.1//EN" "http://www.w3.org/Graphics/SVG/1.1/DTD/svg11.dtd"><svg width="100%" height="100%" viewBox="0 0 273 408" version="1.1" xmlns="http://www.w3.org/2000/svg" xmlns:xlink="http://www.w3.org/1999/xlink" xml:space="preserve" xmlns:serif="http://www.serif.com/" style="fill-rule:evenodd;clip-rule:evenodd;stroke-linejoin:round;stroke-miterlimit:1.41421;"><path id="club" d="M136.5,192.216c-9.713,-0.198 -16.194,3.236 -22.671,9.716c-6.478,6.478 -9.717,12.952 -9.717,22.668c0,9.717 3.689,15.479 9.717,22.672c5.771,6.882 9.716,9.716 12.955,16.194c3.238,6.477 6.477,19.432 6.477,25.907c0,6.477 0,5.826 0,9.716l-6.477,0c-6.478,0 -19.433,-6.478 -22.672,-9.716l-9.716,-9.717c-6.478,-6.477 -12.952,-9.716 -22.668,-9.716c-9.717,0 -16.197,3.239 -22.672,9.716c-6.477,6.478 -9.716,12.955 -9.716,22.672c0,9.716 3.239,16.19 9.716,22.671c6.478,6.478 12.955,9.716 22.672,9.716c9.716,0 16.194,-3.238 22.668,-9.716l9.716,-9.716c3.239,-3.239 16.197,-9.716 22.672,-9.716l6.477,0c-0.158,9.172 -0.839,25.187 -3.235,32.384c-3.239,9.716 -9.717,19.433 -16.197,25.91c-6.478,6.478 -25.911,19.433 -25.911,19.433l0,3.239c0,0 32.388,-6.481 38.866,-6.481l19.432,0c6.478,0 38.866,6.481 38.866,6.481l0,-3.239c0,0 -19.433,-12.955 -25.911,-19.433c-6.477,-6.477 -12.955,-16.194 -16.193,-25.91c-2.4,-7.197 -3.081,-23.212 -3.239,-32.384l6.477,0c6.478,0 19.433,6.477 22.672,9.716l9.716,9.716c6.478,6.478 12.955,9.716 22.671,9.716c9.717,0 16.194,-3.238 22.669,-9.716c6.48,-6.481 9.716,-12.955 9.716,-22.671c0,-9.717 -3.236,-16.194 -9.716,-22.672c-6.478,-6.477 -12.952,-9.716 -22.669,-9.716c-9.716,0 -16.197,3.239 -22.671,9.716l-9.716,9.717c-3.239,3.238 -16.194,9.716 -22.672,9.716l-6.477,0c0,-4.505 0,-3.239 0,-9.716c0,-6.478 3.239,-19.433 6.477,-25.907c3.239,-6.481 6.478,-9.717 12.955,-16.194c6.446,-6.445 9.717,-12.955 9.717,-22.672c0,-9.716 -3.239,-16.19 -9.717,-22.668c-6.477,-6.48 -12.955,-9.716 -22.671,-9.716" style="fill-rule:nonzero;"/><g id="black-numbers" serif:id="black numbers"><g><path d="M146.73,83.672l-44.44,0l0,-26.4l104.28,0l0,-35.2l-140.14,0l0,96.8l80.3,0c18.7,0 24.42,0.22 24.42,9.9c0,11.44 -6.38,12.1 -24.42,12.1l-80.3,0l0,35.2l79.64,0c22.88,0 60.5,-0.44 60.5,-45.98c0,-43.56 -22.88,-46.42 -59.84,-46.42Z" style="fill-rule:nonzero;"/></g></g></svg>