<?xml version="1.0" encoding="UTF-8" standalone="no"?><!DOCTYPE svg PUBLIC "-//W3C//DTD SVG 1.1//EN" "http://www.w3.org/Graphics/SVG/1.1/DTD/svg11.dtd"><svg width="100%" height="100%" viewBox="0 0 273 408" version="1.1" xmlns="http://www.w3.org/2000/svg" xmlns:xlink="http://www.w3.org/1999/xlink" xml:space="preserve" xmlns:serif="http://www.serif.com/" style="fill-rule:evenodd;clip-rule:evenodd;stroke-linejoin:round;stroke-miterlimit:1.41421;"><path id="diamond" d="M136.167,188.451c0,0 19.966,33.276 43.259,56.569c23.293,23.293 56.569,43.259 56.569,43.259c0,0 -33.276,19.965 -56.569,43.258c-23.293,23.293 -43.259,56.569 -43.259,56.569c0,0 -19.965,-33.276 -43.258,-56.569c-23.29,-23.293 -56.569,-43.258 -56.569,-43.258c0,0 33.276,-19.966 56.569,-43.259c23.293,-23.29 43.258,-56.569 43.258,-56.569" style="fill:#f55;fill-rule:nonzero;"/><g id="red-numbers" serif:id="red numbers"><g><path d="M102.84,176.072l67.32,0c23.54,0 34.1,-8.8 34.1,-44c0,-22.44 -4.62,-33 -25.74,-33l-56.54,0l48.4,-77l-43.34,0c-23.1,33.22 -58.3,77.88 -58.3,110c0,35.2 10.78,44 34.1,44Zm58.08,-26.4l-35.42,0c-8.36,0 -8.36,-3.52 -8.36,-12.98c0,-6.82 0.44,-11.66 8.36,-11.66l35.42,0c7.92,0 8.36,4.84 8.36,11.66c0,9.46 0,12.98 -8.36,12.98Z" style="fill:#ff5454;fill-rule:nonzero;"/></g></g></svg>