<?xml version="1.0" encoding="UTF-8" standalone="no"?><!DOCTYPE svg PUBLIC "-//W3C//DTD SVG 1.1//EN" "http://www.w3.org/Graphics/SVG/1.1/DTD/svg11.dtd"><svg width="100%" height="100%" viewBox="0 0 273 408" version="1.1" xmlns="http://www.w3.org/2000/svg" xmlns:xlink="http://www.w3.org/1999/xlink" xml:space="preserve" xmlns:serif="http://www.serif.com/" style="fill-rule:evenodd;clip-rule:evenodd;stroke-linejoin:round;stroke-miterlimit:1.41421;"><path id="diamond" d="M136.167,188.451c0,0 19.966,33.276 43.259,56.569c23.293,23.293 56.569,43.259 56.569,43.259c0,0 -33.276,19.965 -56.569,43.258c-23.293,23.293 -43.259,56.569 -43.259,56.569c0,0 -19.965,-33.276 -43.258,-56.569c-23.29,-23.293 -56.569,-43.258 -56.569,-43.258c0,0 33.276,-19.966 56.569,-43.259c23.293,-23.29 43.258,-56.569 43.258,-56.569" style="fill:#f55;fill-rule:nonzero;"/><g id="red-numbers" serif:id="red numbers"><g><path d="M68.85,53.532l86.9,0l-86.68,122.54l45.76,0l89.32,-122.54l0,-31.46l-135.3,0l0,31.46Z" style="fill:#ff5454;fill-rule:nonzero;"/></g></g></svg>