<?xml version="1.0" encoding="UTF-8" standalone="no"?><!DOCTYPE svg PUBLIC "-//W3C//DTD SVG 1.1//EN" "http://www.w3.org/Graphics/SVG/1.1/DTD/svg11.dtd"><svg width="100%" height="100%" viewBox="0 0 273 408" version="1.1" xmlns="http://www.w3.org/2000/svg" xmlns:xlink="http://www.w3.org/1999/xlink" xml:space="preserve" xmlns:serif="http://www.serif.com/" style="fill-rule:evenodd;clip-rule:evenodd;stroke-linejoin:round;stroke-miterlimit:1.41421;"><path id="diamond" d="M136.167,188.451c0,0 19.966,33.276 43.259,56.569c23.293,23.293 56.569,43.259 56.569,43.259c0,0 -33.276,19.965 -56.569,43.258c-23.293,23.293 -43.259,56.569 -43.259,56.569c0,0 -19.965,-33.276 -43.258,-56.569c-23.29,-23.293 -56.569,-43.258 -56.569,-43.258c0,0 33.276,-19.966 56.569,-43.259c23.293,-23.29 43.258,-56.569 43.258,-56.569" style="fill:#f55;fill-rule:nonzero;"/><g id="red-numbers" serif:id="red numbers"><g><path d="M136.61,22.292c-42.46,0 -77,34.54 -77,76.78c0,42.46 34.54,77 77,77c11,0 21.56,-2.42 31.24,-6.82l18.48,18.48l20.02,-17.82l-15.84,-16.06c14.08,-13.86 22.88,-33.22 22.88,-54.78c0,-42.24 -34.54,-76.78 -76.78,-76.78Zm0,36.74c22,0 40.04,18.04 40.04,40.04c0,22.22 -18.04,40.26 -40.04,40.26c-22.22,0 -40.26,-18.04 -40.26,-40.26c0,-22 18.04,-40.04 40.26,-40.04Z" style="fill:#ff5454;fill-rule:nonzero;"/></g></g></svg>