<?xml version="1.0" encoding="UTF-8" standalone="no"?><!DOCTYPE svg PUBLIC "-//W3C//DTD SVG 1.1//EN" "http://www.w3.org/Graphics/SVG/1.1/DTD/svg11.dtd"><svg width="100%" height="100%" viewBox="0 0 273 408" version="1.1" xmlns="http://www.w3.org/2000/svg" xmlns:xlink="http://www.w3.org/1999/xlink" xml:space="preserve" xmlns:serif="http://www.serif.com/" style="fill-rule:evenodd;clip-rule:evenodd;stroke-linejoin:round;stroke-miterlimit:1.41421;"><path id="heart" d="M135.928,244.344c0,0 4.33,-26.538 12.69,-34.898c8.359,-8.362 23.073,-12.69 34.897,-12.69c11.824,0 26.538,4.331 34.898,12.69c8.362,8.36 12.69,23.074 12.69,34.898c0,11.824 -6.345,28.552 -12.69,34.897c-6.345,6.348 -12.687,9.518 -19.035,15.866c-6.345,6.345 -9.518,6.345 -15.863,12.687c-6.345,6.348 -9.517,9.517 -15.862,15.865c-6.345,6.345 -15.863,19.035 -22.208,31.722c-6.345,12.69 -9.517,31.725 -9.517,31.725c0,0 -3.173,-19.035 -9.518,-31.725c-6.345,-12.687 -15.862,-25.38 -22.207,-31.722c-6.345,-6.348 -9.518,-9.517 -15.863,-15.865c-6.345,-6.345 -9.517,-6.345 -15.862,-12.687c-6.345,-6.348 -12.69,-9.518 -19.035,-15.866c-6.345,-6.345 -12.69,-23.073 -12.69,-34.897c0,-11.824 4.33,-26.538 12.69,-34.898c8.359,-8.362 23.074,-12.69 34.897,-12.69c11.824,0 26.538,4.331 34.898,12.69c8.363,8.36 12.69,34.898 12.69,34.898" style="fill:#f55;fill-rule:nonzero;"/><g id="red-numbers" serif:id="red numbers"><g><path d="M75.034,22.072l-42.46,0l-31.9,18.92l0,31.9l31.9,-15.18l0,82.5l-31.9,0l0,35.86l106.26,0l0,-35.86l-31.9,0l0,-118.14Z" style="fill:#ff5454;fill-rule:nonzero;"/><path d="M140.154,70.032l-0.22,57.86c0,36.52 31.24,48.18 68.64,48.18c40.7,0 64.02,-11.88 64.02,-45.76l0.22,-62.48c0,-31.68 -29.92,-45.76 -64.9,-45.76c-37.4,0 -67.76,11.44 -67.76,47.96Zm66,73.04c-9.68,0 -26.4,-2.2 -26.4,-22.22c0,-8.8 0.22,-27.06 0.22,-43.78c0,-20.02 16.72,-22.22 26.4,-22.22c9.68,0 27.94,3.52 27.94,22.44c0,16.94 -0.22,36.08 -0.22,43.34c0,18.92 -18.26,22.44 -27.94,22.44Z" style="fill:#ff5454;fill-rule:nonzero;"/></g></g></svg>