<?xml version="1.0" encoding="UTF-8" standalone="no"?><!DOCTYPE svg PUBLIC "-//W3C//DTD SVG 1.1//EN" "http://www.w3.org/Graphics/SVG/1.1/DTD/svg11.dtd"><svg width="100%" height="100%" viewBox="0 0 273 408" version="1.1" xmlns="http://www.w3.org/2000/svg" xmlns:xlink="http://www.w3.org/1999/xlink" xml:space="preserve" xmlns:serif="http://www.serif.com/" style="fill-rule:evenodd;clip-rule:evenodd;stroke-linejoin:round;stroke-miterlimit:1.41421;"><g><path id="path164" d="M23.671,23.671l-7.5,26.25l0,3.75l9,0l0,7.5l3.75,0l0,-7.5l2.25,0l0,-3.75l-2.25,0l0,-11.25l-3.75,0l0,11.25l-5.1,0l7.5,-26.25l-3.9,0Z" style="fill-rule:nonzero;"/><path id="path166" d="M248.671,383.671l7.5,-26.25l0,-3.75l-9,0l0,-7.5l-3.75,0l0,7.5l-2.25,0l0,3.75l2.25,0l0,11.25l3.75,0l0,-11.25l5.1,0l-7.5,26.25l3.9,0Z" style="fill-rule:nonzero;"/><path id="path168" d="M76.171,38.679c-2.999,-0.062 -5,0.999 -7,3c-2,2 -3,3.999 -3,6.999c0,3 1.139,4.779 3,7c1.782,2.125 3,3 4,5c1,2 2,6 2,7.999c0,2 0,1.799 0,3l-2,0c-2,0 -6,-2 -7,-3l-3,-3c-2,-2 -3.999,-3 -6.999,-3c-3,0 -5.001,1 -7,3c-2,2 -3,4 -3,7c0,3 1,4.999 3,7c2,2 4,3 7,3c3,0 5,-1 6.999,-3l3,-3c1,-1 5.001,-3 7,-3l2,0c-0.049,2.832 -0.259,7.777 -0.999,9.999c-1,3 -3,6 -5.001,8c-2,2 -8,6 -8,6l0,1c0,0 10,-2.001 12,-2.001l6,0c2,0 12,2.001 12,2.001l0,-1c0,0 -6,-4 -8,-6c-2,-2 -4,-5 -5,-8c-0.741,-2.222 -0.951,-7.167 -1,-9.999l2,0c2,0 6,2 7,3l3,3c2,2 4,3 7,3c3,0 5,-1 6.999,-3c2.001,-2.001 3,-4 3,-7c0,-3 -0.999,-5 -3,-7c-2,-2 -3.999,-3 -6.999,-3c-3,0 -5.001,1 -7,3l-3,3c-1,1 -5,3 -7,3l-2,0c0,-1.391 0,-1 0,-3c0,-2 1,-6 2,-7.999c1,-2.001 2,-3 4,-5c1.99,-1.99 3,-4 3,-7c0,-3 -1,-4.999 -3,-6.999c-2,-2.001 -4,-3 -7,-3" style="fill-rule:nonzero;"/><path id="path170" d="M196.171,38.679c-2.999,-0.062 -5,0.999 -7,3c-2,2 -3,3.999 -3,6.999c0,3 1.139,4.779 3,7c1.782,2.125 3,3 4,5c1,2 2,6 2,7.999c0,2 0,1.799 0,3l-2,0c-2,0 -6,-2 -7,-3l-3,-3c-2,-2 -3.999,-3 -6.999,-3c-3,0 -5.001,1 -7,3c-2,2 -3,4 -3,7c0,3 1,4.999 3,7c2,2 4,3 7,3c3,0 5,-1 6.999,-3l3,-3c1,-1 5.001,-3 7,-3l2,0c-0.049,2.832 -0.259,7.777 -0.999,9.999c-1,3 -3,6 -5.001,8c-2,2 -8,6 -8,6l0,1c0,0 10,-2.001 12,-2.001l6,0c2,0 12,2.001 12,2.001l0,-1c0,0 -6,-4 -8,-6c-2,-2 -4,-5 -5,-8c-0.741,-2.222 -0.951,-7.167 -1,-9.999l2,0c2,0 6,2 7,3l3,3c2,2 4,3 7,3c3,0 5,-1 6.999,-3c2.001,-2.001 3,-4 3,-7c0,-3 -0.999,-5 -3,-7c-2,-2 -3.999,-3 -6.999,-3c-3,0 -5.001,1 -7,3l-3,3c-1,1 -5,3 -7,3l-2,0c0,-1.391 0,-1 0,-3c0,-2 1,-6 2,-7.999c1,-2.001 2,-3 4,-5c1.99,-1.99 3,-4 3,-7c0,-3 -1,-4.999 -3,-6.999c-2,-2.001 -4,-3 -7,-3" style="fill-rule:nonzero;"/><path id="path172" d="M196.171,368.671c2.999,0.061 5,-1 7,-3c2,-2 3,-4 3,-7c0,-3 -1.139,-4.779 -3,-6.999c-1.781,-2.125 -3,-3 -4,-5c-1,-2 -2,-6 -2,-7.999c0,-2.001 0,-1.799 0,-3l2,0c2,0 6,2 7,3l3,3c2,2 4,3 7,3c3,0 5,-1 6.999,-3c2.001,-2.001 3,-4 3,-7c0,-3 -0.999,-5 -3,-7c-2,-2 -3.999,-3 -6.999,-3c-3,0 -5.001,1 -7,3l-3,3c-1,1 -5,3 -7,3l-2,0c0.049,-2.832 0.259,-7.777 1,-10c0.999,-3 3,-6 5,-7.999c2,-2 8,-6 8,-6l0,-1c0,0 -10,2 -12,2l-6,0c-2,0 -12,-2 -12,-2l0,1c0,0 6,4 8,6c2.001,2 4,4.999 5.001,7.999c0.741,2.223 0.95,7.168 0.999,10l-2,0c-2,0 -6,-2 -7,-3l-3,-3c-2,-2 -3.999,-3 -6.999,-3c-3,0 -5.001,1 -7,3c-2,2 -3,4 -3,7c0,3 1,4.999 3,7c2,2 4,3 7,3c3,0 5,-1 6.999,-3l3,-3c1,-1 5.001,-3 7,-3l2,0c0,1.391 0,0.999 0,3c0,2 -0.999,6 -2,7.999c-1,2 -2,3 -4,5c-1.989,1.989 -3,3.999 -3,6.999c0,3 1,5 3,7c2.001,2 4,3 7,3" style="fill-rule:nonzero;"/><path id="path174" d="M76.171,368.671c2.999,0.061 5,-1 7,-3c2,-2 3,-4 3,-7c0,-3 -1.139,-4.779 -3,-6.999c-1.781,-2.125 -3,-3 -4,-5c-1,-2 -2,-6 -2,-7.999c0,-2.001 0,-1.799 0,-3l2,0c2,0 6,2 7,3l3,3c2,2 4,3 7,3c3,0 5,-1 6.999,-3c2.001,-2.001 3,-4 3,-7c0,-3 -0.999,-5 -3,-7c-2,-2 -3.999,-3 -6.999,-3c-3,0 -5.001,1 -7,3l-3,3c-1,1 -5,3 -7,3l-2,0c0.049,-2.832 0.259,-7.777 1,-10c0.999,-3 3,-6 5,-7.999c2,-2 8,-6 8,-6l0,-1c0,0 -10,2 -12,2l-6,0c-2,0 -12,-2 -12,-2l0,1c0,0 6,4 8,6c2.001,2 4,4.999 5.001,7.999c0.741,2.223 0.95,7.168 0.999,10l-2,0c-2,0 -6,-2 -7,-3l-3,-3c-2,-2 -3.999,-3 -6.999,-3c-3,0 -5.001,1 -7,3c-2,2 -3,4 -3,7c0,3 1,4.999 3,7c2,2 4,3 7,3c3,0 5,-1 6.999,-3l3,-3c1,-1 5.001,-3 7,-3l2,0c0,1.391 0,0.999 0,3c0,2 -0.999,6 -2,7.999c-1,2 -2,3 -4,5c-1.989,1.989 -3,3.999 -3,6.999c0,3 1,5 3,7c2.001,2 4,3 7,3" style="fill-rule:nonzero;"/><path id="path176" d="M23.671,68.671c-1.125,-0.023 -1.875,0.375 -2.625,1.125c-0.75,0.75 -1.125,1.5 -1.125,2.625c0,1.125 0.427,1.793 1.125,2.625c0.668,0.797 1.125,1.125 1.5,1.875c0.375,0.75 0.75,2.25 0.75,3c0,0.75 0,0.674 0,1.125l-0.75,0c-0.75,0 -2.25,-0.75 -2.625,-1.125l-1.125,-1.125c-0.75,-0.75 -1.5,-1.125 -2.625,-1.125c-1.125,0 -1.875,0.375 -2.625,1.125c-0.75,0.75 -1.125,1.5 -1.125,2.625c0,1.125 0.375,1.875 1.125,2.625c0.75,0.75 1.5,1.125 2.625,1.125c1.125,0 1.875,-0.375 2.625,-1.125l1.125,-1.125c0.375,-0.375 1.875,-1.125 2.625,-1.125l0.75,0c-0.019,1.062 -0.097,2.917 -0.375,3.75c-0.375,1.125 -1.125,2.25 -1.875,3c-0.75,0.75 -3,2.25 -3,2.25l0,0.375c0,0 3.75,-0.75 4.5,-0.75l2.25,0c0.75,0 4.5,0.75 4.5,0.75l0,-0.375c0,0 -2.25,-1.5 -3,-2.25c-0.75,-0.75 -1.5,-1.875 -1.875,-3c-0.277,-0.833 -0.356,-2.688 -0.375,-3.75l0.75,0c0.75,0 2.25,0.75 2.625,1.125l1.125,1.125c0.75,0.75 1.5,1.125 2.625,1.125c1.125,0 1.875,-0.375 2.625,-1.125c0.75,-0.75 1.125,-1.5 1.125,-2.625c0,-1.125 -0.375,-1.875 -1.125,-2.625c-0.75,-0.75 -1.5,-1.125 -2.625,-1.125c-1.125,0 -1.875,0.375 -2.625,1.125l-1.125,1.125c-0.375,0.375 -1.875,1.125 -2.625,1.125l-0.75,0c0,-0.522 0,-0.375 0,-1.125c0,-0.75 0.375,-2.25 0.75,-3c0.375,-0.75 0.75,-1.125 1.5,-1.875c0.746,-0.746 1.125,-1.5 1.125,-2.625c0,-1.125 -0.375,-1.875 -1.125,-2.625c-0.75,-0.75 -1.5,-1.125 -2.625,-1.125" style="fill-rule:nonzero;"/><path id="path178" d="M248.671,338.671c1.125,0.021 1.875,-0.334 2.625,-1c0.75,-0.666 1.125,-1.333 1.125,-2.333c0,-1 -0.427,-1.593 -1.125,-2.333c-0.668,-0.708 -1.125,-1 -1.5,-1.667c-0.375,-0.666 -0.75,-2 -0.75,-2.667c0,-0.666 0,-0.599 0,-0.999l0.75,0c0.75,0 2.25,0.666 2.625,0.999l1.125,1c0.75,0.667 1.5,1 2.625,1c1.125,0 1.875,-0.334 2.625,-1c0.75,-0.667 1.125,-1.333 1.125,-2.333c0,-1 -0.375,-1.667 -1.125,-2.333c-0.75,-0.667 -1.5,-1 -2.625,-1c-1.125,0 -1.875,0.333 -2.625,1l-1.125,0.999c-0.375,0.333 -1.875,1 -2.625,1l-0.75,0c0.019,-0.944 0.098,-2.593 0.375,-3.334c0.375,-0.999 1.125,-2 1.875,-2.667c0.75,-0.666 3,-2 3,-2l0,-0.333c0,0 -3.75,0.667 -4.5,0.667l-2.25,0c-0.75,0 -4.5,-0.667 -4.5,-0.667l0,0.333c0,0 2.25,1.334 3,2c0.75,0.667 1.5,1.667 1.875,2.667c0.278,0.741 0.356,2.39 0.375,3.334l-0.75,0c-0.75,0 -2.25,-0.667 -2.625,-1l-1.125,-0.999c-0.75,-0.667 -1.5,-1 -2.625,-1c-1.125,0 -1.875,0.333 -2.625,1c-0.75,0.666 -1.125,1.333 -1.125,2.333c0,1 0.375,1.666 1.125,2.333c0.75,0.667 1.5,1 2.625,1c1.125,0 1.875,-0.334 2.625,-1l1.125,-1c0.375,-0.333 1.875,-0.999 2.625,-0.999l0.75,0c0,0.463 0,0.333 0,0.999c0,0.667 -0.375,2.001 -0.75,2.667c-0.375,0.667 -0.75,1 -1.5,1.667c-0.746,0.664 -1.125,1.333 -1.125,2.333c0,1 0.375,1.667 1.125,2.333c0.75,0.667 1.5,1 2.625,1" style="fill-rule:nonzero;"/></g></svg>