<?xml version="1.0" encoding="UTF-8" standalone="no"?><!DOCTYPE svg PUBLIC "-//W3C//DTD SVG 1.1//EN" "http://www.w3.org/Graphics/SVG/1.1/DTD/svg11.dtd"><svg width="100%" height="100%" viewBox="0 0 273 408" version="1.1" xmlns="http://www.w3.org/2000/svg" xmlns:xlink="http://www.w3.org/1999/xlink" xml:space="preserve" xmlns:serif="http://www.serif.com/" style="fill-rule:evenodd;clip-rule:evenodd;stroke-linejoin:round;stroke-miterlimit:1.41421;"><path id="diamond" d="M136.167,188.451c0,0 19.966,33.276 43.259,56.569c23.293,23.293 56.569,43.259 56.569,43.259c0,0 -33.276,19.965 -56.569,43.258c-23.293,23.293 -43.259,56.569 -43.259,56.569c0,0 -19.965,-33.276 -43.258,-56.569c-23.29,-23.293 -56.569,-43.258 -56.569,-43.258c0,0 33.276,-19.966 56.569,-43.259c23.293,-23.29 43.258,-56.569 43.258,-56.569" style="fill:#f55;fill-rule:nonzero;"/><g id="red-numbers" serif:id="red numbers"><g><path d="M168.51,176.072c26.18,0 33.88,-9.68 33.88,-43.56c0,-19.8 -2.64,-30.58 -10.12,-33.22c6.82,-4.84 10.12,-15.62 10.12,-30.58c0,-38.5 -7.7,-46.64 -36.08,-46.64l-95.7,0l0,33.66l89.54,-0.22c7.92,0 8.36,4.84 8.36,12.98c0,9.24 -0.44,12.98 -8.36,12.98l-89.54,0l0,36.74l89.54,0c7.92,0 8.36,4.62 8.36,11.88c0,8.8 0,12.54 -8.36,12.54l-89.54,0l0,33.66c0,0 58.52,-0.22 97.9,-0.22Z" style="fill:#ff5454;fill-rule:nonzero;"/></g></g></svg>