<?xml version="1.0" encoding="UTF-8" standalone="no"?><!DOCTYPE svg PUBLIC "-//W3C//DTD SVG 1.1//EN" "http://www.w3.org/Graphics/SVG/1.1/DTD/svg11.dtd"><svg width="100%" height="100%" viewBox="0 0 273 408" version="1.1" xmlns="http://www.w3.org/2000/svg" xmlns:xlink="http://www.w3.org/1999/xlink" xml:space="preserve" xmlns:serif="http://www.serif.com/" style="fill-rule:evenodd;clip-rule:evenodd;stroke-linejoin:round;stroke-miterlimit:1.41421;"><path id="heart" d="M135.928,244.344c0,0 4.33,-26.538 12.69,-34.898c8.359,-8.362 23.073,-12.69 34.897,-12.69c11.824,0 26.538,4.331 34.898,12.69c8.362,8.36 12.69,23.074 12.69,34.898c0,11.824 -6.345,28.552 -12.69,34.897c-6.345,6.348 -12.687,9.518 -19.035,15.866c-6.345,6.345 -9.518,6.345 -15.863,12.687c-6.345,6.348 -9.517,9.517 -15.862,15.865c-6.345,6.345 -15.863,19.035 -22.208,31.722c-6.345,12.69 -9.517,31.725 -9.517,31.725c0,0 -3.173,-19.035 -9.518,-31.725c-6.345,-12.687 -15.862,-25.38 -22.207,-31.722c-6.345,-6.348 -9.518,-9.517 -15.863,-15.865c-6.345,-6.345 -9.517,-6.345 -15.862,-12.687c-6.345,-6.348 -12.69,-9.518 -19.035,-15.866c-6.345,-6.345 -12.69,-23.073 -12.69,-34.897c0,-11.824 4.33,-26.538 12.69,-34.898c8.359,-8.362 23.074,-12.69 34.897,-12.69c11.824,0 26.538,4.331 34.898,12.69c8.363,8.36 12.69,34.898 12.69,34.898" style="fill:#f55;fill-rule:nonzero;"/><g id="red-numbers" serif:id="red numbers"><g><path d="M168.51,176.072c26.18,0 33.88,-9.68 33.88,-43.56c0,-19.8 -2.64,-30.58 -10.12,-33.22c6.82,-4.84 10.12,-15.62 10.12,-30.58c0,-38.5 -7.7,-46.64 -36.08,-46.64l-95.7,0l0,33.66l89.54,-0.22c7.92,0 8.36,4.84 8.36,12.98c0,9.24 -0.44,12.98 -8.36,12.98l-89.54,0l0,36.74l89.54,0c7.92,0 8.36,4.62 8.36,11.88c0,8.8 0,12.54 -8.36,12.54l-89.54,0l0,33.66c0,0 58.52,-0.22 97.9,-0.22Z" style="fill:#ff5454;fill-rule:nonzero;"/></g></g></svg>