<?xml version="1.0" encoding="UTF-8" standalone="no"?><!DOCTYPE svg PUBLIC "-//W3C//DTD SVG 1.1//EN" "http://www.w3.org/Graphics/SVG/1.1/DTD/svg11.dtd"><svg width="100%" height="100%" viewBox="0 0 273 408" version="1.1" xmlns="http://www.w3.org/2000/svg" xmlns:xlink="http://www.w3.org/1999/xlink" xml:space="preserve" xmlns:serif="http://www.serif.com/" style="fill-rule:evenodd;clip-rule:evenodd;stroke-linejoin:round;stroke-miterlimit:1.41421;"><path id="diamond" d="M136.167,188.451c0,0 19.966,33.276 43.259,56.569c23.293,23.293 56.569,43.259 56.569,43.259c0,0 -33.276,19.965 -56.569,43.258c-23.293,23.293 -43.259,56.569 -43.259,56.569c0,0 -19.965,-33.276 -43.258,-56.569c-23.29,-23.293 -56.569,-43.258 -56.569,-43.258c0,0 33.276,-19.966 56.569,-43.259c23.293,-23.29 43.258,-56.569 43.258,-56.569" style="fill:#f55;fill-rule:nonzero;"/><g id="red-numbers" serif:id="red numbers"><g><path d="M203.6,70.472c0,-38.5 -7.7,-48.18 -36.08,-48.18l-62.04,0c-28.38,0 -36.08,9.68 -36.08,48.18c0,15.18 3.08,23.76 10.12,28.6c-7.7,2.64 -10.12,10.56 -10.12,32.56c0,35.86 10.56,44.44 33.88,44.44l66.44,0c23.32,0 33.88,-8.58 33.88,-44.44c0,-22 -2.42,-29.92 -10.12,-32.56c6.82,-4.84 10.12,-13.42 10.12,-28.6Zm-42.68,10.78l-49.06,0c-7.48,0 -8.14,-3.08 -8.14,-10.78c0,-8.58 -0.44,-14.3 8.14,-14.3l49.06,0c7.7,0 8.14,4.62 8.14,12.1c0,9.24 0,12.98 -8.14,12.98Zm0,61.16l-49.06,0c-7.48,0 -8.14,-3.08 -8.14,-10.78c0,-7.7 -0.44,-13.64 8.14,-13.64l49.06,0c7.7,0 8.14,4.84 8.14,11.44c0,9.24 0,12.98 -8.14,12.98Z" style="fill:#ff5454;fill-rule:nonzero;"/></g></g></svg>