<?xml version="1.0" encoding="UTF-8" standalone="no"?><!DOCTYPE svg PUBLIC "-//W3C//DTD SVG 1.1//EN" "http://www.w3.org/Graphics/SVG/1.1/DTD/svg11.dtd"><svg width="100%" height="100%" viewBox="0 0 273 408" version="1.1" xmlns="http://www.w3.org/2000/svg" xmlns:xlink="http://www.w3.org/1999/xlink" xml:space="preserve" xmlns:serif="http://www.serif.com/" style="fill-rule:evenodd;clip-rule:evenodd;stroke-linejoin:round;stroke-miterlimit:1.41421;"><path id="spade" d="M136.488,195.756c-3.172,15.863 -6.792,19.968 -12.69,28.553c-5.079,7.398 -12.185,13.236 -19.035,19.035c-6.938,5.878 -14.866,10.488 -22.204,15.862c-8.534,6.247 -18.607,10.917 -25.383,19.035c-7.576,9.08 -15.863,19.901 -15.863,31.725c0,9.457 5.73,18.975 12.69,25.38c8.382,7.713 20.339,12.954 31.725,12.69c12.773,-0.295 25.698,-6.995 34.898,-15.862c6.808,-6.564 12.69,-25.38 12.69,-25.38l0,6.345c0,3.172 -0.317,17.344 -3.173,25.38c-3.34,9.4 -9.114,18.032 -15.862,25.38c-7.164,7.788 -25.383,19.035 -25.383,19.035l0,3.172c0,0 25.25,-5.285 38.07,-6.345c6.326,-0.523 12.712,-0.523 19.035,0c12.82,1.06 38.07,6.345 38.07,6.345l0,-3.172c0,0 -18.226,-11.247 -25.38,-19.035c-6.748,-7.348 -12.522,-15.98 -15.863,-25.38c-2.855,-8.033 -3.172,-25.38 -3.172,-25.38l0,-6.345c0,0 5.878,18.816 12.69,25.38c9.2,8.864 22.121,15.567 34.897,15.862c11.389,0.264 23.343,-4.977 31.725,-12.69c6.96,-6.405 12.69,-15.919 12.69,-25.38c0,-11.824 -8.29,-22.645 -15.866,-31.725c-6.776,-8.118 -16.846,-12.788 -25.38,-19.035c-7.341,-5.371 -15.266,-9.98 -22.207,-15.862c-6.846,-5.799 -13.953,-11.637 -19.035,-19.035c-5.895,-8.585 -9.518,-12.69 -12.687,-28.553" style="fill-rule:nonzero;"/><g id="black-numbers" serif:id="black numbers"><g><path d="M203.6,70.472c0,-38.5 -7.7,-48.18 -36.08,-48.18l-62.04,0c-28.38,0 -36.08,9.68 -36.08,48.18c0,15.18 3.08,23.76 10.12,28.6c-7.7,2.64 -10.12,10.56 -10.12,32.56c0,35.86 10.56,44.44 33.88,44.44l66.44,0c23.32,0 33.88,-8.58 33.88,-44.44c0,-22 -2.42,-29.92 -10.12,-32.56c6.82,-4.84 10.12,-13.42 10.12,-28.6Zm-42.68,10.78l-49.06,0c-7.48,0 -8.14,-3.08 -8.14,-10.78c0,-8.58 -0.44,-14.3 8.14,-14.3l49.06,0c7.7,0 8.14,4.62 8.14,12.1c0,9.24 0,12.98 -8.14,12.98Zm0,61.16l-49.06,0c-7.48,0 -8.14,-3.08 -8.14,-10.78c0,-7.7 -0.44,-13.64 8.14,-13.64l49.06,0c7.7,0 8.14,4.84 8.14,11.44c0,9.24 0,12.98 -8.14,12.98Z" style="fill-rule:nonzero;"/></g></g></svg>