<?xml version="1.0" encoding="UTF-8" standalone="no"?><!DOCTYPE svg PUBLIC "-//W3C//DTD SVG 1.1//EN" "http://www.w3.org/Graphics/SVG/1.1/DTD/svg11.dtd"><svg width="100%" height="100%" viewBox="0 0 273 408" version="1.1" xmlns="http://www.w3.org/2000/svg" xmlns:xlink="http://www.w3.org/1999/xlink" xml:space="preserve" xmlns:serif="http://www.serif.com/" style="fill-rule:evenodd;clip-rule:evenodd;stroke-linejoin:round;stroke-miterlimit:1.41421;"><path id="diamond" d="M136.167,188.451c0,0 19.966,33.276 43.259,56.569c23.293,23.293 56.569,43.259 56.569,43.259c0,0 -33.276,19.965 -56.569,43.258c-23.293,23.293 -43.259,56.569 -43.259,56.569c0,0 -19.965,-33.276 -43.258,-56.569c-23.29,-23.293 -56.569,-43.258 -56.569,-43.258c0,0 33.276,-19.966 56.569,-43.259c23.293,-23.29 43.258,-56.569 43.258,-56.569" style="fill:#f55;fill-rule:nonzero;"/><g id="red-numbers" serif:id="red numbers"><g><path d="M170.16,22.072l-67.32,0c-23.54,-0.22 -34.1,8.8 -34.1,44c0,22.22 12.32,33 35.64,33l46.42,0l-48.4,76.78l43.34,0.22c23.1,-33.22 58.3,-77.88 58.52,-110c0,-35.2 -10.78,-44 -34.1,-44Zm-54.34,26.4l40.7,0c8.36,0 8.36,3.3 8.36,12.98c0,6.82 -0.66,11.66 -8.36,11.66l-40.48,-0.22c-7.92,0 -8.36,-4.62 -8.36,-11.66c0,-9.24 0,-12.76 8.14,-12.76Z" style="fill:#ff5454;fill-rule:nonzero;"/></g></g></svg>