<?xml version="1.0" encoding="UTF-8" standalone="no"?><!DOCTYPE svg PUBLIC "-//W3C//DTD SVG 1.1//EN" "http://www.w3.org/Graphics/SVG/1.1/DTD/svg11.dtd"><svg width="100%" height="100%" viewBox="0 0 273 408" version="1.1" xmlns="http://www.w3.org/2000/svg" xmlns:xlink="http://www.w3.org/1999/xlink" xml:space="preserve" xmlns:serif="http://www.serif.com/" style="fill-rule:evenodd;clip-rule:evenodd;stroke-linejoin:round;stroke-miterlimit:1.41421;"><path id="heart" d="M135.928,244.344c0,0 4.33,-26.538 12.69,-34.898c8.359,-8.362 23.073,-12.69 34.897,-12.69c11.824,0 26.538,4.331 34.898,12.69c8.362,8.36 12.69,23.074 12.69,34.898c0,11.824 -6.345,28.552 -12.69,34.897c-6.345,6.348 -12.687,9.518 -19.035,15.866c-6.345,6.345 -9.518,6.345 -15.863,12.687c-6.345,6.348 -9.517,9.517 -15.862,15.865c-6.345,6.345 -15.863,19.035 -22.208,31.722c-6.345,12.69 -9.517,31.725 -9.517,31.725c0,0 -3.173,-19.035 -9.518,-31.725c-6.345,-12.687 -15.862,-25.38 -22.207,-31.722c-6.345,-6.348 -9.518,-9.517 -15.863,-15.865c-6.345,-6.345 -9.517,-6.345 -15.862,-12.687c-6.345,-6.348 -12.69,-9.518 -19.035,-15.866c-6.345,-6.345 -12.69,-23.073 -12.69,-34.897c0,-11.824 4.33,-26.538 12.69,-34.898c8.359,-8.362 23.074,-12.69 34.897,-12.69c11.824,0 26.538,4.331 34.898,12.69c8.363,8.36 12.69,34.898 12.69,34.898" style="fill:#f55;fill-rule:nonzero;"/><g id="red-numbers" serif:id="red numbers"><g><path d="M136.61,22.292c-42.46,0 -77,34.54 -77,76.78c0,42.46 34.54,77 77,77c11,0 21.56,-2.42 31.24,-6.82l18.48,18.48l20.02,-17.82l-15.84,-16.06c14.08,-13.86 22.88,-33.22 22.88,-54.78c0,-42.24 -34.54,-76.78 -76.78,-76.78Zm0,36.74c22,0 40.04,18.04 40.04,40.04c0,22.22 -18.04,40.26 -40.04,40.26c-22.22,0 -40.26,-18.04 -40.26,-40.26c0,-22 18.04,-40.04 40.26,-40.04Z" style="fill:#ff5454;fill-rule:nonzero;"/></g></g></svg>