<?xml version="1.0" encoding="UTF-8" standalone="no"?><!DOCTYPE svg PUBLIC "-//W3C//DTD SVG 1.1//EN" "http://www.w3.org/Graphics/SVG/1.1/DTD/svg11.dtd"><svg width="100%" height="100%" viewBox="0 0 273 408" version="1.1" xmlns="http://www.w3.org/2000/svg" xmlns:xlink="http://www.w3.org/1999/xlink" xml:space="preserve" xmlns:serif="http://www.serif.com/" style="fill-rule:evenodd;clip-rule:evenodd;stroke-linejoin:round;stroke-miterlimit:1.41421;"><path id="club" d="M136.5,192.216c-9.713,-0.198 -16.194,3.236 -22.671,9.716c-6.478,6.478 -9.717,12.952 -9.717,22.668c0,9.717 3.689,15.479 9.717,22.672c5.771,6.882 9.716,9.716 12.955,16.194c3.238,6.477 6.477,19.432 6.477,25.907c0,6.477 0,5.826 0,9.716l-6.477,0c-6.478,0 -19.433,-6.478 -22.672,-9.716l-9.716,-9.717c-6.478,-6.477 -12.952,-9.716 -22.668,-9.716c-9.717,0 -16.197,3.239 -22.672,9.716c-6.477,6.478 -9.716,12.955 -9.716,22.672c0,9.716 3.239,16.19 9.716,22.671c6.478,6.478 12.955,9.716 22.672,9.716c9.716,0 16.194,-3.238 22.668,-9.716l9.716,-9.716c3.239,-3.239 16.197,-9.716 22.672,-9.716l6.477,0c-0.158,9.172 -0.839,25.187 -3.235,32.384c-3.239,9.716 -9.717,19.433 -16.197,25.91c-6.478,6.478 -25.911,19.433 -25.911,19.433l0,3.239c0,0 32.388,-6.481 38.866,-6.481l19.432,0c6.478,0 38.866,6.481 38.866,6.481l0,-3.239c0,0 -19.433,-12.955 -25.911,-19.433c-6.477,-6.477 -12.955,-16.194 -16.193,-25.91c-2.4,-7.197 -3.081,-23.212 -3.239,-32.384l6.477,0c6.478,0 19.433,6.477 22.672,9.716l9.716,9.716c6.478,6.478 12.955,9.716 22.671,9.716c9.717,0 16.194,-3.238 22.669,-9.716c6.48,-6.481 9.716,-12.955 9.716,-22.671c0,-9.717 -3.236,-16.194 -9.716,-22.672c-6.478,-6.477 -12.952,-9.716 -22.669,-9.716c-9.716,0 -16.197,3.239 -22.671,9.716l-9.716,9.717c-3.239,3.238 -16.194,9.716 -22.672,9.716l-6.477,0c0,-4.505 0,-3.239 0,-9.716c0,-6.478 3.239,-19.433 6.477,-25.907c3.239,-6.481 6.478,-9.717 12.955,-16.194c6.446,-6.445 9.717,-12.955 9.717,-22.672c0,-9.716 -3.239,-16.19 -9.717,-22.668c-6.477,-6.48 -12.955,-9.716 -22.671,-9.716" style="fill-rule:nonzero;"/><g id="black-numbers" serif:id="black numbers"><g><path d="M75.034,22.072l-42.46,0l-31.9,18.92l0,31.9l31.9,-15.18l0,82.5l-31.9,0l0,35.86l106.26,0l0,-35.86l-31.9,0l0,-118.14Z" style="fill-rule:nonzero;"/><path d="M140.154,70.032l-0.22,57.86c0,36.52 31.24,48.18 68.64,48.18c40.7,0 64.02,-11.88 64.02,-45.76l0.22,-62.48c0,-31.68 -29.92,-45.76 -64.9,-45.76c-37.4,0 -67.76,11.44 -67.76,47.96Zm66,73.04c-9.68,0 -26.4,-2.2 -26.4,-22.22c0,-8.8 0.22,-27.06 0.22,-43.78c0,-20.02 16.72,-22.22 26.4,-22.22c9.68,0 27.94,3.52 27.94,22.44c0,16.94 -0.22,36.08 -0.22,43.34c0,18.92 -18.26,22.44 -27.94,22.44Z" style="fill-rule:nonzero;"/></g></g></svg>