<?xml version="1.0" encoding="UTF-8" standalone="no"?><!DOCTYPE svg PUBLIC "-//W3C//DTD SVG 1.1//EN" "http://www.w3.org/Graphics/SVG/1.1/DTD/svg11.dtd"><svg width="100%" height="100%" viewBox="0 0 273 408" version="1.1" xmlns="http://www.w3.org/2000/svg" xmlns:xlink="http://www.w3.org/1999/xlink" xml:space="preserve" xmlns:serif="http://www.serif.com/" style="fill-rule:evenodd;clip-rule:evenodd;stroke-linejoin:round;stroke-miterlimit:1.41421;"><path id="diamond" d="M136.167,188.451c0,0 19.966,33.276 43.259,56.569c23.293,23.293 56.569,43.259 56.569,43.259c0,0 -33.276,19.965 -56.569,43.258c-23.293,23.293 -43.259,56.569 -43.259,56.569c0,0 -19.965,-33.276 -43.258,-56.569c-23.29,-23.293 -56.569,-43.258 -56.569,-43.258c0,0 33.276,-19.966 56.569,-43.259c23.293,-23.29 43.258,-56.569 43.258,-56.569" style="fill:#f55;fill-rule:nonzero;"/><g id="red-numbers" serif:id="red numbers"><g><path d="M75.034,22.072l-42.46,0l-31.9,18.92l0,31.9l31.9,-15.18l0,82.5l-31.9,0l0,35.86l106.26,0l0,-35.86l-31.9,0l0,-118.14Z" style="fill:#ff5454;fill-rule:nonzero;"/><path d="M140.154,70.032l-0.22,57.86c0,36.52 31.24,48.18 68.64,48.18c40.7,0 64.02,-11.88 64.02,-45.76l0.22,-62.48c0,-31.68 -29.92,-45.76 -64.9,-45.76c-37.4,0 -67.76,11.44 -67.76,47.96Zm66,73.04c-9.68,0 -26.4,-2.2 -26.4,-22.22c0,-8.8 0.22,-27.06 0.22,-43.78c0,-20.02 16.72,-22.22 26.4,-22.22c9.68,0 27.94,3.52 27.94,22.44c0,16.94 -0.22,36.08 -0.22,43.34c0,18.92 -18.26,22.44 -27.94,22.44Z" style="fill:#ff5454;fill-rule:nonzero;"/></g></g></svg>